<mxfile host="Electron" agent="Mozilla/5.0 (Windows NT 10.0; Win64; x64) AppleWebKit/537.36 (KHTML, like Gecko) draw.io/25.0.1 Chrome/128.0.6613.186 Electron/32.2.6 Safari/537.36" version="25.0.1">
  <diagram name="Page-1" id="dSvuV1CNV-9eOFvfghRx">
    <mxGraphModel dx="2440" dy="364" grid="1" gridSize="10" guides="1" tooltips="1" connect="1" arrows="1" fold="1" page="1" pageScale="1" pageWidth="850" pageHeight="1100" math="0" shadow="0">
      <root>
        <mxCell id="0" />
        <mxCell id="1" parent="0" />
        <mxCell id="VqtLqSN2PKeOcX4HlBF0-1" value="" style="rounded=0;whiteSpace=wrap;html=1;movable=0;resizable=0;rotatable=0;deletable=0;editable=0;locked=1;connectable=0;" vertex="1" parent="1">
          <mxGeometry x="20" y="1123" width="1630" height="1437" as="geometry" />
        </mxCell>
        <mxCell id="YVLUfFIhRKJOg-uTzJRr-572" value="" style="endArrow=none;html=1;rounded=0;entryX=0.5;entryY=1;entryDx=0;entryDy=0;exitX=0.5;exitY=0;exitDx=0;exitDy=0;fillColor=#6a00ff;strokeColor=#3700CC;curved=1;strokeWidth=2;" parent="1" source="YVLUfFIhRKJOg-uTzJRr-277" target="y80X-6pCnRY0oYuj_kBl-26" edge="1">
          <mxGeometry width="50" height="50" relative="1" as="geometry">
            <mxPoint x="755" y="1590.25" as="sourcePoint" />
            <mxPoint x="805" y="1540.25" as="targetPoint" />
            <Array as="points">
              <mxPoint x="545" y="2320.25" />
              <mxPoint x="515" y="2150.25" />
              <mxPoint x="365" y="1820.25" />
              <mxPoint x="535" y="1650.25" />
              <mxPoint x="615" y="1550.25" />
              <mxPoint x="575" y="1400.25" />
              <mxPoint x="515" y="1240.25" />
            </Array>
          </mxGeometry>
        </mxCell>
        <mxCell id="y80X-6pCnRY0oYuj_kBl-26" value="&lt;b&gt;&lt;font color=&quot;#e8e7e8&quot; style=&quot;font-size: 15px;&quot; face=&quot;Comic Sans MS&quot;&gt;Java&lt;/font&gt;&lt;/b&gt;" style="rounded=1;whiteSpace=wrap;html=1;fillColor=#a20025;fontColor=#ffffff;strokeColor=#6F0000;arcSize=50;" parent="1" vertex="1">
          <mxGeometry x="495" y="1150.25" width="107.67" height="26" as="geometry" />
        </mxCell>
        <mxCell id="YVLUfFIhRKJOg-uTzJRr-1" value="&lt;b&gt;&lt;font face=&quot;Comic Sans MS&quot;&gt;Fundamentals&lt;/font&gt;&lt;/b&gt;" style="rounded=0;whiteSpace=wrap;html=1;fillColor=#FFFF33;fontColor=#000000;strokeColor=#000000;" parent="1" vertex="1">
          <mxGeometry x="468" y="1306.75" width="150" height="22.5" as="geometry" />
        </mxCell>
        <mxCell id="YVLUfFIhRKJOg-uTzJRr-5" value="" style="group" parent="1" vertex="1" connectable="0">
          <mxGeometry x="195" y="1266.25" width="185" height="22.5" as="geometry" />
        </mxCell>
        <mxCell id="YVLUfFIhRKJOg-uTzJRr-2" value="&lt;b&gt;&lt;font face=&quot;Comic Sans MS&quot;&gt;Basic Syntax&lt;/font&gt;&lt;/b&gt;" style="rounded=0;whiteSpace=wrap;html=1;fillColor=#CCFF99;fontColor=#000000;strokeColor=#000000;" parent="YVLUfFIhRKJOg-uTzJRr-5" vertex="1">
          <mxGeometry width="150.3125" height="22.5" as="geometry" />
        </mxCell>
        <mxCell id="YVLUfFIhRKJOg-uTzJRr-3" value="" style="rounded=0;whiteSpace=wrap;html=1;fillColor=#80FF00;fontColor=#000000;strokeColor=#000000;" parent="YVLUfFIhRKJOg-uTzJRr-5" vertex="1">
          <mxGeometry x="150.3125" width="34.6875" height="22.5" as="geometry" />
        </mxCell>
        <mxCell id="YVLUfFIhRKJOg-uTzJRr-4" value="" style="verticalLabelPosition=bottom;verticalAlign=top;html=1;shape=mxgraph.basic.tick;strokeColor=#000000;fillColor=#000000;" parent="YVLUfFIhRKJOg-uTzJRr-5" vertex="1">
          <mxGeometry x="158.31374999999994" y="3.5" width="18.685" height="15.5" as="geometry" />
        </mxCell>
        <mxCell id="YVLUfFIhRKJOg-uTzJRr-6" value="" style="group" parent="1" vertex="1" connectable="0">
          <mxGeometry x="195" y="1294.25" width="185" height="22.5" as="geometry" />
        </mxCell>
        <mxCell id="YVLUfFIhRKJOg-uTzJRr-7" value="&lt;b&gt;&lt;font face=&quot;Comic Sans MS&quot;&gt;Data Type &amp;amp; Variables&lt;/font&gt;&lt;/b&gt;" style="rounded=0;whiteSpace=wrap;html=1;fillColor=#CCFF99;fontColor=#000000;strokeColor=#000000;" parent="YVLUfFIhRKJOg-uTzJRr-6" vertex="1">
          <mxGeometry width="150.3125" height="22.5" as="geometry" />
        </mxCell>
        <mxCell id="YVLUfFIhRKJOg-uTzJRr-8" value="" style="rounded=0;whiteSpace=wrap;html=1;fillColor=#80FF00;fontColor=#000000;strokeColor=#000000;" parent="YVLUfFIhRKJOg-uTzJRr-6" vertex="1">
          <mxGeometry x="150.3125" width="34.6875" height="22.5" as="geometry" />
        </mxCell>
        <mxCell id="YVLUfFIhRKJOg-uTzJRr-9" value="" style="verticalLabelPosition=bottom;verticalAlign=top;html=1;shape=mxgraph.basic.tick;strokeColor=#000000;fillColor=#000000;" parent="YVLUfFIhRKJOg-uTzJRr-6" vertex="1">
          <mxGeometry x="158.31374999999994" y="3.5" width="18.685" height="15.5" as="geometry" />
        </mxCell>
        <mxCell id="YVLUfFIhRKJOg-uTzJRr-10" value="" style="group" parent="1" vertex="1" connectable="0">
          <mxGeometry x="195" y="1322.25" width="185" height="22.5" as="geometry" />
        </mxCell>
        <mxCell id="YVLUfFIhRKJOg-uTzJRr-11" value="&lt;b&gt;&lt;font face=&quot;Comic Sans MS&quot;&gt;Conditionals &amp;amp; Functions&lt;/font&gt;&lt;/b&gt;" style="rounded=0;whiteSpace=wrap;html=1;fillColor=#CCFF99;fontColor=#000000;strokeColor=#000000;" parent="YVLUfFIhRKJOg-uTzJRr-10" vertex="1">
          <mxGeometry width="150.3125" height="22.5" as="geometry" />
        </mxCell>
        <mxCell id="YVLUfFIhRKJOg-uTzJRr-12" value="" style="rounded=0;whiteSpace=wrap;html=1;fillColor=#80FF00;fontColor=#000000;strokeColor=#000000;" parent="YVLUfFIhRKJOg-uTzJRr-10" vertex="1">
          <mxGeometry x="150.3125" width="34.6875" height="22.5" as="geometry" />
        </mxCell>
        <mxCell id="YVLUfFIhRKJOg-uTzJRr-13" value="" style="verticalLabelPosition=bottom;verticalAlign=top;html=1;shape=mxgraph.basic.tick;strokeColor=#000000;fillColor=#000000;" parent="YVLUfFIhRKJOg-uTzJRr-10" vertex="1">
          <mxGeometry x="158.31374999999994" y="3.5" width="18.685" height="15.5" as="geometry" />
        </mxCell>
        <mxCell id="YVLUfFIhRKJOg-uTzJRr-14" value="" style="group" parent="1" vertex="1" connectable="0">
          <mxGeometry x="195" y="1350.25" width="185" height="22.5" as="geometry" />
        </mxCell>
        <mxCell id="YVLUfFIhRKJOg-uTzJRr-15" value="&lt;b&gt;&lt;font face=&quot;Comic Sans MS&quot;&gt;Date / Time&lt;/font&gt;&lt;/b&gt;" style="rounded=0;whiteSpace=wrap;html=1;fillColor=#CCFF99;fontColor=#000000;strokeColor=#000000;" parent="YVLUfFIhRKJOg-uTzJRr-14" vertex="1">
          <mxGeometry width="150.3125" height="22.5" as="geometry" />
        </mxCell>
        <mxCell id="YVLUfFIhRKJOg-uTzJRr-16" value="" style="rounded=0;whiteSpace=wrap;html=1;fillColor=#80FF00;fontColor=#000000;strokeColor=#000000;" parent="YVLUfFIhRKJOg-uTzJRr-14" vertex="1">
          <mxGeometry x="150.3125" width="34.6875" height="22.5" as="geometry" />
        </mxCell>
        <mxCell id="YVLUfFIhRKJOg-uTzJRr-17" value="" style="verticalLabelPosition=bottom;verticalAlign=top;html=1;shape=mxgraph.basic.tick;strokeColor=#000000;fillColor=#000000;" parent="YVLUfFIhRKJOg-uTzJRr-14" vertex="1">
          <mxGeometry x="158.31374999999994" y="3.5" width="18.685" height="15.5" as="geometry" />
        </mxCell>
        <mxCell id="YVLUfFIhRKJOg-uTzJRr-18" value="" style="group" parent="1" vertex="1" connectable="0">
          <mxGeometry x="278" y="1400.25" width="170" height="22.5" as="geometry" />
        </mxCell>
        <mxCell id="YVLUfFIhRKJOg-uTzJRr-19" value="&lt;b&gt;&lt;font face=&quot;Comic Sans MS&quot;&gt;Loops&lt;/font&gt;&lt;/b&gt;" style="rounded=0;whiteSpace=wrap;html=1;fillColor=#CCFF99;fontColor=#000000;strokeColor=#000000;" parent="YVLUfFIhRKJOg-uTzJRr-18" vertex="1">
          <mxGeometry width="138.125" height="22.5" as="geometry" />
        </mxCell>
        <mxCell id="YVLUfFIhRKJOg-uTzJRr-20" value="" style="rounded=0;whiteSpace=wrap;html=1;fillColor=#80FF00;fontColor=#000000;strokeColor=#000000;" parent="YVLUfFIhRKJOg-uTzJRr-18" vertex="1">
          <mxGeometry x="138.125" width="31.875" height="22.5" as="geometry" />
        </mxCell>
        <mxCell id="YVLUfFIhRKJOg-uTzJRr-21" value="" style="verticalLabelPosition=bottom;verticalAlign=top;html=1;shape=mxgraph.basic.tick;strokeColor=#000000;fillColor=#000000;" parent="YVLUfFIhRKJOg-uTzJRr-18" vertex="1">
          <mxGeometry x="145.47749999999996" y="3.5" width="17.17" height="15.5" as="geometry" />
        </mxCell>
        <mxCell id="YVLUfFIhRKJOg-uTzJRr-22" value="" style="group" parent="1" vertex="1" connectable="0">
          <mxGeometry x="278" y="1432.25" width="170" height="22.5" as="geometry" />
        </mxCell>
        <mxCell id="YVLUfFIhRKJOg-uTzJRr-23" value="&lt;font face=&quot;Comic Sans MS&quot;&gt;&lt;b&gt;Exception Handling&lt;/b&gt;&lt;/font&gt;" style="rounded=0;whiteSpace=wrap;html=1;fillColor=#CCFF99;fontColor=#000000;strokeColor=#000000;" parent="YVLUfFIhRKJOg-uTzJRr-22" vertex="1">
          <mxGeometry width="138.125" height="22.5" as="geometry" />
        </mxCell>
        <mxCell id="YVLUfFIhRKJOg-uTzJRr-24" value="" style="rounded=0;whiteSpace=wrap;html=1;fillColor=#80FF00;fontColor=#000000;strokeColor=#000000;" parent="YVLUfFIhRKJOg-uTzJRr-22" vertex="1">
          <mxGeometry x="138.125" width="31.875" height="22.5" as="geometry" />
        </mxCell>
        <mxCell id="YVLUfFIhRKJOg-uTzJRr-25" value="" style="verticalLabelPosition=bottom;verticalAlign=top;html=1;shape=mxgraph.basic.tick;strokeColor=#000000;fillColor=#000000;" parent="YVLUfFIhRKJOg-uTzJRr-22" vertex="1">
          <mxGeometry x="145.47749999999996" y="3.5" width="17.17" height="15.5" as="geometry" />
        </mxCell>
        <mxCell id="YVLUfFIhRKJOg-uTzJRr-26" value="" style="endArrow=none;dashed=1;html=1;dashPattern=1 3;strokeWidth=1.8;rounded=0;exitX=1;exitY=0.5;exitDx=0;exitDy=0;entryX=0;entryY=0.5;entryDx=0;entryDy=0;curved=1;fillColor=#6a00ff;strokeColor=#4C0099;" parent="1" source="YVLUfFIhRKJOg-uTzJRr-3" target="YVLUfFIhRKJOg-uTzJRr-1" edge="1">
          <mxGeometry width="50" height="50" relative="1" as="geometry">
            <mxPoint x="448" y="1380.25" as="sourcePoint" />
            <mxPoint x="498" y="1330.25" as="targetPoint" />
            <Array as="points">
              <mxPoint x="428" y="1280.25" />
            </Array>
          </mxGeometry>
        </mxCell>
        <mxCell id="YVLUfFIhRKJOg-uTzJRr-28" value="" style="endArrow=none;dashed=1;html=1;dashPattern=1 3;strokeWidth=1.8;rounded=0;exitX=1;exitY=0.5;exitDx=0;exitDy=0;entryX=0;entryY=0.5;entryDx=0;entryDy=0;curved=1;fillColor=#6a00ff;strokeColor=#4C0099;" parent="1" source="YVLUfFIhRKJOg-uTzJRr-8" target="YVLUfFIhRKJOg-uTzJRr-1" edge="1">
          <mxGeometry width="50" height="50" relative="1" as="geometry">
            <mxPoint x="378" y="1313" as="sourcePoint" />
            <mxPoint x="468" y="1354" as="targetPoint" />
            <Array as="points">
              <mxPoint x="428" y="1300.25" />
            </Array>
          </mxGeometry>
        </mxCell>
        <mxCell id="YVLUfFIhRKJOg-uTzJRr-29" value="" style="endArrow=none;dashed=1;html=1;dashPattern=1 3;strokeWidth=1.8;rounded=0;exitX=1;exitY=0.5;exitDx=0;exitDy=0;entryX=0;entryY=0.5;entryDx=0;entryDy=0;curved=1;fillColor=#6a00ff;strokeColor=#4C0099;" parent="1" source="YVLUfFIhRKJOg-uTzJRr-12" target="YVLUfFIhRKJOg-uTzJRr-1" edge="1">
          <mxGeometry width="50" height="50" relative="1" as="geometry">
            <mxPoint x="388" y="1315.25" as="sourcePoint" />
            <mxPoint x="478" y="1328.25" as="targetPoint" />
            <Array as="points">
              <mxPoint x="428" y="1333.25" />
            </Array>
          </mxGeometry>
        </mxCell>
        <mxCell id="YVLUfFIhRKJOg-uTzJRr-30" value="" style="endArrow=none;dashed=1;html=1;dashPattern=1 3;strokeWidth=1.8;rounded=0;exitX=1;exitY=0.5;exitDx=0;exitDy=0;entryX=0;entryY=0.5;entryDx=0;entryDy=0;curved=1;fillColor=#6a00ff;strokeColor=#4C0099;" parent="1" source="YVLUfFIhRKJOg-uTzJRr-16" target="YVLUfFIhRKJOg-uTzJRr-1" edge="1">
          <mxGeometry width="50" height="50" relative="1" as="geometry">
            <mxPoint x="388" y="1343.25" as="sourcePoint" />
            <mxPoint x="478" y="1328.25" as="targetPoint" />
            <Array as="points">
              <mxPoint x="428" y="1360.25" />
            </Array>
          </mxGeometry>
        </mxCell>
        <mxCell id="YVLUfFIhRKJOg-uTzJRr-31" value="" style="endArrow=none;dashed=1;html=1;dashPattern=1 3;strokeWidth=1.8;rounded=0;exitX=1;exitY=0.5;exitDx=0;exitDy=0;entryX=0.25;entryY=1;entryDx=0;entryDy=0;curved=1;fillColor=#6a00ff;strokeColor=#4C0099;" parent="1" source="YVLUfFIhRKJOg-uTzJRr-20" target="YVLUfFIhRKJOg-uTzJRr-1" edge="1">
          <mxGeometry width="50" height="50" relative="1" as="geometry">
            <mxPoint x="388" y="1371.25" as="sourcePoint" />
            <mxPoint x="478" y="1328.25" as="targetPoint" />
            <Array as="points">
              <mxPoint x="508" y="1400.25" />
            </Array>
          </mxGeometry>
        </mxCell>
        <mxCell id="YVLUfFIhRKJOg-uTzJRr-32" value="" style="endArrow=none;dashed=1;html=1;dashPattern=1 3;strokeWidth=1.8;rounded=0;exitX=0.913;exitY=0.626;exitDx=0;exitDy=0;curved=1;fillColor=#6a00ff;strokeColor=#4C0099;exitPerimeter=0;" parent="1" source="YVLUfFIhRKJOg-uTzJRr-24" edge="1">
          <mxGeometry width="50" height="50" relative="1" as="geometry">
            <mxPoint x="458" y="1431.25" as="sourcePoint" />
            <mxPoint x="508" y="1330.25" as="targetPoint" />
            <Array as="points">
              <mxPoint x="498" y="1430.25" />
            </Array>
          </mxGeometry>
        </mxCell>
        <mxCell id="YVLUfFIhRKJOg-uTzJRr-41" value="" style="endArrow=none;dashed=1;html=1;dashPattern=1 3;strokeWidth=1.8;rounded=0;entryX=1;entryY=0.5;entryDx=0;entryDy=0;curved=1;fillColor=#6a00ff;strokeColor=#6600CC;exitX=0;exitY=0.5;exitDx=0;exitDy=0;" parent="1" source="YVLUfFIhRKJOg-uTzJRr-67" target="YVLUfFIhRKJOg-uTzJRr-1" edge="1">
          <mxGeometry width="50" height="50" relative="1" as="geometry">
            <mxPoint x="718" y="1263.5" as="sourcePoint" />
            <mxPoint x="516" y="1339.25" as="targetPoint" />
            <Array as="points">
              <mxPoint x="648" y="1260.25" />
            </Array>
          </mxGeometry>
        </mxCell>
        <mxCell id="YVLUfFIhRKJOg-uTzJRr-63" value="" style="endArrow=none;dashed=1;html=1;dashPattern=1 3;strokeWidth=1.8;rounded=0;entryX=1;entryY=0.5;entryDx=0;entryDy=0;curved=1;fillColor=#6a00ff;strokeColor=#6600CC;exitX=0;exitY=0.5;exitDx=0;exitDy=0;" parent="1" source="YVLUfFIhRKJOg-uTzJRr-75" target="YVLUfFIhRKJOg-uTzJRr-1" edge="1">
          <mxGeometry width="50" height="50" relative="1" as="geometry">
            <mxPoint x="678" y="1400.25" as="sourcePoint" />
            <mxPoint x="628" y="1328.25" as="targetPoint" />
            <Array as="points">
              <mxPoint x="658" y="1290.25" />
            </Array>
          </mxGeometry>
        </mxCell>
        <mxCell id="YVLUfFIhRKJOg-uTzJRr-64" value="" style="endArrow=none;dashed=1;html=1;dashPattern=1 3;strokeWidth=1.8;rounded=0;entryX=1;entryY=0.5;entryDx=0;entryDy=0;curved=1;fillColor=#6a00ff;strokeColor=#6600CC;exitX=0;exitY=0.5;exitDx=0;exitDy=0;" parent="1" source="YVLUfFIhRKJOg-uTzJRr-79" target="YVLUfFIhRKJOg-uTzJRr-1" edge="1">
          <mxGeometry width="50" height="50" relative="1" as="geometry">
            <mxPoint x="697.3799999999999" y="1489.5" as="sourcePoint" />
            <mxPoint x="628" y="1328.25" as="targetPoint" />
            <Array as="points">
              <mxPoint x="658" y="1340.25" />
            </Array>
          </mxGeometry>
        </mxCell>
        <mxCell id="YVLUfFIhRKJOg-uTzJRr-65" value="" style="endArrow=none;dashed=1;html=1;dashPattern=1 3;strokeWidth=1.8;rounded=0;curved=1;fillColor=#6a00ff;strokeColor=#6600CC;exitX=0;exitY=0.5;exitDx=0;exitDy=0;entryX=1;entryY=0.5;entryDx=0;entryDy=0;" parent="1" source="YVLUfFIhRKJOg-uTzJRr-83" target="YVLUfFIhRKJOg-uTzJRr-1" edge="1">
          <mxGeometry width="50" height="50" relative="1" as="geometry">
            <mxPoint x="697.3799999999999" y="1522.5" as="sourcePoint" />
            <mxPoint x="608" y="1370.25" as="targetPoint" />
            <Array as="points">
              <mxPoint x="648" y="1360.25" />
            </Array>
          </mxGeometry>
        </mxCell>
        <mxCell id="YVLUfFIhRKJOg-uTzJRr-86" value="" style="group" parent="1" vertex="1" connectable="0">
          <mxGeometry x="719" y="1256.75" width="204.69000000000005" height="22.5" as="geometry" />
        </mxCell>
        <mxCell id="YVLUfFIhRKJOg-uTzJRr-66" value="" style="group" parent="YVLUfFIhRKJOg-uTzJRr-86" vertex="1" connectable="0">
          <mxGeometry width="185" height="22.5" as="geometry" />
        </mxCell>
        <mxCell id="YVLUfFIhRKJOg-uTzJRr-67" value="&lt;b&gt;&lt;font style=&quot;font-size: 11.5px;&quot; face=&quot;Comic Sans MS&quot;&gt;Collections (Data Structures)&lt;/font&gt;&lt;/b&gt;" style="rounded=0;whiteSpace=wrap;html=1;fillColor=#CCFF99;fontColor=#000000;strokeColor=#000000;" parent="YVLUfFIhRKJOg-uTzJRr-66" vertex="1">
          <mxGeometry x="-5" width="175" height="22.5" as="geometry" />
        </mxCell>
        <mxCell id="YVLUfFIhRKJOg-uTzJRr-68" value="" style="rounded=0;whiteSpace=wrap;html=1;fillColor=#80FF00;fontColor=#000000;strokeColor=#000000;" parent="YVLUfFIhRKJOg-uTzJRr-86" vertex="1">
          <mxGeometry x="170.00250000000005" width="34.6875" height="22.5" as="geometry" />
        </mxCell>
        <mxCell id="YVLUfFIhRKJOg-uTzJRr-69" value="" style="verticalLabelPosition=bottom;verticalAlign=top;html=1;shape=mxgraph.basic.tick;strokeColor=#000000;fillColor=#000000;" parent="YVLUfFIhRKJOg-uTzJRr-86" vertex="1">
          <mxGeometry x="178.00374999999997" y="3.5" width="18.685" height="15.5" as="geometry" />
        </mxCell>
        <mxCell id="YVLUfFIhRKJOg-uTzJRr-87" value="" style="group" parent="1" vertex="1" connectable="0">
          <mxGeometry x="719" y="1287.75" width="204.69000000000005" height="22.5" as="geometry" />
        </mxCell>
        <mxCell id="YVLUfFIhRKJOg-uTzJRr-74" value="" style="group" parent="YVLUfFIhRKJOg-uTzJRr-87" vertex="1" connectable="0">
          <mxGeometry width="185" height="22.5" as="geometry" />
        </mxCell>
        <mxCell id="YVLUfFIhRKJOg-uTzJRr-75" value="&lt;b&gt;&lt;font face=&quot;Comic Sans MS&quot;&gt;Interfaces &amp;amp; Classes&lt;/font&gt;&lt;/b&gt;" style="rounded=0;whiteSpace=wrap;html=1;fillColor=#CCFF99;fontColor=#000000;strokeColor=#000000;" parent="YVLUfFIhRKJOg-uTzJRr-74" vertex="1">
          <mxGeometry x="-5" width="175" height="22.5" as="geometry" />
        </mxCell>
        <mxCell id="YVLUfFIhRKJOg-uTzJRr-76" value="" style="rounded=0;whiteSpace=wrap;html=1;fillColor=#80FF00;fontColor=#000000;strokeColor=#000000;" parent="YVLUfFIhRKJOg-uTzJRr-87" vertex="1">
          <mxGeometry x="170.00250000000005" width="34.6875" height="22.5" as="geometry" />
        </mxCell>
        <mxCell id="YVLUfFIhRKJOg-uTzJRr-77" value="" style="verticalLabelPosition=bottom;verticalAlign=top;html=1;shape=mxgraph.basic.tick;strokeColor=#000000;fillColor=#000000;" parent="YVLUfFIhRKJOg-uTzJRr-87" vertex="1">
          <mxGeometry x="178.00374999999997" y="3.5" width="18.685" height="15.5" as="geometry" />
        </mxCell>
        <mxCell id="YVLUfFIhRKJOg-uTzJRr-88" value="" style="group" parent="1" vertex="1" connectable="0">
          <mxGeometry x="719" y="1317.75" width="204.69000000000005" height="22.5" as="geometry" />
        </mxCell>
        <mxCell id="YVLUfFIhRKJOg-uTzJRr-78" value="" style="group" parent="YVLUfFIhRKJOg-uTzJRr-88" vertex="1" connectable="0">
          <mxGeometry width="185" height="22.5" as="geometry" />
        </mxCell>
        <mxCell id="YVLUfFIhRKJOg-uTzJRr-79" value="&lt;font face=&quot;Comic Sans MS&quot;&gt;&lt;b&gt;Packages&lt;/b&gt;&lt;/font&gt;" style="rounded=0;whiteSpace=wrap;html=1;fillColor=#CCFF99;fontColor=#000000;strokeColor=#000000;" parent="YVLUfFIhRKJOg-uTzJRr-78" vertex="1">
          <mxGeometry x="-5" width="175" height="22.5" as="geometry" />
        </mxCell>
        <mxCell id="YVLUfFIhRKJOg-uTzJRr-80" value="" style="rounded=0;whiteSpace=wrap;html=1;fillColor=#80FF00;fontColor=#000000;strokeColor=#000000;" parent="YVLUfFIhRKJOg-uTzJRr-88" vertex="1">
          <mxGeometry x="170.00250000000005" width="34.6875" height="22.5" as="geometry" />
        </mxCell>
        <mxCell id="YVLUfFIhRKJOg-uTzJRr-81" value="" style="verticalLabelPosition=bottom;verticalAlign=top;html=1;shape=mxgraph.basic.tick;strokeColor=#000000;fillColor=#000000;" parent="YVLUfFIhRKJOg-uTzJRr-88" vertex="1">
          <mxGeometry x="178.00374999999997" y="3.5" width="18.685" height="15.5" as="geometry" />
        </mxCell>
        <mxCell id="YVLUfFIhRKJOg-uTzJRr-89" value="&#xa;" style="group" parent="1" vertex="1" connectable="0">
          <mxGeometry x="719" y="1349.25" width="204.69000000000005" height="22.5" as="geometry" />
        </mxCell>
        <mxCell id="YVLUfFIhRKJOg-uTzJRr-82" value="" style="group" parent="YVLUfFIhRKJOg-uTzJRr-89" vertex="1" connectable="0">
          <mxGeometry width="185" height="22.5" as="geometry" />
        </mxCell>
        <mxCell id="YVLUfFIhRKJOg-uTzJRr-83" value="&lt;font face=&quot;Comic Sans MS&quot;&gt;&lt;b&gt;File Handling &amp;amp; APIs&lt;/b&gt;&lt;/font&gt;" style="rounded=0;whiteSpace=wrap;html=1;fillColor=#CCFF99;fontColor=#000000;strokeColor=#000000;" parent="YVLUfFIhRKJOg-uTzJRr-82" vertex="1">
          <mxGeometry x="-5" width="175" height="22.5" as="geometry" />
        </mxCell>
        <mxCell id="YVLUfFIhRKJOg-uTzJRr-84" value="" style="rounded=0;whiteSpace=wrap;html=1;fillColor=#80FF00;fontColor=#000000;strokeColor=#000000;" parent="YVLUfFIhRKJOg-uTzJRr-89" vertex="1">
          <mxGeometry x="170.00250000000005" width="34.6875" height="22.5" as="geometry" />
        </mxCell>
        <mxCell id="YVLUfFIhRKJOg-uTzJRr-85" value="" style="verticalLabelPosition=bottom;verticalAlign=top;html=1;shape=mxgraph.basic.tick;strokeColor=#000000;fillColor=#000000;" parent="YVLUfFIhRKJOg-uTzJRr-89" vertex="1">
          <mxGeometry x="178.00374999999997" y="3.5" width="18.685" height="15.5" as="geometry" />
        </mxCell>
        <mxCell id="YVLUfFIhRKJOg-uTzJRr-90" value="&lt;font face=&quot;Comic Sans MS&quot;&gt;&lt;b&gt;4 Pillars of OOP&lt;/b&gt;&lt;/font&gt;" style="rounded=0;whiteSpace=wrap;html=1;fillColor=#FFFF33;fontColor=#000000;strokeColor=#000000;" parent="1" vertex="1">
          <mxGeometry x="528" y="1518.75" width="140" height="22.5" as="geometry" />
        </mxCell>
        <mxCell id="YVLUfFIhRKJOg-uTzJRr-109" value="" style="group" parent="1" vertex="1" connectable="0">
          <mxGeometry x="1118" y="1220.25" width="190" height="40" as="geometry" />
        </mxCell>
        <mxCell id="YVLUfFIhRKJOg-uTzJRr-108" value="&lt;font color=&quot;#000000&quot; face=&quot;Comic Sans MS&quot;&gt;&lt;b&gt;Ordered Data&lt;/b&gt;&lt;/font&gt;" style="rounded=0;whiteSpace=wrap;html=1;fillColor=#99FF33;fontColor=#ffffff;strokeColor=#2D7600;fontSize=8;" parent="YVLUfFIhRKJOg-uTzJRr-109" vertex="1">
          <mxGeometry y="22" width="138" height="15" as="geometry" />
        </mxCell>
        <mxCell id="YVLUfFIhRKJOg-uTzJRr-93" value="" style="group" parent="YVLUfFIhRKJOg-uTzJRr-109" vertex="1" connectable="0">
          <mxGeometry x="5" width="185" height="40" as="geometry" />
        </mxCell>
        <mxCell id="YVLUfFIhRKJOg-uTzJRr-94" value="&lt;font face=&quot;Comic Sans MS&quot;&gt;&lt;b&gt;List&lt;/b&gt;&lt;/font&gt;" style="rounded=0;whiteSpace=wrap;html=1;fillColor=#CCFF99;fontColor=#000000;strokeColor=#000000;" parent="YVLUfFIhRKJOg-uTzJRr-93" vertex="1">
          <mxGeometry x="-5" width="138" height="22.5" as="geometry" />
        </mxCell>
        <mxCell id="YVLUfFIhRKJOg-uTzJRr-95" value="" style="rounded=0;whiteSpace=wrap;html=1;fillColor=#80FF00;fontColor=#000000;strokeColor=#000000;" parent="YVLUfFIhRKJOg-uTzJRr-93" vertex="1">
          <mxGeometry x="133" width="34.69" height="37" as="geometry" />
        </mxCell>
        <mxCell id="YVLUfFIhRKJOg-uTzJRr-96" value="" style="verticalLabelPosition=bottom;verticalAlign=top;html=1;shape=mxgraph.basic.tick;strokeColor=#000000;fillColor=#000000;" parent="YVLUfFIhRKJOg-uTzJRr-93" vertex="1">
          <mxGeometry x="141.00374999999985" y="11" width="18.685" height="15.5" as="geometry" />
        </mxCell>
        <mxCell id="YVLUfFIhRKJOg-uTzJRr-118" value="" style="group" parent="1" vertex="1" connectable="0">
          <mxGeometry x="1118" y="1320.25" width="190" height="40" as="geometry" />
        </mxCell>
        <mxCell id="YVLUfFIhRKJOg-uTzJRr-119" value="&lt;font color=&quot;#000000&quot; face=&quot;Comic Sans MS&quot;&gt;&lt;b&gt;Unordered &amp;amp; Unique Data&lt;/b&gt;&lt;/font&gt;" style="rounded=0;whiteSpace=wrap;html=1;fillColor=#99FF33;fontColor=#ffffff;strokeColor=#2D7600;fontSize=8;" parent="YVLUfFIhRKJOg-uTzJRr-118" vertex="1">
          <mxGeometry y="22" width="138" height="15" as="geometry" />
        </mxCell>
        <mxCell id="YVLUfFIhRKJOg-uTzJRr-120" value="" style="group" parent="YVLUfFIhRKJOg-uTzJRr-118" vertex="1" connectable="0">
          <mxGeometry x="5" width="185" height="40" as="geometry" />
        </mxCell>
        <mxCell id="YVLUfFIhRKJOg-uTzJRr-121" value="&lt;font face=&quot;Comic Sans MS&quot;&gt;&lt;b&gt;Set&lt;/b&gt;&lt;/font&gt;" style="rounded=0;whiteSpace=wrap;html=1;fillColor=#CCFF99;fontColor=#000000;strokeColor=#000000;" parent="YVLUfFIhRKJOg-uTzJRr-120" vertex="1">
          <mxGeometry x="-5" width="138" height="22.5" as="geometry" />
        </mxCell>
        <mxCell id="YVLUfFIhRKJOg-uTzJRr-122" value="" style="rounded=0;whiteSpace=wrap;html=1;fillColor=#80FF00;fontColor=#000000;strokeColor=#000000;" parent="YVLUfFIhRKJOg-uTzJRr-120" vertex="1">
          <mxGeometry x="133" width="34.69" height="37" as="geometry" />
        </mxCell>
        <mxCell id="YVLUfFIhRKJOg-uTzJRr-123" value="" style="verticalLabelPosition=bottom;verticalAlign=top;html=1;shape=mxgraph.basic.tick;strokeColor=#000000;fillColor=#000000;" parent="YVLUfFIhRKJOg-uTzJRr-120" vertex="1">
          <mxGeometry x="141.00374999999985" y="11" width="18.685" height="15.5" as="geometry" />
        </mxCell>
        <mxCell id="YVLUfFIhRKJOg-uTzJRr-124" value="" style="group" parent="1" vertex="1" connectable="0">
          <mxGeometry x="1118" y="1433.25" width="190" height="40" as="geometry" />
        </mxCell>
        <mxCell id="YVLUfFIhRKJOg-uTzJRr-125" value="&lt;font color=&quot;#000000&quot; face=&quot;Comic Sans MS&quot;&gt;&lt;b&gt;Key-Value Pairs&lt;/b&gt;&lt;/font&gt;" style="rounded=0;whiteSpace=wrap;html=1;fillColor=#99FF33;fontColor=#ffffff;strokeColor=#2D7600;fontSize=8;" parent="YVLUfFIhRKJOg-uTzJRr-124" vertex="1">
          <mxGeometry y="22" width="138" height="15" as="geometry" />
        </mxCell>
        <mxCell id="YVLUfFIhRKJOg-uTzJRr-126" value="" style="group" parent="YVLUfFIhRKJOg-uTzJRr-124" vertex="1" connectable="0">
          <mxGeometry x="5" width="185" height="40" as="geometry" />
        </mxCell>
        <mxCell id="YVLUfFIhRKJOg-uTzJRr-127" value="&lt;font face=&quot;Comic Sans MS&quot;&gt;&lt;b&gt;Map&lt;/b&gt;&lt;/font&gt;" style="rounded=0;whiteSpace=wrap;html=1;fillColor=#CCFF99;fontColor=#000000;strokeColor=#000000;" parent="YVLUfFIhRKJOg-uTzJRr-126" vertex="1">
          <mxGeometry x="-5" width="138" height="22.5" as="geometry" />
        </mxCell>
        <mxCell id="YVLUfFIhRKJOg-uTzJRr-128" value="" style="rounded=0;whiteSpace=wrap;html=1;fillColor=#80FF00;fontColor=#000000;strokeColor=#000000;" parent="YVLUfFIhRKJOg-uTzJRr-126" vertex="1">
          <mxGeometry x="133" width="34.69" height="37" as="geometry" />
        </mxCell>
        <mxCell id="YVLUfFIhRKJOg-uTzJRr-129" value="" style="verticalLabelPosition=bottom;verticalAlign=top;html=1;shape=mxgraph.basic.tick;strokeColor=#000000;fillColor=#000000;" parent="YVLUfFIhRKJOg-uTzJRr-126" vertex="1">
          <mxGeometry x="141.00374999999985" y="11" width="18.685" height="15.5" as="geometry" />
        </mxCell>
        <mxCell id="YVLUfFIhRKJOg-uTzJRr-130" value="" style="group" parent="1" vertex="1" connectable="0">
          <mxGeometry x="1118" y="1520.25" width="190" height="40" as="geometry" />
        </mxCell>
        <mxCell id="YVLUfFIhRKJOg-uTzJRr-131" value="&lt;font color=&quot;#000000&quot; face=&quot;Comic Sans MS&quot;&gt;&lt;b&gt;FIFO Data Strucutres&lt;/b&gt;&lt;/font&gt;" style="rounded=0;whiteSpace=wrap;html=1;fillColor=#99FF33;fontColor=#ffffff;strokeColor=#2D7600;fontSize=8;" parent="YVLUfFIhRKJOg-uTzJRr-130" vertex="1">
          <mxGeometry y="35" width="138" height="15" as="geometry" />
        </mxCell>
        <mxCell id="YVLUfFIhRKJOg-uTzJRr-132" value="" style="group" parent="YVLUfFIhRKJOg-uTzJRr-130" vertex="1" connectable="0">
          <mxGeometry x="5" width="185" height="40" as="geometry" />
        </mxCell>
        <mxCell id="YVLUfFIhRKJOg-uTzJRr-133" value="&lt;font face=&quot;Comic Sans MS&quot;&gt;&lt;b&gt;Queue&lt;/b&gt;&lt;/font&gt;" style="rounded=0;whiteSpace=wrap;html=1;fillColor=#CCFF99;fontColor=#000000;strokeColor=#000000;" parent="YVLUfFIhRKJOg-uTzJRr-132" vertex="1">
          <mxGeometry x="-5" y="13" width="138" height="22.5" as="geometry" />
        </mxCell>
        <mxCell id="YVLUfFIhRKJOg-uTzJRr-134" value="" style="rounded=0;whiteSpace=wrap;html=1;fillColor=#80FF00;fontColor=#000000;strokeColor=#000000;" parent="YVLUfFIhRKJOg-uTzJRr-132" vertex="1">
          <mxGeometry x="133" y="13" width="34.69" height="37" as="geometry" />
        </mxCell>
        <mxCell id="YVLUfFIhRKJOg-uTzJRr-135" value="" style="verticalLabelPosition=bottom;verticalAlign=top;html=1;shape=mxgraph.basic.tick;strokeColor=#000000;fillColor=#000000;" parent="YVLUfFIhRKJOg-uTzJRr-132" vertex="1">
          <mxGeometry x="141.00374999999985" y="24" width="18.685" height="15.5" as="geometry" />
        </mxCell>
        <mxCell id="YVLUfFIhRKJOg-uTzJRr-142" value="" style="endArrow=none;dashed=1;html=1;dashPattern=1 3;strokeWidth=1.8;rounded=0;entryX=1;entryY=0.5;entryDx=0;entryDy=0;curved=1;fillColor=#6a00ff;strokeColor=#4C0099;exitX=0;exitY=0.5;exitDx=0;exitDy=0;" parent="1" source="YVLUfFIhRKJOg-uTzJRr-94" target="YVLUfFIhRKJOg-uTzJRr-68" edge="1">
          <mxGeometry width="50" height="50" relative="1" as="geometry">
            <mxPoint x="984" y="1388.25" as="sourcePoint" />
            <mxPoint x="888" y="1438.25" as="targetPoint" />
            <Array as="points">
              <mxPoint x="968" y="1230.25" />
            </Array>
          </mxGeometry>
        </mxCell>
        <mxCell id="YVLUfFIhRKJOg-uTzJRr-143" value="&#xa;" style="group" parent="1" vertex="1" connectable="0">
          <mxGeometry x="769.26" y="1402.75" width="204.69000000000005" height="22.5" as="geometry" />
        </mxCell>
        <mxCell id="YVLUfFIhRKJOg-uTzJRr-144" value="" style="group" parent="YVLUfFIhRKJOg-uTzJRr-143" vertex="1" connectable="0">
          <mxGeometry width="185" height="22.5" as="geometry" />
        </mxCell>
        <mxCell id="YVLUfFIhRKJOg-uTzJRr-145" value="&lt;font face=&quot;Comic Sans MS&quot;&gt;&lt;b&gt;FileIO (txt,csv,json &amp;amp; jpg)&lt;/b&gt;&lt;/font&gt;" style="rounded=0;whiteSpace=wrap;html=1;fillColor=#CCFF99;fontColor=#000000;strokeColor=#000000;" parent="YVLUfFIhRKJOg-uTzJRr-144" vertex="1">
          <mxGeometry x="-5" width="175" height="22.5" as="geometry" />
        </mxCell>
        <mxCell id="YVLUfFIhRKJOg-uTzJRr-146" value="" style="rounded=0;whiteSpace=wrap;html=1;fillColor=#80FF00;fontColor=#000000;strokeColor=#000000;" parent="YVLUfFIhRKJOg-uTzJRr-143" vertex="1">
          <mxGeometry x="170.00250000000005" width="34.6875" height="22.5" as="geometry" />
        </mxCell>
        <mxCell id="YVLUfFIhRKJOg-uTzJRr-147" value="" style="verticalLabelPosition=bottom;verticalAlign=top;html=1;shape=mxgraph.basic.tick;strokeColor=#000000;fillColor=#000000;" parent="YVLUfFIhRKJOg-uTzJRr-143" vertex="1">
          <mxGeometry x="178.00374999999997" y="3.5" width="18.685" height="15.5" as="geometry" />
        </mxCell>
        <mxCell id="YVLUfFIhRKJOg-uTzJRr-148" value="" style="endArrow=none;dashed=1;html=1;dashPattern=1 3;strokeWidth=1.8;rounded=0;curved=1;fillColor=#6a00ff;strokeColor=#4C0099;exitX=0;exitY=0.5;exitDx=0;exitDy=0;entryX=0.103;entryY=1.04;entryDx=0;entryDy=0;entryPerimeter=0;" parent="1" source="YVLUfFIhRKJOg-uTzJRr-145" edge="1">
          <mxGeometry width="50" height="50" relative="1" as="geometry">
            <mxPoint x="725.26" y="1370.25" as="sourcePoint" />
            <mxPoint x="733.2849999999999" y="1372.65" as="targetPoint" />
            <Array as="points">
              <mxPoint x="729.26" y="1410.25" />
            </Array>
          </mxGeometry>
        </mxCell>
        <mxCell id="YVLUfFIhRKJOg-uTzJRr-149" value="" style="group" parent="1" vertex="1" connectable="0">
          <mxGeometry x="719.26" y="1496.25" width="170" height="22.5" as="geometry" />
        </mxCell>
        <mxCell id="YVLUfFIhRKJOg-uTzJRr-150" value="&lt;font face=&quot;Comic Sans MS&quot;&gt;&lt;b&gt;Inheritance&lt;/b&gt;&lt;/font&gt;" style="rounded=0;whiteSpace=wrap;html=1;fillColor=#CCFF99;fontColor=#000000;strokeColor=#000000;" parent="YVLUfFIhRKJOg-uTzJRr-149" vertex="1">
          <mxGeometry width="138.125" height="22.5" as="geometry" />
        </mxCell>
        <mxCell id="YVLUfFIhRKJOg-uTzJRr-151" value="" style="rounded=0;whiteSpace=wrap;html=1;fillColor=#80FF00;fontColor=#000000;strokeColor=#000000;" parent="YVLUfFIhRKJOg-uTzJRr-149" vertex="1">
          <mxGeometry x="138.125" width="31.875" height="22.5" as="geometry" />
        </mxCell>
        <mxCell id="YVLUfFIhRKJOg-uTzJRr-152" value="" style="verticalLabelPosition=bottom;verticalAlign=top;html=1;shape=mxgraph.basic.tick;strokeColor=#000000;fillColor=#000000;" parent="YVLUfFIhRKJOg-uTzJRr-149" vertex="1">
          <mxGeometry x="145.47749999999996" y="3.5" width="17.17" height="15.5" as="geometry" />
        </mxCell>
        <mxCell id="YVLUfFIhRKJOg-uTzJRr-153" value="" style="group" parent="1" vertex="1" connectable="0">
          <mxGeometry x="298" y="1496.25" width="170" height="22.5" as="geometry" />
        </mxCell>
        <mxCell id="YVLUfFIhRKJOg-uTzJRr-154" value="&lt;font face=&quot;Comic Sans MS&quot;&gt;&lt;b&gt;Abstration&lt;/b&gt;&lt;/font&gt;" style="rounded=0;whiteSpace=wrap;html=1;fillColor=#CCFF99;fontColor=#000000;strokeColor=#000000;" parent="YVLUfFIhRKJOg-uTzJRr-153" vertex="1">
          <mxGeometry width="138.125" height="22.5" as="geometry" />
        </mxCell>
        <mxCell id="YVLUfFIhRKJOg-uTzJRr-155" value="" style="rounded=0;whiteSpace=wrap;html=1;fillColor=#80FF00;fontColor=#000000;strokeColor=#000000;" parent="YVLUfFIhRKJOg-uTzJRr-153" vertex="1">
          <mxGeometry x="138.125" width="31.875" height="22.5" as="geometry" />
        </mxCell>
        <mxCell id="YVLUfFIhRKJOg-uTzJRr-156" value="" style="verticalLabelPosition=bottom;verticalAlign=top;html=1;shape=mxgraph.basic.tick;strokeColor=#000000;fillColor=#000000;" parent="YVLUfFIhRKJOg-uTzJRr-153" vertex="1">
          <mxGeometry x="145.47749999999996" y="3.5" width="17.17" height="15.5" as="geometry" />
        </mxCell>
        <mxCell id="YVLUfFIhRKJOg-uTzJRr-157" value="" style="group" parent="1" vertex="1" connectable="0">
          <mxGeometry x="298" y="1536.25" width="170" height="22.5" as="geometry" />
        </mxCell>
        <mxCell id="YVLUfFIhRKJOg-uTzJRr-158" value="&lt;font face=&quot;Comic Sans MS&quot;&gt;&lt;b&gt;Encapsulation&lt;/b&gt;&lt;/font&gt;" style="rounded=0;whiteSpace=wrap;html=1;fillColor=#CCFF99;fontColor=#000000;strokeColor=#000000;" parent="YVLUfFIhRKJOg-uTzJRr-157" vertex="1">
          <mxGeometry width="138.125" height="22.5" as="geometry" />
        </mxCell>
        <mxCell id="YVLUfFIhRKJOg-uTzJRr-159" value="" style="rounded=0;whiteSpace=wrap;html=1;fillColor=#80FF00;fontColor=#000000;strokeColor=#000000;" parent="YVLUfFIhRKJOg-uTzJRr-157" vertex="1">
          <mxGeometry x="138.125" width="31.875" height="22.5" as="geometry" />
        </mxCell>
        <mxCell id="YVLUfFIhRKJOg-uTzJRr-160" value="" style="verticalLabelPosition=bottom;verticalAlign=top;html=1;shape=mxgraph.basic.tick;strokeColor=#000000;fillColor=#000000;" parent="YVLUfFIhRKJOg-uTzJRr-157" vertex="1">
          <mxGeometry x="145.47749999999996" y="3.5" width="17.17" height="15.5" as="geometry" />
        </mxCell>
        <mxCell id="YVLUfFIhRKJOg-uTzJRr-161" value="" style="group" parent="1" vertex="1" connectable="0">
          <mxGeometry x="719.26" y="1536.25" width="170" height="22.5" as="geometry" />
        </mxCell>
        <mxCell id="YVLUfFIhRKJOg-uTzJRr-162" value="&lt;font face=&quot;Comic Sans MS&quot;&gt;&lt;b&gt;Polymorphism&lt;/b&gt;&lt;/font&gt;" style="rounded=0;whiteSpace=wrap;html=1;fillColor=#CCFF99;fontColor=#000000;strokeColor=#000000;" parent="YVLUfFIhRKJOg-uTzJRr-161" vertex="1">
          <mxGeometry width="138.125" height="22.5" as="geometry" />
        </mxCell>
        <mxCell id="YVLUfFIhRKJOg-uTzJRr-163" value="" style="rounded=0;whiteSpace=wrap;html=1;fillColor=#80FF00;fontColor=#000000;strokeColor=#000000;" parent="YVLUfFIhRKJOg-uTzJRr-161" vertex="1">
          <mxGeometry x="138.125" width="31.875" height="22.5" as="geometry" />
        </mxCell>
        <mxCell id="YVLUfFIhRKJOg-uTzJRr-164" value="" style="verticalLabelPosition=bottom;verticalAlign=top;html=1;shape=mxgraph.basic.tick;strokeColor=#000000;fillColor=#000000;" parent="YVLUfFIhRKJOg-uTzJRr-161" vertex="1">
          <mxGeometry x="145.47749999999996" y="3.5" width="17.17" height="15.5" as="geometry" />
        </mxCell>
        <mxCell id="YVLUfFIhRKJOg-uTzJRr-165" value="" style="endArrow=none;dashed=1;html=1;dashPattern=1 3;strokeWidth=1.8;rounded=0;curved=1;fillColor=#6a00ff;strokeColor=#4C0099;exitX=0;exitY=0.5;exitDx=0;exitDy=0;entryX=1;entryY=0.5;entryDx=0;entryDy=0;" parent="1" source="YVLUfFIhRKJOg-uTzJRr-150" edge="1">
          <mxGeometry width="50" height="50" relative="1" as="geometry">
            <mxPoint x="774.26" y="1420.25" as="sourcePoint" />
            <mxPoint x="669.26" y="1530" as="targetPoint" />
            <Array as="points">
              <mxPoint x="689.26" y="1506.25" />
            </Array>
          </mxGeometry>
        </mxCell>
        <mxCell id="YVLUfFIhRKJOg-uTzJRr-166" value="" style="endArrow=none;dashed=1;html=1;dashPattern=1 3;strokeWidth=1.8;rounded=0;curved=1;fillColor=#6a00ff;strokeColor=#4C0099;exitX=0;exitY=0.5;exitDx=0;exitDy=0;entryX=0.991;entryY=0.585;entryDx=0;entryDy=0;entryPerimeter=0;" parent="1" source="YVLUfFIhRKJOg-uTzJRr-162" edge="1">
          <mxGeometry width="50" height="50" relative="1" as="geometry">
            <mxPoint x="729.26" y="1517.25" as="sourcePoint" />
            <mxPoint x="668" y="1531.9125" as="targetPoint" />
            <Array as="points">
              <mxPoint x="688" y="1547.25" />
            </Array>
          </mxGeometry>
        </mxCell>
        <mxCell id="YVLUfFIhRKJOg-uTzJRr-167" value="" style="endArrow=none;dashed=1;html=1;dashPattern=1 3;strokeWidth=1.8;rounded=0;curved=1;fillColor=#6a00ff;strokeColor=#4C0099;exitX=0;exitY=0.5;exitDx=0;exitDy=0;entryX=1;entryY=0.5;entryDx=0;entryDy=0;" parent="1" source="YVLUfFIhRKJOg-uTzJRr-90" target="YVLUfFIhRKJOg-uTzJRr-155" edge="1">
          <mxGeometry width="50" height="50" relative="1" as="geometry">
            <mxPoint x="729" y="1517.25" as="sourcePoint" />
            <mxPoint x="679.26" y="1540" as="targetPoint" />
            <Array as="points">
              <mxPoint x="508" y="1506.25" />
            </Array>
          </mxGeometry>
        </mxCell>
        <mxCell id="YVLUfFIhRKJOg-uTzJRr-168" value="" style="endArrow=none;dashed=1;html=1;dashPattern=1 3;strokeWidth=1.8;rounded=0;curved=1;fillColor=#6a00ff;strokeColor=#4C0099;exitX=-0.002;exitY=0.615;exitDx=0;exitDy=0;entryX=1;entryY=0.5;entryDx=0;entryDy=0;exitPerimeter=0;" parent="1" source="YVLUfFIhRKJOg-uTzJRr-90" target="YVLUfFIhRKJOg-uTzJRr-159" edge="1">
          <mxGeometry width="50" height="50" relative="1" as="geometry">
            <mxPoint x="729" y="1567.25" as="sourcePoint" />
            <mxPoint x="508" y="1556.25" as="targetPoint" />
            <Array as="points">
              <mxPoint x="518" y="1546.25" />
            </Array>
          </mxGeometry>
        </mxCell>
        <mxCell id="YVLUfFIhRKJOg-uTzJRr-170" value="&lt;font face=&quot;Comic Sans MS&quot;&gt;&lt;span&gt;Monash Assignments&lt;/span&gt;&lt;/font&gt;" style="rounded=0;whiteSpace=wrap;html=1;fillColor=#004C99;fontColor=#D5E8D4;strokeColor=#000000;fontStyle=1" parent="1" vertex="1">
          <mxGeometry x="495" y="1601.25" width="143" height="22.5" as="geometry" />
        </mxCell>
        <mxCell id="YVLUfFIhRKJOg-uTzJRr-171" value="" style="group" parent="1" vertex="1" connectable="0">
          <mxGeometry x="713" y="1601.25" width="170" height="22.5" as="geometry" />
        </mxCell>
        <mxCell id="YVLUfFIhRKJOg-uTzJRr-172" value="&lt;font face=&quot;Comic Sans MS&quot;&gt;&lt;span&gt;Java Jumper&lt;/span&gt;&lt;/font&gt;" style="rounded=0;whiteSpace=wrap;html=1;fillColor=#B3FF66;fontColor=#000000;strokeColor=#000000;fontStyle=1" parent="YVLUfFIhRKJOg-uTzJRr-171" vertex="1">
          <mxGeometry width="138.125" height="22.5" as="geometry" />
        </mxCell>
        <mxCell id="YVLUfFIhRKJOg-uTzJRr-173" value="" style="rounded=0;whiteSpace=wrap;html=1;fillColor=#80FF00;fontColor=#000000;strokeColor=#000000;" parent="YVLUfFIhRKJOg-uTzJRr-171" vertex="1">
          <mxGeometry x="138.125" width="31.875" height="22.5" as="geometry" />
        </mxCell>
        <mxCell id="YVLUfFIhRKJOg-uTzJRr-174" value="" style="verticalLabelPosition=bottom;verticalAlign=top;html=1;shape=mxgraph.basic.tick;strokeColor=#000000;fillColor=#000000;" parent="YVLUfFIhRKJOg-uTzJRr-171" vertex="1">
          <mxGeometry x="145.47749999999996" y="3.5" width="17.17" height="15.5" as="geometry" />
        </mxCell>
        <mxCell id="YVLUfFIhRKJOg-uTzJRr-179" value="&#xa;" style="group" parent="1" vertex="1" connectable="0">
          <mxGeometry x="218" y="1601.25" width="204.69000000000005" height="22.5" as="geometry" />
        </mxCell>
        <mxCell id="YVLUfFIhRKJOg-uTzJRr-180" value="" style="group" parent="YVLUfFIhRKJOg-uTzJRr-179" vertex="1" connectable="0">
          <mxGeometry width="185" height="22.5" as="geometry" />
        </mxCell>
        <mxCell id="YVLUfFIhRKJOg-uTzJRr-181" value="&lt;font face=&quot;Comic Sans MS&quot;&gt;&lt;span&gt;Rolling Project: University&lt;/span&gt;&lt;/font&gt;" style="rounded=0;whiteSpace=wrap;html=1;fillColor=#B3FF66;fontColor=#000000;strokeColor=#000000;fontStyle=1" parent="YVLUfFIhRKJOg-uTzJRr-180" vertex="1">
          <mxGeometry x="-5" width="175" height="22.5" as="geometry" />
        </mxCell>
        <mxCell id="YVLUfFIhRKJOg-uTzJRr-182" value="" style="rounded=0;whiteSpace=wrap;html=1;fillColor=#80FF00;fontColor=#000000;strokeColor=#000000;" parent="YVLUfFIhRKJOg-uTzJRr-179" vertex="1">
          <mxGeometry x="170.00250000000005" width="34.6875" height="22.5" as="geometry" />
        </mxCell>
        <mxCell id="YVLUfFIhRKJOg-uTzJRr-183" value="" style="verticalLabelPosition=bottom;verticalAlign=top;html=1;shape=mxgraph.basic.tick;strokeColor=#000000;fillColor=#000000;" parent="YVLUfFIhRKJOg-uTzJRr-179" vertex="1">
          <mxGeometry x="178.00374999999997" y="3.5" width="18.685" height="15.5" as="geometry" />
        </mxCell>
        <mxCell id="YVLUfFIhRKJOg-uTzJRr-184" value="&lt;font face=&quot;Comic Sans MS&quot;&gt;&lt;b&gt;Intermediary&lt;/b&gt;&lt;/font&gt;" style="rounded=0;whiteSpace=wrap;html=1;fillColor=#FFFF33;fontColor=#000000;strokeColor=#000000;" parent="1" vertex="1">
          <mxGeometry x="333" y="1810.25" width="160" height="22.5" as="geometry" />
        </mxCell>
        <mxCell id="YVLUfFIhRKJOg-uTzJRr-192" value="" style="group" parent="1" vertex="1" connectable="0">
          <mxGeometry x="1408" y="1210.25" width="170" height="22.5" as="geometry" />
        </mxCell>
        <mxCell id="YVLUfFIhRKJOg-uTzJRr-193" value="&lt;font face=&quot;Comic Sans MS&quot;&gt;&lt;b&gt;ArrayList&lt;/b&gt;&lt;/font&gt;" style="rounded=0;whiteSpace=wrap;html=1;fillColor=#CCFF99;fontColor=#000000;strokeColor=#000000;" parent="YVLUfFIhRKJOg-uTzJRr-192" vertex="1">
          <mxGeometry width="138.125" height="22.5" as="geometry" />
        </mxCell>
        <mxCell id="YVLUfFIhRKJOg-uTzJRr-194" value="" style="rounded=0;whiteSpace=wrap;html=1;fillColor=#80FF00;fontColor=#000000;strokeColor=#000000;" parent="YVLUfFIhRKJOg-uTzJRr-192" vertex="1">
          <mxGeometry x="138.125" width="31.875" height="22.5" as="geometry" />
        </mxCell>
        <mxCell id="YVLUfFIhRKJOg-uTzJRr-195" value="" style="verticalLabelPosition=bottom;verticalAlign=top;html=1;shape=mxgraph.basic.tick;strokeColor=#000000;fillColor=#000000;" parent="YVLUfFIhRKJOg-uTzJRr-192" vertex="1">
          <mxGeometry x="145.47749999999996" y="3.5" width="17.17" height="15.5" as="geometry" />
        </mxCell>
        <mxCell id="YVLUfFIhRKJOg-uTzJRr-217" value="" style="group" parent="1" vertex="1" connectable="0">
          <mxGeometry x="1408" y="1240.25" width="170" height="22.5" as="geometry" />
        </mxCell>
        <mxCell id="YVLUfFIhRKJOg-uTzJRr-218" value="&lt;font face=&quot;Comic Sans MS&quot;&gt;&lt;b&gt;LinkedList&lt;/b&gt;&lt;/font&gt;" style="rounded=0;whiteSpace=wrap;html=1;fillColor=#FFFF99;fontColor=#000000;strokeColor=#000000;" parent="YVLUfFIhRKJOg-uTzJRr-217" vertex="1">
          <mxGeometry width="138.125" height="22.5" as="geometry" />
        </mxCell>
        <mxCell id="YVLUfFIhRKJOg-uTzJRr-219" value="" style="rounded=0;whiteSpace=wrap;html=1;fillColor=#999900;fontColor=#000000;strokeColor=#000000;" parent="YVLUfFIhRKJOg-uTzJRr-217" vertex="1">
          <mxGeometry x="138.125" width="31.875" height="22.5" as="geometry" />
        </mxCell>
        <mxCell id="YVLUfFIhRKJOg-uTzJRr-220" value="" style="verticalLabelPosition=bottom;verticalAlign=top;html=1;shape=mxgraph.basic.tick;strokeColor=#000000;fillColor=#000000;" parent="YVLUfFIhRKJOg-uTzJRr-217" vertex="1">
          <mxGeometry x="145.47749999999996" y="3.5" width="17.17" height="15.5" as="geometry" />
        </mxCell>
        <mxCell id="YVLUfFIhRKJOg-uTzJRr-221" value="" style="group" parent="1" vertex="1" connectable="0">
          <mxGeometry x="1408" y="1281.25" width="170" height="22.5" as="geometry" />
        </mxCell>
        <mxCell id="YVLUfFIhRKJOg-uTzJRr-222" value="&lt;font face=&quot;Comic Sans MS&quot;&gt;&lt;b&gt;HashSet&lt;/b&gt;&lt;/font&gt;" style="rounded=0;whiteSpace=wrap;html=1;fillColor=#FFFF99;fontColor=#000000;strokeColor=#000000;" parent="YVLUfFIhRKJOg-uTzJRr-221" vertex="1">
          <mxGeometry width="138.125" height="22.5" as="geometry" />
        </mxCell>
        <mxCell id="YVLUfFIhRKJOg-uTzJRr-223" value="" style="rounded=0;whiteSpace=wrap;html=1;fillColor=#999900;fontColor=#000000;strokeColor=#000000;" parent="YVLUfFIhRKJOg-uTzJRr-221" vertex="1">
          <mxGeometry x="138.125" width="31.875" height="22.5" as="geometry" />
        </mxCell>
        <mxCell id="YVLUfFIhRKJOg-uTzJRr-224" value="" style="verticalLabelPosition=bottom;verticalAlign=top;html=1;shape=mxgraph.basic.tick;strokeColor=#000000;fillColor=#000000;" parent="YVLUfFIhRKJOg-uTzJRr-221" vertex="1">
          <mxGeometry x="145.47749999999996" y="3.5" width="17.17" height="15.5" as="geometry" />
        </mxCell>
        <mxCell id="YVLUfFIhRKJOg-uTzJRr-225" value="" style="group" parent="1" vertex="1" connectable="0">
          <mxGeometry x="1408" y="1311.25" width="170" height="22.5" as="geometry" />
        </mxCell>
        <mxCell id="YVLUfFIhRKJOg-uTzJRr-226" value="&lt;font face=&quot;Comic Sans MS&quot;&gt;&lt;b&gt;LinkedHashSet&lt;/b&gt;&lt;/font&gt;" style="rounded=0;whiteSpace=wrap;html=1;fillColor=#FFFF99;fontColor=#000000;strokeColor=#000000;" parent="YVLUfFIhRKJOg-uTzJRr-225" vertex="1">
          <mxGeometry width="138.125" height="22.5" as="geometry" />
        </mxCell>
        <mxCell id="YVLUfFIhRKJOg-uTzJRr-227" value="" style="rounded=0;whiteSpace=wrap;html=1;fillColor=#999900;fontColor=#000000;strokeColor=#000000;" parent="YVLUfFIhRKJOg-uTzJRr-225" vertex="1">
          <mxGeometry x="138.125" width="31.875" height="22.5" as="geometry" />
        </mxCell>
        <mxCell id="YVLUfFIhRKJOg-uTzJRr-228" value="" style="verticalLabelPosition=bottom;verticalAlign=top;html=1;shape=mxgraph.basic.tick;strokeColor=#000000;fillColor=#000000;" parent="YVLUfFIhRKJOg-uTzJRr-225" vertex="1">
          <mxGeometry x="145.47749999999996" y="3.5" width="17.17" height="15.5" as="geometry" />
        </mxCell>
        <mxCell id="YVLUfFIhRKJOg-uTzJRr-229" value="" style="group" parent="1" vertex="1" connectable="0">
          <mxGeometry x="1408" y="1341.25" width="170" height="22.5" as="geometry" />
        </mxCell>
        <mxCell id="YVLUfFIhRKJOg-uTzJRr-230" value="&lt;font face=&quot;Comic Sans MS&quot;&gt;&lt;b&gt;TreeSet&lt;/b&gt;&lt;/font&gt;" style="rounded=0;whiteSpace=wrap;html=1;fillColor=#FFFF99;fontColor=#000000;strokeColor=#000000;" parent="YVLUfFIhRKJOg-uTzJRr-229" vertex="1">
          <mxGeometry width="138.125" height="22.5" as="geometry" />
        </mxCell>
        <mxCell id="YVLUfFIhRKJOg-uTzJRr-231" value="" style="rounded=0;whiteSpace=wrap;html=1;fillColor=#999900;fontColor=#000000;strokeColor=#000000;" parent="YVLUfFIhRKJOg-uTzJRr-229" vertex="1">
          <mxGeometry x="138.125" width="31.875" height="22.5" as="geometry" />
        </mxCell>
        <mxCell id="YVLUfFIhRKJOg-uTzJRr-232" value="" style="verticalLabelPosition=bottom;verticalAlign=top;html=1;shape=mxgraph.basic.tick;strokeColor=#000000;fillColor=#000000;" parent="YVLUfFIhRKJOg-uTzJRr-229" vertex="1">
          <mxGeometry x="145.47749999999996" y="3.5" width="17.17" height="15.5" as="geometry" />
        </mxCell>
        <mxCell id="YVLUfFIhRKJOg-uTzJRr-233" value="" style="group" parent="1" vertex="1" connectable="0">
          <mxGeometry x="1408" y="1371.25" width="170" height="22.5" as="geometry" />
        </mxCell>
        <mxCell id="YVLUfFIhRKJOg-uTzJRr-234" value="&lt;font face=&quot;Comic Sans MS&quot;&gt;&lt;b&gt;EnumSet&lt;/b&gt;&lt;/font&gt;" style="rounded=0;whiteSpace=wrap;html=1;fillColor=#FFFF99;fontColor=#000000;strokeColor=#000000;" parent="YVLUfFIhRKJOg-uTzJRr-233" vertex="1">
          <mxGeometry width="138.125" height="22.5" as="geometry" />
        </mxCell>
        <mxCell id="YVLUfFIhRKJOg-uTzJRr-235" value="" style="rounded=0;whiteSpace=wrap;html=1;fillColor=#999900;fontColor=#000000;strokeColor=#000000;" parent="YVLUfFIhRKJOg-uTzJRr-233" vertex="1">
          <mxGeometry x="138.125" width="31.875" height="22.5" as="geometry" />
        </mxCell>
        <mxCell id="YVLUfFIhRKJOg-uTzJRr-236" value="" style="verticalLabelPosition=bottom;verticalAlign=top;html=1;shape=mxgraph.basic.tick;strokeColor=#000000;fillColor=#000000;" parent="YVLUfFIhRKJOg-uTzJRr-233" vertex="1">
          <mxGeometry x="145.47749999999996" y="3.5" width="17.17" height="15.5" as="geometry" />
        </mxCell>
        <mxCell id="YVLUfFIhRKJOg-uTzJRr-247" value="" style="group" parent="1" vertex="1" connectable="0">
          <mxGeometry x="1408" y="1410.25" width="170" height="22.5" as="geometry" />
        </mxCell>
        <mxCell id="YVLUfFIhRKJOg-uTzJRr-248" value="&lt;font face=&quot;Comic Sans MS&quot;&gt;&lt;b&gt;HashMap&lt;/b&gt;&lt;/font&gt;" style="rounded=0;whiteSpace=wrap;html=1;fillColor=#FFFF99;fontColor=#000000;strokeColor=#000000;" parent="YVLUfFIhRKJOg-uTzJRr-247" vertex="1">
          <mxGeometry width="138.125" height="22.5" as="geometry" />
        </mxCell>
        <mxCell id="YVLUfFIhRKJOg-uTzJRr-249" value="" style="rounded=0;whiteSpace=wrap;html=1;fillColor=#999900;fontColor=#000000;strokeColor=#000000;" parent="YVLUfFIhRKJOg-uTzJRr-247" vertex="1">
          <mxGeometry x="138.125" width="31.875" height="22.5" as="geometry" />
        </mxCell>
        <mxCell id="YVLUfFIhRKJOg-uTzJRr-250" value="" style="verticalLabelPosition=bottom;verticalAlign=top;html=1;shape=mxgraph.basic.tick;strokeColor=#000000;fillColor=#000000;" parent="YVLUfFIhRKJOg-uTzJRr-247" vertex="1">
          <mxGeometry x="145.47749999999996" y="3.5" width="17.17" height="15.5" as="geometry" />
        </mxCell>
        <mxCell id="YVLUfFIhRKJOg-uTzJRr-251" value="" style="group" parent="1" vertex="1" connectable="0">
          <mxGeometry x="1408" y="1440.25" width="170" height="22.5" as="geometry" />
        </mxCell>
        <mxCell id="YVLUfFIhRKJOg-uTzJRr-252" value="&lt;font face=&quot;Comic Sans MS&quot;&gt;&lt;b&gt;LinkedHashMap&lt;/b&gt;&lt;/font&gt;" style="rounded=0;whiteSpace=wrap;html=1;fillColor=#FFFF99;fontColor=#000000;strokeColor=#000000;" parent="YVLUfFIhRKJOg-uTzJRr-251" vertex="1">
          <mxGeometry width="138.125" height="22.5" as="geometry" />
        </mxCell>
        <mxCell id="YVLUfFIhRKJOg-uTzJRr-253" value="" style="rounded=0;whiteSpace=wrap;html=1;fillColor=#999900;fontColor=#000000;strokeColor=#000000;" parent="YVLUfFIhRKJOg-uTzJRr-251" vertex="1">
          <mxGeometry x="138.125" width="31.875" height="22.5" as="geometry" />
        </mxCell>
        <mxCell id="YVLUfFIhRKJOg-uTzJRr-254" value="" style="verticalLabelPosition=bottom;verticalAlign=top;html=1;shape=mxgraph.basic.tick;strokeColor=#000000;fillColor=#000000;" parent="YVLUfFIhRKJOg-uTzJRr-251" vertex="1">
          <mxGeometry x="145.47749999999996" y="3.5" width="17.17" height="15.5" as="geometry" />
        </mxCell>
        <mxCell id="YVLUfFIhRKJOg-uTzJRr-255" value="" style="group" parent="1" vertex="1" connectable="0">
          <mxGeometry x="1408" y="1470.25" width="170" height="22.5" as="geometry" />
        </mxCell>
        <mxCell id="YVLUfFIhRKJOg-uTzJRr-256" value="&lt;font face=&quot;Comic Sans MS&quot;&gt;&lt;b&gt;TreeMap&lt;/b&gt;&lt;/font&gt;" style="rounded=0;whiteSpace=wrap;html=1;fillColor=#FFFF99;fontColor=#000000;strokeColor=#000000;" parent="YVLUfFIhRKJOg-uTzJRr-255" vertex="1">
          <mxGeometry width="138.125" height="22.5" as="geometry" />
        </mxCell>
        <mxCell id="YVLUfFIhRKJOg-uTzJRr-257" value="" style="rounded=0;whiteSpace=wrap;html=1;fillColor=#999900;fontColor=#000000;strokeColor=#000000;" parent="YVLUfFIhRKJOg-uTzJRr-255" vertex="1">
          <mxGeometry x="138.125" width="31.875" height="22.5" as="geometry" />
        </mxCell>
        <mxCell id="YVLUfFIhRKJOg-uTzJRr-258" value="" style="verticalLabelPosition=bottom;verticalAlign=top;html=1;shape=mxgraph.basic.tick;strokeColor=#000000;fillColor=#000000;" parent="YVLUfFIhRKJOg-uTzJRr-255" vertex="1">
          <mxGeometry x="145.47749999999996" y="3.5" width="17.17" height="15.5" as="geometry" />
        </mxCell>
        <mxCell id="YVLUfFIhRKJOg-uTzJRr-259" value="" style="group" parent="1" vertex="1" connectable="0">
          <mxGeometry x="1408" y="1510.25" width="170" height="22.5" as="geometry" />
        </mxCell>
        <mxCell id="YVLUfFIhRKJOg-uTzJRr-260" value="&lt;font face=&quot;Comic Sans MS&quot;&gt;&lt;b&gt;PriorityQueue&lt;/b&gt;&lt;/font&gt;" style="rounded=0;whiteSpace=wrap;html=1;fillColor=#FFFF99;fontColor=#000000;strokeColor=#000000;" parent="YVLUfFIhRKJOg-uTzJRr-259" vertex="1">
          <mxGeometry width="138.125" height="22.5" as="geometry" />
        </mxCell>
        <mxCell id="YVLUfFIhRKJOg-uTzJRr-261" value="" style="rounded=0;whiteSpace=wrap;html=1;fillColor=#999900;fontColor=#000000;strokeColor=#000000;" parent="YVLUfFIhRKJOg-uTzJRr-259" vertex="1">
          <mxGeometry x="138.125" width="31.875" height="22.5" as="geometry" />
        </mxCell>
        <mxCell id="YVLUfFIhRKJOg-uTzJRr-262" value="" style="verticalLabelPosition=bottom;verticalAlign=top;html=1;shape=mxgraph.basic.tick;strokeColor=#000000;fillColor=#000000;" parent="YVLUfFIhRKJOg-uTzJRr-259" vertex="1">
          <mxGeometry x="145.47749999999996" y="3.5" width="17.17" height="15.5" as="geometry" />
        </mxCell>
        <mxCell id="YVLUfFIhRKJOg-uTzJRr-263" value="" style="group" parent="1" vertex="1" connectable="0">
          <mxGeometry x="1408" y="1540.25" width="170" height="22.5" as="geometry" />
        </mxCell>
        <mxCell id="YVLUfFIhRKJOg-uTzJRr-264" value="&lt;font face=&quot;Comic Sans MS&quot;&gt;&lt;b&gt;LinkedList&lt;/b&gt;&lt;/font&gt;" style="rounded=0;whiteSpace=wrap;html=1;fillColor=#FFFF99;fontColor=#000000;strokeColor=#000000;" parent="YVLUfFIhRKJOg-uTzJRr-263" vertex="1">
          <mxGeometry width="138.125" height="22.5" as="geometry" />
        </mxCell>
        <mxCell id="YVLUfFIhRKJOg-uTzJRr-265" value="" style="rounded=0;whiteSpace=wrap;html=1;fillColor=#999900;fontColor=#000000;strokeColor=#000000;" parent="YVLUfFIhRKJOg-uTzJRr-263" vertex="1">
          <mxGeometry x="138.125" width="31.875" height="22.5" as="geometry" />
        </mxCell>
        <mxCell id="YVLUfFIhRKJOg-uTzJRr-266" value="" style="verticalLabelPosition=bottom;verticalAlign=top;html=1;shape=mxgraph.basic.tick;strokeColor=#000000;fillColor=#000000;" parent="YVLUfFIhRKJOg-uTzJRr-263" vertex="1">
          <mxGeometry x="145.47749999999996" y="3.5" width="17.17" height="15.5" as="geometry" />
        </mxCell>
        <mxCell id="YVLUfFIhRKJOg-uTzJRr-267" value="" style="group" parent="1" vertex="1" connectable="0">
          <mxGeometry x="1408" y="1570.25" width="170" height="22.5" as="geometry" />
        </mxCell>
        <mxCell id="YVLUfFIhRKJOg-uTzJRr-268" value="&lt;font face=&quot;Comic Sans MS&quot;&gt;&lt;b&gt;ArrayDeque&lt;/b&gt;&lt;/font&gt;" style="rounded=0;whiteSpace=wrap;html=1;fillColor=#FFFF99;fontColor=#000000;strokeColor=#000000;" parent="YVLUfFIhRKJOg-uTzJRr-267" vertex="1">
          <mxGeometry width="138.125" height="22.5" as="geometry" />
        </mxCell>
        <mxCell id="YVLUfFIhRKJOg-uTzJRr-269" value="" style="rounded=0;whiteSpace=wrap;html=1;fillColor=#999900;fontColor=#000000;strokeColor=#000000;" parent="YVLUfFIhRKJOg-uTzJRr-267" vertex="1">
          <mxGeometry x="138.125" width="31.875" height="22.5" as="geometry" />
        </mxCell>
        <mxCell id="YVLUfFIhRKJOg-uTzJRr-270" value="" style="verticalLabelPosition=bottom;verticalAlign=top;html=1;shape=mxgraph.basic.tick;strokeColor=#000000;fillColor=#000000;" parent="YVLUfFIhRKJOg-uTzJRr-267" vertex="1">
          <mxGeometry x="145.47749999999996" y="3.5" width="17.17" height="15.5" as="geometry" />
        </mxCell>
        <mxCell id="YVLUfFIhRKJOg-uTzJRr-271" value="" style="endArrow=none;dashed=1;html=1;dashPattern=1 3;strokeWidth=1.8;rounded=0;entryX=1;entryY=0.5;entryDx=0;entryDy=0;curved=1;fillColor=#6a00ff;strokeColor=#4C0099;exitX=0;exitY=0.5;exitDx=0;exitDy=0;" parent="1" source="YVLUfFIhRKJOg-uTzJRr-121" target="YVLUfFIhRKJOg-uTzJRr-68" edge="1">
          <mxGeometry width="50" height="50" relative="1" as="geometry">
            <mxPoint x="1128" y="1241.25" as="sourcePoint" />
            <mxPoint x="934" y="1278.25" as="targetPoint" />
            <Array as="points">
              <mxPoint x="1068" y="1330.25" />
              <mxPoint x="1018" y="1270.25" />
            </Array>
          </mxGeometry>
        </mxCell>
        <mxCell id="YVLUfFIhRKJOg-uTzJRr-272" value="" style="endArrow=none;dashed=1;html=1;dashPattern=1 3;strokeWidth=1.8;rounded=0;entryX=1;entryY=0.5;entryDx=0;entryDy=0;curved=1;fillColor=#6a00ff;strokeColor=#4C0099;exitX=0;exitY=0.5;exitDx=0;exitDy=0;" parent="1" source="YVLUfFIhRKJOg-uTzJRr-127" target="YVLUfFIhRKJOg-uTzJRr-68" edge="1">
          <mxGeometry width="50" height="50" relative="1" as="geometry">
            <mxPoint x="1112.31" y="1446.12" as="sourcePoint" />
            <mxPoint x="908" y="1372.87" as="targetPoint" />
            <Array as="points">
              <mxPoint x="1088" y="1440.25" />
              <mxPoint x="1058" y="1370.25" />
              <mxPoint x="1018" y="1290.25" />
            </Array>
          </mxGeometry>
        </mxCell>
        <mxCell id="YVLUfFIhRKJOg-uTzJRr-274" value="" style="endArrow=none;dashed=1;html=1;dashPattern=1 3;strokeWidth=1.8;rounded=0;entryX=0.974;entryY=0.618;entryDx=0;entryDy=0;curved=1;fillColor=#6a00ff;strokeColor=#4C0099;exitX=0;exitY=0.5;exitDx=0;exitDy=0;entryPerimeter=0;" parent="1" source="YVLUfFIhRKJOg-uTzJRr-133" target="YVLUfFIhRKJOg-uTzJRr-68" edge="1">
          <mxGeometry width="50" height="50" relative="1" as="geometry">
            <mxPoint x="1128" y="1454.25" as="sourcePoint" />
            <mxPoint x="934" y="1278.25" as="targetPoint" />
            <Array as="points">
              <mxPoint x="1078" y="1550.25" />
              <mxPoint x="1028" y="1430.25" />
              <mxPoint x="1008" y="1300.25" />
            </Array>
          </mxGeometry>
        </mxCell>
        <mxCell id="YVLUfFIhRKJOg-uTzJRr-275" value="" style="endArrow=classic;html=1;rounded=0;entryX=1;entryY=0.5;entryDx=0;entryDy=0;exitX=0;exitY=0.5;exitDx=0;exitDy=0;strokeWidth=2;" parent="1" source="YVLUfFIhRKJOg-uTzJRr-170" target="YVLUfFIhRKJOg-uTzJRr-182" edge="1">
          <mxGeometry width="50" height="50" relative="1" as="geometry">
            <mxPoint x="628" y="1581.25" as="sourcePoint" />
            <mxPoint x="678" y="1531.25" as="targetPoint" />
          </mxGeometry>
        </mxCell>
        <mxCell id="YVLUfFIhRKJOg-uTzJRr-276" value="" style="endArrow=classic;html=1;rounded=0;exitX=1;exitY=0.5;exitDx=0;exitDy=0;strokeWidth=2;entryX=0;entryY=0.5;entryDx=0;entryDy=0;" parent="1" source="YVLUfFIhRKJOg-uTzJRr-170" target="YVLUfFIhRKJOg-uTzJRr-172" edge="1">
          <mxGeometry width="50" height="50" relative="1" as="geometry">
            <mxPoint x="505" y="1622.25" as="sourcePoint" />
            <mxPoint x="698" y="1611.25" as="targetPoint" />
          </mxGeometry>
        </mxCell>
        <mxCell id="YVLUfFIhRKJOg-uTzJRr-277" value="&lt;font face=&quot;Comic Sans MS&quot;&gt;&lt;b&gt;To be Continued...&lt;/b&gt;&lt;/font&gt;" style="rounded=0;whiteSpace=wrap;html=1;fillColor=#FFFF33;fontColor=#000000;strokeColor=#000000;" parent="1" vertex="1">
          <mxGeometry x="355" y="2510.25" width="160" height="22.5" as="geometry" />
        </mxCell>
        <mxCell id="YVLUfFIhRKJOg-uTzJRr-278" value="" style="endArrow=none;dashed=1;html=1;dashPattern=1 3;strokeWidth=1.8;rounded=0;entryX=1;entryY=0.5;entryDx=0;entryDy=0;curved=1;fillColor=#6a00ff;strokeColor=#99004D;exitX=0;exitY=0.5;exitDx=0;exitDy=0;" parent="1" source="YVLUfFIhRKJOg-uTzJRr-193" target="YVLUfFIhRKJOg-uTzJRr-95" edge="1">
          <mxGeometry width="50" height="50" relative="1" as="geometry">
            <mxPoint x="1128" y="1241.25" as="sourcePoint" />
            <mxPoint x="934" y="1278.25" as="targetPoint" />
            <Array as="points">
              <mxPoint x="1338" y="1220.25" />
            </Array>
          </mxGeometry>
        </mxCell>
        <mxCell id="YVLUfFIhRKJOg-uTzJRr-279" value="" style="endArrow=none;dashed=1;html=1;dashPattern=1 3;strokeWidth=1.8;rounded=0;entryX=1;entryY=0.5;entryDx=0;entryDy=0;curved=1;fillColor=#6a00ff;strokeColor=#99004D;exitX=0;exitY=0.5;exitDx=0;exitDy=0;" parent="1" source="YVLUfFIhRKJOg-uTzJRr-218" target="YVLUfFIhRKJOg-uTzJRr-95" edge="1">
          <mxGeometry width="50" height="50" relative="1" as="geometry">
            <mxPoint x="1418" y="1231.25" as="sourcePoint" />
            <mxPoint x="1301" y="1249.25" as="targetPoint" />
            <Array as="points">
              <mxPoint x="1348" y="1260.25" />
            </Array>
          </mxGeometry>
        </mxCell>
        <mxCell id="YVLUfFIhRKJOg-uTzJRr-280" value="" style="endArrow=none;dashed=1;html=1;dashPattern=1 3;strokeWidth=1.8;rounded=0;entryX=1;entryY=0.5;entryDx=0;entryDy=0;curved=1;fillColor=#6a00ff;strokeColor=#99004D;exitX=-0.017;exitY=0.507;exitDx=0;exitDy=0;exitPerimeter=0;" parent="1" source="YVLUfFIhRKJOg-uTzJRr-222" target="YVLUfFIhRKJOg-uTzJRr-122" edge="1">
          <mxGeometry width="50" height="50" relative="1" as="geometry">
            <mxPoint x="1418" y="1261.25" as="sourcePoint" />
            <mxPoint x="1301" y="1249.25" as="targetPoint" />
            <Array as="points">
              <mxPoint x="1328" y="1290.25" />
            </Array>
          </mxGeometry>
        </mxCell>
        <mxCell id="YVLUfFIhRKJOg-uTzJRr-281" value="" style="endArrow=none;dashed=1;html=1;dashPattern=1 3;strokeWidth=1.8;rounded=0;entryX=1;entryY=0.5;entryDx=0;entryDy=0;curved=1;fillColor=#6a00ff;strokeColor=#99004D;exitX=0;exitY=0.5;exitDx=0;exitDy=0;" parent="1" source="YVLUfFIhRKJOg-uTzJRr-226" target="YVLUfFIhRKJOg-uTzJRr-122" edge="1">
          <mxGeometry width="50" height="50" relative="1" as="geometry">
            <mxPoint x="1416" y="1302.25" as="sourcePoint" />
            <mxPoint x="1301" y="1349.25" as="targetPoint" />
            <Array as="points">
              <mxPoint x="1348" y="1310.25" />
            </Array>
          </mxGeometry>
        </mxCell>
        <mxCell id="YVLUfFIhRKJOg-uTzJRr-282" value="" style="endArrow=none;dashed=1;html=1;dashPattern=1 3;strokeWidth=1.8;rounded=0;entryX=1;entryY=0.5;entryDx=0;entryDy=0;curved=1;fillColor=#6a00ff;strokeColor=#99004D;exitX=0;exitY=0.5;exitDx=0;exitDy=0;" parent="1" source="YVLUfFIhRKJOg-uTzJRr-230" target="YVLUfFIhRKJOg-uTzJRr-122" edge="1">
          <mxGeometry width="50" height="50" relative="1" as="geometry">
            <mxPoint x="1418" y="1332.25" as="sourcePoint" />
            <mxPoint x="1301" y="1349.25" as="targetPoint" />
            <Array as="points">
              <mxPoint x="1348" y="1360.25" />
            </Array>
          </mxGeometry>
        </mxCell>
        <mxCell id="YVLUfFIhRKJOg-uTzJRr-283" value="" style="endArrow=none;dashed=1;html=1;dashPattern=1 3;strokeWidth=1.8;rounded=0;curved=1;fillColor=#6a00ff;strokeColor=#99004D;exitX=0;exitY=0.5;exitDx=0;exitDy=0;entryX=1;entryY=0.5;entryDx=0;entryDy=0;" parent="1" source="YVLUfFIhRKJOg-uTzJRr-234" target="YVLUfFIhRKJOg-uTzJRr-122" edge="1">
          <mxGeometry width="50" height="50" relative="1" as="geometry">
            <mxPoint x="1418" y="1362.25" as="sourcePoint" />
            <mxPoint x="1288" y="1340.25" as="targetPoint" />
            <Array as="points">
              <mxPoint x="1338" y="1390.25" />
            </Array>
          </mxGeometry>
        </mxCell>
        <mxCell id="YVLUfFIhRKJOg-uTzJRr-284" value="" style="endArrow=none;dashed=1;html=1;dashPattern=1 3;strokeWidth=1.8;rounded=0;curved=1;fillColor=#6a00ff;strokeColor=#99004D;exitX=0;exitY=0.5;exitDx=0;exitDy=0;entryX=0.968;entryY=0.507;entryDx=0;entryDy=0;entryPerimeter=0;" parent="1" source="YVLUfFIhRKJOg-uTzJRr-248" target="YVLUfFIhRKJOg-uTzJRr-128" edge="1">
          <mxGeometry width="50" height="50" relative="1" as="geometry">
            <mxPoint x="1418" y="1392.25" as="sourcePoint" />
            <mxPoint x="1301" y="1349.25" as="targetPoint" />
            <Array as="points">
              <mxPoint x="1338" y="1410.25" />
            </Array>
          </mxGeometry>
        </mxCell>
        <mxCell id="YVLUfFIhRKJOg-uTzJRr-285" value="" style="endArrow=none;dashed=1;html=1;dashPattern=1 3;strokeWidth=1.8;rounded=0;curved=1;fillColor=#6a00ff;strokeColor=#99004D;exitX=-0.008;exitY=0.506;exitDx=0;exitDy=0;entryX=1;entryY=0.5;entryDx=0;entryDy=0;exitPerimeter=0;" parent="1" source="YVLUfFIhRKJOg-uTzJRr-252" target="YVLUfFIhRKJOg-uTzJRr-128" edge="1">
          <mxGeometry width="50" height="50" relative="1" as="geometry">
            <mxPoint x="1418" y="1431.25" as="sourcePoint" />
            <mxPoint x="1300" y="1462.25" as="targetPoint" />
            <Array as="points" />
          </mxGeometry>
        </mxCell>
        <mxCell id="YVLUfFIhRKJOg-uTzJRr-286" value="" style="endArrow=none;dashed=1;html=1;dashPattern=1 3;strokeWidth=1.8;rounded=0;curved=1;fillColor=#6a00ff;strokeColor=#99004D;exitX=0;exitY=0.5;exitDx=0;exitDy=0;entryX=1;entryY=0.5;entryDx=0;entryDy=0;" parent="1" source="YVLUfFIhRKJOg-uTzJRr-256" target="YVLUfFIhRKJOg-uTzJRr-128" edge="1">
          <mxGeometry width="50" height="50" relative="1" as="geometry">
            <mxPoint x="1417" y="1461.25" as="sourcePoint" />
            <mxPoint x="1301" y="1462.25" as="targetPoint" />
            <Array as="points">
              <mxPoint x="1338" y="1490.25" />
            </Array>
          </mxGeometry>
        </mxCell>
        <mxCell id="YVLUfFIhRKJOg-uTzJRr-287" value="" style="endArrow=none;dashed=1;html=1;dashPattern=1 3;strokeWidth=1.8;rounded=0;curved=1;fillColor=#6a00ff;strokeColor=#99004D;exitX=0;exitY=0.5;exitDx=0;exitDy=0;entryX=1;entryY=0.5;entryDx=0;entryDy=0;" parent="1" source="YVLUfFIhRKJOg-uTzJRr-260" target="YVLUfFIhRKJOg-uTzJRr-134" edge="1">
          <mxGeometry width="50" height="50" relative="1" as="geometry">
            <mxPoint x="1418" y="1431.25" as="sourcePoint" />
            <mxPoint x="1300" y="1462.25" as="targetPoint" />
            <Array as="points">
              <mxPoint x="1348" y="1510.25" />
            </Array>
          </mxGeometry>
        </mxCell>
        <mxCell id="YVLUfFIhRKJOg-uTzJRr-288" value="" style="endArrow=none;dashed=1;html=1;dashPattern=1 3;strokeWidth=1.8;rounded=0;curved=1;fillColor=#6a00ff;strokeColor=#99004D;exitX=0;exitY=0.5;exitDx=0;exitDy=0;entryX=1;entryY=0.5;entryDx=0;entryDy=0;" parent="1" source="YVLUfFIhRKJOg-uTzJRr-264" target="YVLUfFIhRKJOg-uTzJRr-134" edge="1">
          <mxGeometry width="50" height="50" relative="1" as="geometry">
            <mxPoint x="1418" y="1531.25" as="sourcePoint" />
            <mxPoint x="1301" y="1549.25" as="targetPoint" />
            <Array as="points">
              <mxPoint x="1338" y="1550.25" />
            </Array>
          </mxGeometry>
        </mxCell>
        <mxCell id="YVLUfFIhRKJOg-uTzJRr-289" value="" style="endArrow=none;dashed=1;html=1;dashPattern=1 3;strokeWidth=1.8;rounded=0;curved=1;fillColor=#6a00ff;strokeColor=#99004D;exitX=0;exitY=0.5;exitDx=0;exitDy=0;entryX=0.98;entryY=0.598;entryDx=0;entryDy=0;entryPerimeter=0;" parent="1" source="YVLUfFIhRKJOg-uTzJRr-268" target="YVLUfFIhRKJOg-uTzJRr-134" edge="1">
          <mxGeometry width="50" height="50" relative="1" as="geometry">
            <mxPoint x="1418" y="1561.25" as="sourcePoint" />
            <mxPoint x="1301" y="1562.25" as="targetPoint" />
            <Array as="points">
              <mxPoint x="1348" y="1590.25" />
            </Array>
          </mxGeometry>
        </mxCell>
        <mxCell id="YVLUfFIhRKJOg-uTzJRr-380" value="" style="group" parent="1" vertex="1" connectable="0">
          <mxGeometry x="835" y="1850.25" width="190" height="22.5" as="geometry" />
        </mxCell>
        <mxCell id="YVLUfFIhRKJOg-uTzJRr-381" value="&lt;font face=&quot;Comic Sans MS&quot;&gt;&lt;b&gt;CopyOnWriteArrayList&lt;/b&gt;&lt;/font&gt;" style="rounded=0;whiteSpace=wrap;html=1;fillColor=#FFFF99;fontColor=#000000;strokeColor=#000000;" parent="YVLUfFIhRKJOg-uTzJRr-380" vertex="1">
          <mxGeometry width="154.375" height="22.5" as="geometry" />
        </mxCell>
        <mxCell id="YVLUfFIhRKJOg-uTzJRr-382" value="" style="rounded=0;whiteSpace=wrap;html=1;fillColor=#999900;fontColor=#000000;strokeColor=#000000;" parent="YVLUfFIhRKJOg-uTzJRr-380" vertex="1">
          <mxGeometry x="154.375" width="35.625" height="22.5" as="geometry" />
        </mxCell>
        <mxCell id="YVLUfFIhRKJOg-uTzJRr-383" value="" style="verticalLabelPosition=bottom;verticalAlign=top;html=1;shape=mxgraph.basic.tick;strokeColor=#000000;fillColor=#000000;" parent="YVLUfFIhRKJOg-uTzJRr-380" vertex="1">
          <mxGeometry x="162.59249999999997" y="3.5" width="19.190000000000005" height="15.5" as="geometry" />
        </mxCell>
        <mxCell id="YVLUfFIhRKJOg-uTzJRr-388" value="" style="group" parent="1" vertex="1" connectable="0">
          <mxGeometry x="835" y="1820.25" width="190" height="22.5" as="geometry" />
        </mxCell>
        <mxCell id="YVLUfFIhRKJOg-uTzJRr-389" value="&lt;font face=&quot;Comic Sans MS&quot;&gt;&lt;b&gt;ConcurrentHashMap&lt;/b&gt;&lt;/font&gt;" style="rounded=0;whiteSpace=wrap;html=1;fillColor=#FFFF99;fontColor=#000000;strokeColor=#000000;" parent="YVLUfFIhRKJOg-uTzJRr-388" vertex="1">
          <mxGeometry width="154.375" height="22.5" as="geometry" />
        </mxCell>
        <mxCell id="YVLUfFIhRKJOg-uTzJRr-390" value="" style="rounded=0;whiteSpace=wrap;html=1;fillColor=#999900;fontColor=#000000;strokeColor=#000000;" parent="YVLUfFIhRKJOg-uTzJRr-388" vertex="1">
          <mxGeometry x="154.375" width="35.625" height="22.5" as="geometry" />
        </mxCell>
        <mxCell id="YVLUfFIhRKJOg-uTzJRr-391" value="" style="verticalLabelPosition=bottom;verticalAlign=top;html=1;shape=mxgraph.basic.tick;strokeColor=#000000;fillColor=#000000;" parent="YVLUfFIhRKJOg-uTzJRr-388" vertex="1">
          <mxGeometry x="162.59249999999997" y="3.5" width="19.190000000000005" height="15.5" as="geometry" />
        </mxCell>
        <mxCell id="YVLUfFIhRKJOg-uTzJRr-392" value="" style="group" parent="1" vertex="1" connectable="0">
          <mxGeometry x="835" y="1910.25" width="190" height="22.5" as="geometry" />
        </mxCell>
        <mxCell id="YVLUfFIhRKJOg-uTzJRr-393" value="&lt;font face=&quot;Comic Sans MS&quot;&gt;&lt;b&gt;LinkedBlockingQueue&lt;/b&gt;&lt;/font&gt;" style="rounded=0;whiteSpace=wrap;html=1;fillColor=#FFFF99;fontColor=#000000;strokeColor=#000000;" parent="YVLUfFIhRKJOg-uTzJRr-392" vertex="1">
          <mxGeometry width="154.375" height="22.5" as="geometry" />
        </mxCell>
        <mxCell id="YVLUfFIhRKJOg-uTzJRr-394" value="" style="rounded=0;whiteSpace=wrap;html=1;fillColor=#999900;fontColor=#000000;strokeColor=#000000;" parent="YVLUfFIhRKJOg-uTzJRr-392" vertex="1">
          <mxGeometry x="154.375" width="35.625" height="22.5" as="geometry" />
        </mxCell>
        <mxCell id="YVLUfFIhRKJOg-uTzJRr-395" value="" style="verticalLabelPosition=bottom;verticalAlign=top;html=1;shape=mxgraph.basic.tick;strokeColor=#000000;fillColor=#000000;" parent="YVLUfFIhRKJOg-uTzJRr-392" vertex="1">
          <mxGeometry x="162.59249999999997" y="3.5" width="19.190000000000005" height="15.5" as="geometry" />
        </mxCell>
        <mxCell id="YVLUfFIhRKJOg-uTzJRr-396" value="" style="group" parent="1" vertex="1" connectable="0">
          <mxGeometry x="835" y="1880.25" width="190" height="22.5" as="geometry" />
        </mxCell>
        <mxCell id="YVLUfFIhRKJOg-uTzJRr-397" value="&lt;b style=&quot;font-family: &amp;quot;Comic Sans MS&amp;quot;;&quot;&gt;ConcurrentLinkedList&lt;/b&gt;" style="rounded=0;whiteSpace=wrap;html=1;fillColor=#FFFF99;fontColor=#000000;strokeColor=#000000;" parent="YVLUfFIhRKJOg-uTzJRr-396" vertex="1">
          <mxGeometry width="154.375" height="22.5" as="geometry" />
        </mxCell>
        <mxCell id="YVLUfFIhRKJOg-uTzJRr-398" value="" style="rounded=0;whiteSpace=wrap;html=1;fillColor=#999900;fontColor=#000000;strokeColor=#000000;" parent="YVLUfFIhRKJOg-uTzJRr-396" vertex="1">
          <mxGeometry x="154.375" width="35.625" height="22.5" as="geometry" />
        </mxCell>
        <mxCell id="YVLUfFIhRKJOg-uTzJRr-399" value="" style="verticalLabelPosition=bottom;verticalAlign=top;html=1;shape=mxgraph.basic.tick;strokeColor=#000000;fillColor=#000000;" parent="YVLUfFIhRKJOg-uTzJRr-396" vertex="1">
          <mxGeometry x="162.59249999999997" y="3.5" width="19.190000000000005" height="15.5" as="geometry" />
        </mxCell>
        <mxCell id="YVLUfFIhRKJOg-uTzJRr-400" value="" style="group" parent="1" vertex="1" connectable="0">
          <mxGeometry x="835" y="1940.25" width="190.01" height="22.5" as="geometry" />
        </mxCell>
        <mxCell id="YVLUfFIhRKJOg-uTzJRr-401" value="&lt;font face=&quot;Comic Sans MS&quot;&gt;&lt;b&gt;PriorityBlockingQueue&lt;/b&gt;&lt;/font&gt;" style="rounded=0;whiteSpace=wrap;html=1;fillColor=#FFFF99;fontColor=#000000;strokeColor=#000000;" parent="YVLUfFIhRKJOg-uTzJRr-400" vertex="1">
          <mxGeometry width="154.375" height="22.5" as="geometry" />
        </mxCell>
        <mxCell id="YVLUfFIhRKJOg-uTzJRr-402" value="" style="rounded=0;whiteSpace=wrap;html=1;fillColor=#999900;fontColor=#000000;strokeColor=#000000;" parent="YVLUfFIhRKJOg-uTzJRr-400" vertex="1">
          <mxGeometry x="154.38" width="35.63" height="22.5" as="geometry" />
        </mxCell>
        <mxCell id="YVLUfFIhRKJOg-uTzJRr-403" value="" style="verticalLabelPosition=bottom;verticalAlign=top;html=1;shape=mxgraph.basic.tick;strokeColor=#000000;fillColor=#000000;" parent="YVLUfFIhRKJOg-uTzJRr-400" vertex="1">
          <mxGeometry x="162.59249999999997" y="3.5" width="19.190000000000005" height="15.5" as="geometry" />
        </mxCell>
        <mxCell id="YVLUfFIhRKJOg-uTzJRr-404" value="" style="endArrow=none;dashed=1;html=1;dashPattern=1 3;strokeWidth=1.8;rounded=0;curved=1;fillColor=#6a00ff;strokeColor=#4C0099;exitX=0;exitY=0.5;exitDx=0;exitDy=0;entryX=1;entryY=0.5;entryDx=0;entryDy=0;" parent="1" source="YVLUfFIhRKJOg-uTzJRr-184" target="YVLUfFIhRKJOg-uTzJRr-431" edge="1">
          <mxGeometry width="50" height="50" relative="1" as="geometry">
            <mxPoint x="415" y="1632.25" as="sourcePoint" />
            <mxPoint x="325" y="1800.25" as="targetPoint" />
            <Array as="points">
              <mxPoint x="315" y="1740.25" />
            </Array>
          </mxGeometry>
        </mxCell>
        <mxCell id="YVLUfFIhRKJOg-uTzJRr-405" value="" style="group" parent="1" vertex="1" connectable="0">
          <mxGeometry x="575" y="1750.25" width="190" height="22.5" as="geometry" />
        </mxCell>
        <mxCell id="YVLUfFIhRKJOg-uTzJRr-406" value="&lt;font face=&quot;Comic Sans MS&quot;&gt;&lt;b&gt;Collection Framework&lt;/b&gt;&lt;/font&gt;" style="rounded=0;whiteSpace=wrap;html=1;fillColor=#FFFF99;fontColor=#000000;strokeColor=#000000;" parent="YVLUfFIhRKJOg-uTzJRr-405" vertex="1">
          <mxGeometry width="154.375" height="22.5" as="geometry" />
        </mxCell>
        <mxCell id="YVLUfFIhRKJOg-uTzJRr-407" value="" style="rounded=0;whiteSpace=wrap;html=1;fillColor=#999900;fontColor=#000000;strokeColor=#000000;" parent="YVLUfFIhRKJOg-uTzJRr-405" vertex="1">
          <mxGeometry x="154.375" width="35.625" height="22.5" as="geometry" />
        </mxCell>
        <mxCell id="YVLUfFIhRKJOg-uTzJRr-408" value="" style="verticalLabelPosition=bottom;verticalAlign=top;html=1;shape=mxgraph.basic.tick;strokeColor=#000000;fillColor=#000000;" parent="YVLUfFIhRKJOg-uTzJRr-405" vertex="1">
          <mxGeometry x="162.59249999999997" y="3.5" width="19.190000000000005" height="15.5" as="geometry" />
        </mxCell>
        <mxCell id="YVLUfFIhRKJOg-uTzJRr-409" value="" style="group" parent="1" vertex="1" connectable="0">
          <mxGeometry x="575" y="1780.25" width="190" height="22.5" as="geometry" />
        </mxCell>
        <mxCell id="YVLUfFIhRKJOg-uTzJRr-410" value="&lt;font face=&quot;Comic Sans MS&quot;&gt;&lt;b&gt;Generics&lt;/b&gt;&lt;/font&gt;" style="rounded=0;whiteSpace=wrap;html=1;fillColor=#FFFF99;fontColor=#000000;strokeColor=#000000;" parent="YVLUfFIhRKJOg-uTzJRr-409" vertex="1">
          <mxGeometry width="154.375" height="22.5" as="geometry" />
        </mxCell>
        <mxCell id="YVLUfFIhRKJOg-uTzJRr-411" value="" style="rounded=0;whiteSpace=wrap;html=1;fillColor=#999900;fontColor=#000000;strokeColor=#000000;" parent="YVLUfFIhRKJOg-uTzJRr-409" vertex="1">
          <mxGeometry x="154.375" width="35.625" height="22.5" as="geometry" />
        </mxCell>
        <mxCell id="YVLUfFIhRKJOg-uTzJRr-412" value="" style="verticalLabelPosition=bottom;verticalAlign=top;html=1;shape=mxgraph.basic.tick;strokeColor=#000000;fillColor=#000000;" parent="YVLUfFIhRKJOg-uTzJRr-409" vertex="1">
          <mxGeometry x="162.59249999999997" y="3.5" width="19.190000000000005" height="15.5" as="geometry" />
        </mxCell>
        <mxCell id="YVLUfFIhRKJOg-uTzJRr-413" value="" style="group" parent="1" vertex="1" connectable="0">
          <mxGeometry x="575" y="1850.25" width="190" height="22.5" as="geometry" />
        </mxCell>
        <mxCell id="YVLUfFIhRKJOg-uTzJRr-414" value="&lt;font face=&quot;Comic Sans MS&quot;&gt;&lt;b&gt;Basic of Threads&lt;/b&gt;&lt;/font&gt;" style="rounded=0;whiteSpace=wrap;html=1;fillColor=#FFFF99;fontColor=#000000;strokeColor=#000000;" parent="YVLUfFIhRKJOg-uTzJRr-413" vertex="1">
          <mxGeometry width="154.375" height="22.5" as="geometry" />
        </mxCell>
        <mxCell id="YVLUfFIhRKJOg-uTzJRr-415" value="" style="rounded=0;whiteSpace=wrap;html=1;fillColor=#999900;fontColor=#000000;strokeColor=#000000;" parent="YVLUfFIhRKJOg-uTzJRr-413" vertex="1">
          <mxGeometry x="154.375" width="35.625" height="22.5" as="geometry" />
        </mxCell>
        <mxCell id="YVLUfFIhRKJOg-uTzJRr-416" value="" style="verticalLabelPosition=bottom;verticalAlign=top;html=1;shape=mxgraph.basic.tick;strokeColor=#000000;fillColor=#000000;" parent="YVLUfFIhRKJOg-uTzJRr-413" vertex="1">
          <mxGeometry x="162.59249999999997" y="3.5" width="19.190000000000005" height="15.5" as="geometry" />
        </mxCell>
        <mxCell id="YVLUfFIhRKJOg-uTzJRr-417" value="" style="group" parent="1" vertex="1" connectable="0">
          <mxGeometry x="575" y="1880.25" width="190" height="22.5" as="geometry" />
        </mxCell>
        <mxCell id="YVLUfFIhRKJOg-uTzJRr-418" value="&lt;font face=&quot;Comic Sans MS&quot;&gt;&lt;b&gt;Concurrent Collections&lt;/b&gt;&lt;/font&gt;" style="rounded=0;whiteSpace=wrap;html=1;fillColor=#FFFF99;fontColor=#000000;strokeColor=#000000;" parent="YVLUfFIhRKJOg-uTzJRr-417" vertex="1">
          <mxGeometry width="154.375" height="22.5" as="geometry" />
        </mxCell>
        <mxCell id="YVLUfFIhRKJOg-uTzJRr-419" value="" style="rounded=0;whiteSpace=wrap;html=1;fillColor=#999900;fontColor=#000000;strokeColor=#000000;" parent="YVLUfFIhRKJOg-uTzJRr-417" vertex="1">
          <mxGeometry x="154.375" width="35.625" height="22.5" as="geometry" />
        </mxCell>
        <mxCell id="YVLUfFIhRKJOg-uTzJRr-420" value="" style="verticalLabelPosition=bottom;verticalAlign=top;html=1;shape=mxgraph.basic.tick;strokeColor=#000000;fillColor=#000000;" parent="YVLUfFIhRKJOg-uTzJRr-417" vertex="1">
          <mxGeometry x="162.59249999999997" y="3.5" width="19.190000000000005" height="15.5" as="geometry" />
        </mxCell>
        <mxCell id="YVLUfFIhRKJOg-uTzJRr-421" value="" style="group" parent="1" vertex="1" connectable="0">
          <mxGeometry x="165" y="1940.25" width="190" height="22.5" as="geometry" />
        </mxCell>
        <mxCell id="YVLUfFIhRKJOg-uTzJRr-422" value="&lt;font face=&quot;Comic Sans MS&quot;&gt;&lt;b&gt;Network &amp;amp; Sockets&lt;/b&gt;&lt;/font&gt;" style="rounded=0;whiteSpace=wrap;html=1;fillColor=#FFFF99;fontColor=#000000;strokeColor=#000000;" parent="YVLUfFIhRKJOg-uTzJRr-421" vertex="1">
          <mxGeometry width="154.375" height="22.5" as="geometry" />
        </mxCell>
        <mxCell id="YVLUfFIhRKJOg-uTzJRr-423" value="" style="rounded=0;whiteSpace=wrap;html=1;fillColor=#999900;fontColor=#000000;strokeColor=#000000;" parent="YVLUfFIhRKJOg-uTzJRr-421" vertex="1">
          <mxGeometry x="154.375" width="35.625" height="22.5" as="geometry" />
        </mxCell>
        <mxCell id="YVLUfFIhRKJOg-uTzJRr-424" value="" style="verticalLabelPosition=bottom;verticalAlign=top;html=1;shape=mxgraph.basic.tick;strokeColor=#000000;fillColor=#000000;" parent="YVLUfFIhRKJOg-uTzJRr-421" vertex="1">
          <mxGeometry x="162.59249999999997" y="3.5" width="19.190000000000005" height="15.5" as="geometry" />
        </mxCell>
        <mxCell id="YVLUfFIhRKJOg-uTzJRr-425" value="" style="group" parent="1" vertex="1" connectable="0">
          <mxGeometry x="55" y="1750.25" width="190" height="22.5" as="geometry" />
        </mxCell>
        <mxCell id="YVLUfFIhRKJOg-uTzJRr-426" value="&lt;font face=&quot;Comic Sans MS&quot;&gt;&lt;b&gt;Streasm API&lt;/b&gt;&lt;/font&gt;" style="rounded=0;whiteSpace=wrap;html=1;fillColor=#FFFF99;fontColor=#000000;strokeColor=#000000;" parent="YVLUfFIhRKJOg-uTzJRr-425" vertex="1">
          <mxGeometry width="154.375" height="22.5" as="geometry" />
        </mxCell>
        <mxCell id="YVLUfFIhRKJOg-uTzJRr-427" value="" style="rounded=0;whiteSpace=wrap;html=1;fillColor=#999900;fontColor=#000000;strokeColor=#000000;" parent="YVLUfFIhRKJOg-uTzJRr-425" vertex="1">
          <mxGeometry x="154.375" width="35.625" height="22.5" as="geometry" />
        </mxCell>
        <mxCell id="YVLUfFIhRKJOg-uTzJRr-428" value="" style="verticalLabelPosition=bottom;verticalAlign=top;html=1;shape=mxgraph.basic.tick;strokeColor=#000000;fillColor=#000000;" parent="YVLUfFIhRKJOg-uTzJRr-425" vertex="1">
          <mxGeometry x="162.59249999999997" y="3.5" width="19.190000000000005" height="15.5" as="geometry" />
        </mxCell>
        <mxCell id="YVLUfFIhRKJOg-uTzJRr-429" value="" style="group" parent="1" vertex="1" connectable="0">
          <mxGeometry x="55" y="1720.25" width="190" height="22.5" as="geometry" />
        </mxCell>
        <mxCell id="YVLUfFIhRKJOg-uTzJRr-430" value="&lt;font face=&quot;Comic Sans MS&quot;&gt;&lt;b&gt;How JVM Works?&lt;/b&gt;&lt;/font&gt;" style="rounded=0;whiteSpace=wrap;html=1;fillColor=#FFFF99;fontColor=#000000;strokeColor=#000000;" parent="YVLUfFIhRKJOg-uTzJRr-429" vertex="1">
          <mxGeometry width="154.375" height="22.5" as="geometry" />
        </mxCell>
        <mxCell id="YVLUfFIhRKJOg-uTzJRr-431" value="" style="rounded=0;whiteSpace=wrap;html=1;fillColor=#999900;fontColor=#000000;strokeColor=#000000;" parent="YVLUfFIhRKJOg-uTzJRr-429" vertex="1">
          <mxGeometry x="154.375" width="35.625" height="22.5" as="geometry" />
        </mxCell>
        <mxCell id="YVLUfFIhRKJOg-uTzJRr-432" value="" style="verticalLabelPosition=bottom;verticalAlign=top;html=1;shape=mxgraph.basic.tick;strokeColor=#000000;fillColor=#000000;" parent="YVLUfFIhRKJOg-uTzJRr-429" vertex="1">
          <mxGeometry x="162.59249999999997" y="3.5" width="19.190000000000005" height="15.5" as="geometry" />
        </mxCell>
        <mxCell id="YVLUfFIhRKJOg-uTzJRr-433" value="" style="group" parent="1" vertex="1" connectable="0">
          <mxGeometry x="55" y="1810.25" width="190" height="22.5" as="geometry" />
        </mxCell>
        <mxCell id="YVLUfFIhRKJOg-uTzJRr-434" value="&lt;font face=&quot;Comic Sans MS&quot;&gt;&lt;b&gt;Garbage Collection&lt;/b&gt;&lt;/font&gt;" style="rounded=0;whiteSpace=wrap;html=1;fillColor=#FFFF99;fontColor=#000000;strokeColor=#000000;" parent="YVLUfFIhRKJOg-uTzJRr-433" vertex="1">
          <mxGeometry width="154.375" height="22.5" as="geometry" />
        </mxCell>
        <mxCell id="YVLUfFIhRKJOg-uTzJRr-435" value="" style="rounded=0;whiteSpace=wrap;html=1;fillColor=#999900;fontColor=#000000;strokeColor=#000000;" parent="YVLUfFIhRKJOg-uTzJRr-433" vertex="1">
          <mxGeometry x="154.375" width="35.625" height="22.5" as="geometry" />
        </mxCell>
        <mxCell id="YVLUfFIhRKJOg-uTzJRr-436" value="" style="verticalLabelPosition=bottom;verticalAlign=top;html=1;shape=mxgraph.basic.tick;strokeColor=#000000;fillColor=#000000;" parent="YVLUfFIhRKJOg-uTzJRr-433" vertex="1">
          <mxGeometry x="162.59249999999997" y="3.5" width="19.190000000000005" height="15.5" as="geometry" />
        </mxCell>
        <mxCell id="YVLUfFIhRKJOg-uTzJRr-437" value="" style="group" parent="1" vertex="1" connectable="0">
          <mxGeometry x="55" y="1780.25" width="190" height="22.5" as="geometry" />
        </mxCell>
        <mxCell id="YVLUfFIhRKJOg-uTzJRr-438" value="&lt;font face=&quot;Comic Sans MS&quot;&gt;&lt;b&gt;Serialization&lt;/b&gt;&lt;/font&gt;" style="rounded=0;whiteSpace=wrap;html=1;fillColor=#FFFF99;fontColor=#000000;strokeColor=#000000;" parent="YVLUfFIhRKJOg-uTzJRr-437" vertex="1">
          <mxGeometry width="154.375" height="22.5" as="geometry" />
        </mxCell>
        <mxCell id="YVLUfFIhRKJOg-uTzJRr-439" value="" style="rounded=0;whiteSpace=wrap;html=1;fillColor=#999900;fontColor=#000000;strokeColor=#000000;" parent="YVLUfFIhRKJOg-uTzJRr-437" vertex="1">
          <mxGeometry x="154.375" width="35.625" height="22.5" as="geometry" />
        </mxCell>
        <mxCell id="YVLUfFIhRKJOg-uTzJRr-440" value="" style="verticalLabelPosition=bottom;verticalAlign=top;html=1;shape=mxgraph.basic.tick;strokeColor=#000000;fillColor=#000000;" parent="YVLUfFIhRKJOg-uTzJRr-437" vertex="1">
          <mxGeometry x="162.59249999999997" y="3.5" width="19.190000000000005" height="15.5" as="geometry" />
        </mxCell>
        <mxCell id="YVLUfFIhRKJOg-uTzJRr-441" value="" style="group" parent="1" vertex="1" connectable="0">
          <mxGeometry x="55" y="1840.25" width="190" height="22.5" as="geometry" />
        </mxCell>
        <mxCell id="YVLUfFIhRKJOg-uTzJRr-442" value="&lt;font face=&quot;Comic Sans MS&quot;&gt;&lt;b&gt;Memory Managment&lt;/b&gt;&lt;/font&gt;" style="rounded=0;whiteSpace=wrap;html=1;fillColor=#FFFF99;fontColor=#000000;strokeColor=#000000;" parent="YVLUfFIhRKJOg-uTzJRr-441" vertex="1">
          <mxGeometry width="154.375" height="22.5" as="geometry" />
        </mxCell>
        <mxCell id="YVLUfFIhRKJOg-uTzJRr-443" value="" style="rounded=0;whiteSpace=wrap;html=1;fillColor=#999900;fontColor=#000000;strokeColor=#000000;" parent="YVLUfFIhRKJOg-uTzJRr-441" vertex="1">
          <mxGeometry x="154.375" width="35.625" height="22.5" as="geometry" />
        </mxCell>
        <mxCell id="YVLUfFIhRKJOg-uTzJRr-444" value="" style="verticalLabelPosition=bottom;verticalAlign=top;html=1;shape=mxgraph.basic.tick;strokeColor=#000000;fillColor=#000000;" parent="YVLUfFIhRKJOg-uTzJRr-441" vertex="1">
          <mxGeometry x="162.59249999999997" y="3.5" width="19.190000000000005" height="15.5" as="geometry" />
        </mxCell>
        <mxCell id="YVLUfFIhRKJOg-uTzJRr-445" value="" style="endArrow=none;dashed=1;html=1;dashPattern=1 3;strokeWidth=1.8;rounded=0;curved=1;fillColor=#6a00ff;strokeColor=#4C0099;entryX=1;entryY=0.5;entryDx=0;entryDy=0;exitX=0;exitY=0.5;exitDx=0;exitDy=0;" parent="1" source="YVLUfFIhRKJOg-uTzJRr-184" target="YVLUfFIhRKJOg-uTzJRr-427" edge="1">
          <mxGeometry width="50" height="50" relative="1" as="geometry">
            <mxPoint x="335" y="1870.25" as="sourcePoint" />
            <mxPoint x="275" y="1821.25" as="targetPoint" />
            <Array as="points">
              <mxPoint x="295" y="1761.25" />
            </Array>
          </mxGeometry>
        </mxCell>
        <mxCell id="YVLUfFIhRKJOg-uTzJRr-446" value="" style="endArrow=none;dashed=1;html=1;dashPattern=1 3;strokeWidth=1.8;rounded=0;curved=1;fillColor=#6a00ff;strokeColor=#4C0099;entryX=1;entryY=0.5;entryDx=0;entryDy=0;exitX=0;exitY=0.5;exitDx=0;exitDy=0;" parent="1" source="YVLUfFIhRKJOg-uTzJRr-184" target="YVLUfFIhRKJOg-uTzJRr-439" edge="1">
          <mxGeometry width="50" height="50" relative="1" as="geometry">
            <mxPoint x="345" y="1880.25" as="sourcePoint" />
            <mxPoint x="275" y="1851.25" as="targetPoint" />
            <Array as="points">
              <mxPoint x="285" y="1790.25" />
            </Array>
          </mxGeometry>
        </mxCell>
        <mxCell id="YVLUfFIhRKJOg-uTzJRr-447" value="" style="endArrow=none;dashed=1;html=1;dashPattern=1 3;strokeWidth=1.8;rounded=0;curved=1;fillColor=#6a00ff;strokeColor=#4C0099;entryX=1;entryY=0.5;entryDx=0;entryDy=0;exitX=0;exitY=0.5;exitDx=0;exitDy=0;" parent="1" source="YVLUfFIhRKJOg-uTzJRr-184" target="YVLUfFIhRKJOg-uTzJRr-435" edge="1">
          <mxGeometry width="50" height="50" relative="1" as="geometry">
            <mxPoint x="349" y="1881.25" as="sourcePoint" />
            <mxPoint x="275" y="1881.25" as="targetPoint" />
            <Array as="points" />
          </mxGeometry>
        </mxCell>
        <mxCell id="YVLUfFIhRKJOg-uTzJRr-448" value="" style="endArrow=none;dashed=1;html=1;dashPattern=1 3;strokeWidth=1.8;rounded=0;curved=1;fillColor=#6a00ff;strokeColor=#4C0099;entryX=1.061;entryY=0.499;entryDx=0;entryDy=0;exitX=0;exitY=0.5;exitDx=0;exitDy=0;entryPerimeter=0;" parent="1" source="YVLUfFIhRKJOg-uTzJRr-184" target="YVLUfFIhRKJOg-uTzJRr-443" edge="1">
          <mxGeometry width="50" height="50" relative="1" as="geometry">
            <mxPoint x="349" y="1881.25" as="sourcePoint" />
            <mxPoint x="275" y="1911.25" as="targetPoint" />
            <Array as="points">
              <mxPoint x="305" y="1850.25" />
            </Array>
          </mxGeometry>
        </mxCell>
        <mxCell id="YVLUfFIhRKJOg-uTzJRr-449" value="" style="endArrow=none;dashed=1;html=1;dashPattern=1 3;strokeWidth=1.8;rounded=0;curved=1;fillColor=#6a00ff;strokeColor=#4C0099;exitX=1;exitY=0.5;exitDx=0;exitDy=0;entryX=0;entryY=0.5;entryDx=0;entryDy=0;" parent="1" source="YVLUfFIhRKJOg-uTzJRr-184" target="YVLUfFIhRKJOg-uTzJRr-406" edge="1">
          <mxGeometry width="50" height="50" relative="1" as="geometry">
            <mxPoint x="349" y="1881.25" as="sourcePoint" />
            <mxPoint x="275" y="1821.25" as="targetPoint" />
            <Array as="points">
              <mxPoint x="515" y="1760.25" />
            </Array>
          </mxGeometry>
        </mxCell>
        <mxCell id="YVLUfFIhRKJOg-uTzJRr-451" value="" style="endArrow=none;dashed=1;html=1;dashPattern=1 3;strokeWidth=1.8;rounded=0;curved=1;fillColor=#6a00ff;strokeColor=#4C0099;exitX=1;exitY=0.5;exitDx=0;exitDy=0;entryX=0.015;entryY=0.519;entryDx=0;entryDy=0;entryPerimeter=0;" parent="1" source="YVLUfFIhRKJOg-uTzJRr-184" target="YVLUfFIhRKJOg-uTzJRr-410" edge="1">
          <mxGeometry width="50" height="50" relative="1" as="geometry">
            <mxPoint x="509" y="1881.25" as="sourcePoint" />
            <mxPoint x="585" y="1791.25" as="targetPoint" />
            <Array as="points">
              <mxPoint x="535" y="1790.25" />
            </Array>
          </mxGeometry>
        </mxCell>
        <mxCell id="YVLUfFIhRKJOg-uTzJRr-452" value="" style="endArrow=none;dashed=1;html=1;dashPattern=1 3;strokeWidth=1.8;rounded=0;curved=1;fillColor=#6a00ff;strokeColor=#4C0099;exitX=1;exitY=0.5;exitDx=0;exitDy=0;entryX=0;entryY=0.5;entryDx=0;entryDy=0;" parent="1" source="YVLUfFIhRKJOg-uTzJRr-184" target="YVLUfFIhRKJOg-uTzJRr-414" edge="1">
          <mxGeometry width="50" height="50" relative="1" as="geometry">
            <mxPoint x="509" y="1881.25" as="sourcePoint" />
            <mxPoint x="587" y="1822.25" as="targetPoint" />
            <Array as="points">
              <mxPoint x="535" y="1860.25" />
            </Array>
          </mxGeometry>
        </mxCell>
        <mxCell id="YVLUfFIhRKJOg-uTzJRr-454" value="" style="endArrow=none;dashed=1;html=1;dashPattern=1 3;strokeWidth=1.8;rounded=0;curved=1;fillColor=#6a00ff;strokeColor=#4C0099;exitX=1;exitY=0.5;exitDx=0;exitDy=0;entryX=0;entryY=0.5;entryDx=0;entryDy=0;" parent="1" source="YVLUfFIhRKJOg-uTzJRr-184" target="YVLUfFIhRKJOg-uTzJRr-418" edge="1">
          <mxGeometry width="50" height="50" relative="1" as="geometry">
            <mxPoint x="509" y="1881.25" as="sourcePoint" />
            <mxPoint x="585" y="1865.25" as="targetPoint" />
            <Array as="points">
              <mxPoint x="515" y="1880.25" />
            </Array>
          </mxGeometry>
        </mxCell>
        <mxCell id="YVLUfFIhRKJOg-uTzJRr-456" value="" style="endArrow=none;dashed=1;html=1;dashPattern=1 3;strokeWidth=1.8;rounded=0;curved=1;fillColor=#6a00ff;strokeColor=#99004D;exitX=0;exitY=0.5;exitDx=0;exitDy=0;entryX=1;entryY=0.5;entryDx=0;entryDy=0;" parent="1" source="YVLUfFIhRKJOg-uTzJRr-389" target="YVLUfFIhRKJOg-uTzJRr-419" edge="1">
          <mxGeometry width="50" height="50" relative="1" as="geometry">
            <mxPoint x="1295" y="1687.25" as="sourcePoint" />
            <mxPoint x="1177" y="1661.25" as="targetPoint" />
            <Array as="points">
              <mxPoint x="785" y="1840.25" />
            </Array>
          </mxGeometry>
        </mxCell>
        <mxCell id="YVLUfFIhRKJOg-uTzJRr-457" value="" style="endArrow=none;dashed=1;html=1;dashPattern=1 3;strokeWidth=1.8;rounded=0;curved=1;fillColor=#6a00ff;strokeColor=#99004D;exitX=0;exitY=0.5;exitDx=0;exitDy=0;entryX=0.956;entryY=0.568;entryDx=0;entryDy=0;entryPerimeter=0;" parent="1" source="YVLUfFIhRKJOg-uTzJRr-381" target="YVLUfFIhRKJOg-uTzJRr-419" edge="1">
          <mxGeometry width="50" height="50" relative="1" as="geometry">
            <mxPoint x="875" y="1857.25" as="sourcePoint" />
            <mxPoint x="775" y="1901.25" as="targetPoint" />
            <Array as="points">
              <mxPoint x="805" y="1860.25" />
            </Array>
          </mxGeometry>
        </mxCell>
        <mxCell id="YVLUfFIhRKJOg-uTzJRr-458" value="" style="endArrow=none;dashed=1;html=1;dashPattern=1 3;strokeWidth=1.8;rounded=0;curved=1;fillColor=#6a00ff;strokeColor=#99004D;exitX=0;exitY=0.5;exitDx=0;exitDy=0;entryX=1;entryY=0.5;entryDx=0;entryDy=0;" parent="1" source="YVLUfFIhRKJOg-uTzJRr-397" target="YVLUfFIhRKJOg-uTzJRr-419" edge="1">
          <mxGeometry width="50" height="50" relative="1" as="geometry">
            <mxPoint x="875" y="1887.25" as="sourcePoint" />
            <mxPoint x="773" y="1903.25" as="targetPoint" />
            <Array as="points" />
          </mxGeometry>
        </mxCell>
        <mxCell id="YVLUfFIhRKJOg-uTzJRr-459" value="" style="endArrow=none;dashed=1;html=1;dashPattern=1 3;strokeWidth=1.8;rounded=0;curved=1;fillColor=#6a00ff;strokeColor=#99004D;exitX=0;exitY=0.5;exitDx=0;exitDy=0;entryX=1.019;entryY=0.642;entryDx=0;entryDy=0;entryPerimeter=0;" parent="1" source="YVLUfFIhRKJOg-uTzJRr-393" target="YVLUfFIhRKJOg-uTzJRr-419" edge="1">
          <mxGeometry width="50" height="50" relative="1" as="geometry">
            <mxPoint x="875" y="1917.25" as="sourcePoint" />
            <mxPoint x="775" y="1901.25" as="targetPoint" />
            <Array as="points">
              <mxPoint x="805" y="1920.25" />
            </Array>
          </mxGeometry>
        </mxCell>
        <mxCell id="YVLUfFIhRKJOg-uTzJRr-460" value="" style="endArrow=none;dashed=1;html=1;dashPattern=1 3;strokeWidth=1.8;rounded=0;curved=1;fillColor=#6a00ff;strokeColor=#99004D;exitX=0;exitY=0.5;exitDx=0;exitDy=0;entryX=1;entryY=0.5;entryDx=0;entryDy=0;" parent="1" source="YVLUfFIhRKJOg-uTzJRr-401" target="YVLUfFIhRKJOg-uTzJRr-419" edge="1">
          <mxGeometry width="50" height="50" relative="1" as="geometry">
            <mxPoint x="895" y="1931.25" as="sourcePoint" />
            <mxPoint x="776" y="1904.25" as="targetPoint" />
            <Array as="points">
              <mxPoint x="785" y="1940.25" />
            </Array>
          </mxGeometry>
        </mxCell>
        <mxCell id="YVLUfFIhRKJOg-uTzJRr-461" value="" style="group" parent="1" vertex="1" connectable="0">
          <mxGeometry x="115" y="2000.25" width="190" height="22.5" as="geometry" />
        </mxCell>
        <mxCell id="YVLUfFIhRKJOg-uTzJRr-462" value="&lt;font face=&quot;Comic Sans MS&quot;&gt;&lt;b&gt;TCP &amp;amp; UDP Communciations&lt;/b&gt;&lt;/font&gt;" style="rounded=0;whiteSpace=wrap;html=1;fillColor=#FFFF99;fontColor=#000000;strokeColor=#000000;" parent="YVLUfFIhRKJOg-uTzJRr-461" vertex="1">
          <mxGeometry x="-30" width="184.38" height="22.5" as="geometry" />
        </mxCell>
        <mxCell id="YVLUfFIhRKJOg-uTzJRr-463" value="" style="rounded=0;whiteSpace=wrap;html=1;fillColor=#999900;fontColor=#000000;strokeColor=#000000;" parent="YVLUfFIhRKJOg-uTzJRr-461" vertex="1">
          <mxGeometry x="154.375" width="35.625" height="22.5" as="geometry" />
        </mxCell>
        <mxCell id="YVLUfFIhRKJOg-uTzJRr-464" value="" style="verticalLabelPosition=bottom;verticalAlign=top;html=1;shape=mxgraph.basic.tick;strokeColor=#000000;fillColor=#000000;" parent="YVLUfFIhRKJOg-uTzJRr-461" vertex="1">
          <mxGeometry x="162.59249999999997" y="3.5" width="19.190000000000005" height="15.5" as="geometry" />
        </mxCell>
        <mxCell id="YVLUfFIhRKJOg-uTzJRr-469" value="" style="group" parent="1" vertex="1" connectable="0">
          <mxGeometry x="115" y="2030.25" width="190" height="22.5" as="geometry" />
        </mxCell>
        <mxCell id="YVLUfFIhRKJOg-uTzJRr-470" value="&lt;font face=&quot;Comic Sans MS&quot;&gt;&lt;b&gt;Multi-Client Handling&lt;/b&gt;&lt;/font&gt;" style="rounded=0;whiteSpace=wrap;html=1;fillColor=#FFFF99;fontColor=#000000;strokeColor=#000000;" parent="YVLUfFIhRKJOg-uTzJRr-469" vertex="1">
          <mxGeometry x="-30" width="184.38" height="22.5" as="geometry" />
        </mxCell>
        <mxCell id="YVLUfFIhRKJOg-uTzJRr-471" value="" style="rounded=0;whiteSpace=wrap;html=1;fillColor=#999900;fontColor=#000000;strokeColor=#000000;" parent="YVLUfFIhRKJOg-uTzJRr-469" vertex="1">
          <mxGeometry x="154.375" width="35.625" height="22.5" as="geometry" />
        </mxCell>
        <mxCell id="YVLUfFIhRKJOg-uTzJRr-472" value="" style="verticalLabelPosition=bottom;verticalAlign=top;html=1;shape=mxgraph.basic.tick;strokeColor=#000000;fillColor=#000000;" parent="YVLUfFIhRKJOg-uTzJRr-469" vertex="1">
          <mxGeometry x="162.59249999999997" y="3.5" width="19.190000000000005" height="15.5" as="geometry" />
        </mxCell>
        <mxCell id="YVLUfFIhRKJOg-uTzJRr-477" value="" style="group" parent="1" vertex="1" connectable="0">
          <mxGeometry x="115" y="2060.25" width="190" height="22.5" as="geometry" />
        </mxCell>
        <mxCell id="YVLUfFIhRKJOg-uTzJRr-478" value="&lt;font face=&quot;Comic Sans MS&quot;&gt;&lt;b&gt;Networking Utilities&lt;/b&gt;&lt;/font&gt;" style="rounded=0;whiteSpace=wrap;html=1;fillColor=#FFFF99;fontColor=#000000;strokeColor=#000000;" parent="YVLUfFIhRKJOg-uTzJRr-477" vertex="1">
          <mxGeometry x="-30" width="184.38" height="22.5" as="geometry" />
        </mxCell>
        <mxCell id="YVLUfFIhRKJOg-uTzJRr-479" value="" style="rounded=0;whiteSpace=wrap;html=1;fillColor=#999900;fontColor=#000000;strokeColor=#000000;" parent="YVLUfFIhRKJOg-uTzJRr-477" vertex="1">
          <mxGeometry x="154.375" width="35.625" height="22.5" as="geometry" />
        </mxCell>
        <mxCell id="YVLUfFIhRKJOg-uTzJRr-480" value="" style="verticalLabelPosition=bottom;verticalAlign=top;html=1;shape=mxgraph.basic.tick;strokeColor=#000000;fillColor=#000000;" parent="YVLUfFIhRKJOg-uTzJRr-477" vertex="1">
          <mxGeometry x="162.59249999999997" y="3.5" width="19.190000000000005" height="15.5" as="geometry" />
        </mxCell>
        <mxCell id="YVLUfFIhRKJOg-uTzJRr-481" value="" style="group" parent="1" vertex="1" connectable="0">
          <mxGeometry x="115" y="2090.25" width="190" height="22.5" as="geometry" />
        </mxCell>
        <mxCell id="YVLUfFIhRKJOg-uTzJRr-482" value="&lt;font face=&quot;Comic Sans MS&quot;&gt;&lt;b&gt;Secure Networking (SSL/TSL)&lt;/b&gt;&lt;/font&gt;" style="rounded=0;whiteSpace=wrap;html=1;fillColor=#FFFF99;fontColor=#000000;strokeColor=#000000;" parent="YVLUfFIhRKJOg-uTzJRr-481" vertex="1">
          <mxGeometry x="-30" width="184.38" height="22.5" as="geometry" />
        </mxCell>
        <mxCell id="YVLUfFIhRKJOg-uTzJRr-483" value="" style="rounded=0;whiteSpace=wrap;html=1;fillColor=#999900;fontColor=#000000;strokeColor=#000000;" parent="YVLUfFIhRKJOg-uTzJRr-481" vertex="1">
          <mxGeometry x="154.375" width="35.625" height="22.5" as="geometry" />
        </mxCell>
        <mxCell id="YVLUfFIhRKJOg-uTzJRr-484" value="" style="verticalLabelPosition=bottom;verticalAlign=top;html=1;shape=mxgraph.basic.tick;strokeColor=#000000;fillColor=#000000;" parent="YVLUfFIhRKJOg-uTzJRr-481" vertex="1">
          <mxGeometry x="162.59249999999997" y="3.5" width="19.190000000000005" height="15.5" as="geometry" />
        </mxCell>
        <mxCell id="YVLUfFIhRKJOg-uTzJRr-485" value="" style="endArrow=none;dashed=1;html=1;dashPattern=1 3;strokeWidth=1.8;rounded=0;curved=1;fillColor=#6a00ff;strokeColor=#99004D;exitX=0.5;exitY=0;exitDx=0;exitDy=0;entryX=0.5;entryY=1;entryDx=0;entryDy=0;" parent="1" source="YVLUfFIhRKJOg-uTzJRr-462" target="YVLUfFIhRKJOg-uTzJRr-422" edge="1">
          <mxGeometry width="50" height="50" relative="1" as="geometry">
            <mxPoint x="257" y="2071.5" as="sourcePoint" />
            <mxPoint x="252" y="2010.25" as="targetPoint" />
            <Array as="points">
              <mxPoint x="175" y="1980.25" />
              <mxPoint x="245" y="1980.25" />
            </Array>
          </mxGeometry>
        </mxCell>
        <mxCell id="YVLUfFIhRKJOg-uTzJRr-492" value="" style="endArrow=none;dashed=1;html=1;dashPattern=1 3;strokeWidth=1.8;rounded=0;curved=1;fillColor=#6a00ff;strokeColor=#3700CC;exitX=0.51;exitY=-0.083;exitDx=0;exitDy=0;entryX=0.251;entryY=1.072;entryDx=0;entryDy=0;entryPerimeter=0;exitPerimeter=0;" parent="1" source="YVLUfFIhRKJOg-uTzJRr-422" target="YVLUfFIhRKJOg-uTzJRr-184" edge="1">
          <mxGeometry width="50" height="50" relative="1" as="geometry">
            <mxPoint x="187" y="2010.25" as="sourcePoint" />
            <mxPoint x="252" y="1973.25" as="targetPoint" />
            <Array as="points">
              <mxPoint x="245" y="1920.25" />
              <mxPoint x="325" y="1920.25" />
              <mxPoint x="375" y="1920.25" />
            </Array>
          </mxGeometry>
        </mxCell>
        <mxCell id="YVLUfFIhRKJOg-uTzJRr-493" value="" style="group" parent="1" vertex="1" connectable="0">
          <mxGeometry x="1145" y="1685.25" width="190" height="22.5" as="geometry" />
        </mxCell>
        <mxCell id="YVLUfFIhRKJOg-uTzJRr-494" value="&lt;font face=&quot;Comic Sans MS&quot;&gt;&lt;b&gt;Searching Algorithms&lt;/b&gt;&lt;/font&gt;" style="rounded=0;whiteSpace=wrap;html=1;fillColor=#FFFF99;fontColor=#000000;strokeColor=#000000;" parent="YVLUfFIhRKJOg-uTzJRr-493" vertex="1">
          <mxGeometry width="154.375" height="22.5" as="geometry" />
        </mxCell>
        <mxCell id="YVLUfFIhRKJOg-uTzJRr-495" value="" style="rounded=0;whiteSpace=wrap;html=1;fillColor=#999900;fontColor=#000000;strokeColor=#000000;" parent="YVLUfFIhRKJOg-uTzJRr-493" vertex="1">
          <mxGeometry x="154.375" width="35.625" height="22.5" as="geometry" />
        </mxCell>
        <mxCell id="YVLUfFIhRKJOg-uTzJRr-496" value="" style="verticalLabelPosition=bottom;verticalAlign=top;html=1;shape=mxgraph.basic.tick;strokeColor=#000000;fillColor=#000000;" parent="YVLUfFIhRKJOg-uTzJRr-493" vertex="1">
          <mxGeometry x="162.59249999999997" y="3.5" width="19.190000000000005" height="15.5" as="geometry" />
        </mxCell>
        <mxCell id="YVLUfFIhRKJOg-uTzJRr-497" value="" style="group" parent="1" vertex="1" connectable="0">
          <mxGeometry x="1145" y="1804.25" width="190" height="22.5" as="geometry" />
        </mxCell>
        <mxCell id="YVLUfFIhRKJOg-uTzJRr-498" value="&lt;font face=&quot;Comic Sans MS&quot;&gt;&lt;b&gt;Sorting Algorithms&lt;/b&gt;&lt;/font&gt;" style="rounded=0;whiteSpace=wrap;html=1;fillColor=#FFFF99;fontColor=#000000;strokeColor=#000000;" parent="YVLUfFIhRKJOg-uTzJRr-497" vertex="1">
          <mxGeometry width="154.375" height="22.5" as="geometry" />
        </mxCell>
        <mxCell id="YVLUfFIhRKJOg-uTzJRr-499" value="" style="rounded=0;whiteSpace=wrap;html=1;fillColor=#999900;fontColor=#000000;strokeColor=#000000;" parent="YVLUfFIhRKJOg-uTzJRr-497" vertex="1">
          <mxGeometry x="154.375" width="35.625" height="22.5" as="geometry" />
        </mxCell>
        <mxCell id="YVLUfFIhRKJOg-uTzJRr-500" value="" style="verticalLabelPosition=bottom;verticalAlign=top;html=1;shape=mxgraph.basic.tick;strokeColor=#000000;fillColor=#000000;" parent="YVLUfFIhRKJOg-uTzJRr-497" vertex="1">
          <mxGeometry x="162.59249999999997" y="3.5" width="19.190000000000005" height="15.5" as="geometry" />
        </mxCell>
        <mxCell id="YVLUfFIhRKJOg-uTzJRr-501" value="" style="group" parent="1" vertex="1" connectable="0">
          <mxGeometry x="1145" y="1940.25" width="190" height="22.5" as="geometry" />
        </mxCell>
        <mxCell id="YVLUfFIhRKJOg-uTzJRr-502" value="&lt;font face=&quot;Comic Sans MS&quot;&gt;&lt;b&gt;Graph Algorithms&lt;/b&gt;&lt;/font&gt;" style="rounded=0;whiteSpace=wrap;html=1;fillColor=#FFFF99;fontColor=#000000;strokeColor=#000000;" parent="YVLUfFIhRKJOg-uTzJRr-501" vertex="1">
          <mxGeometry width="154.375" height="22.5" as="geometry" />
        </mxCell>
        <mxCell id="YVLUfFIhRKJOg-uTzJRr-503" value="" style="rounded=0;whiteSpace=wrap;html=1;fillColor=#999900;fontColor=#000000;strokeColor=#000000;" parent="YVLUfFIhRKJOg-uTzJRr-501" vertex="1">
          <mxGeometry x="154.375" width="35.625" height="22.5" as="geometry" />
        </mxCell>
        <mxCell id="YVLUfFIhRKJOg-uTzJRr-504" value="" style="verticalLabelPosition=bottom;verticalAlign=top;html=1;shape=mxgraph.basic.tick;strokeColor=#000000;fillColor=#000000;" parent="YVLUfFIhRKJOg-uTzJRr-501" vertex="1">
          <mxGeometry x="162.59249999999997" y="3.5" width="19.190000000000005" height="15.5" as="geometry" />
        </mxCell>
        <mxCell id="YVLUfFIhRKJOg-uTzJRr-505" value="&lt;font face=&quot;Comic Sans MS&quot;&gt;&lt;b&gt;Basic Algorithms&lt;/b&gt;&lt;/font&gt;" style="rounded=0;whiteSpace=wrap;html=1;fillColor=#FFFF33;fontColor=#000000;strokeColor=#000000;" parent="1" vertex="1">
          <mxGeometry x="850" y="1685.25" width="160" height="22.5" as="geometry" />
        </mxCell>
        <mxCell id="YVLUfFIhRKJOg-uTzJRr-506" value="" style="group" parent="1" vertex="1" connectable="0">
          <mxGeometry x="1425" y="1670.25" width="190" height="22.5" as="geometry" />
        </mxCell>
        <mxCell id="YVLUfFIhRKJOg-uTzJRr-507" value="&lt;font face=&quot;Comic Sans MS&quot;&gt;&lt;b&gt;Linear Search&amp;nbsp;&lt;/b&gt;&lt;/font&gt;" style="rounded=0;whiteSpace=wrap;html=1;fillColor=#FFFF99;fontColor=#000000;strokeColor=#000000;" parent="YVLUfFIhRKJOg-uTzJRr-506" vertex="1">
          <mxGeometry width="154.375" height="22.5" as="geometry" />
        </mxCell>
        <mxCell id="YVLUfFIhRKJOg-uTzJRr-508" value="" style="rounded=0;whiteSpace=wrap;html=1;fillColor=#999900;fontColor=#000000;strokeColor=#000000;" parent="YVLUfFIhRKJOg-uTzJRr-506" vertex="1">
          <mxGeometry x="154.375" width="35.625" height="22.5" as="geometry" />
        </mxCell>
        <mxCell id="YVLUfFIhRKJOg-uTzJRr-509" value="" style="verticalLabelPosition=bottom;verticalAlign=top;html=1;shape=mxgraph.basic.tick;strokeColor=#000000;fillColor=#000000;" parent="YVLUfFIhRKJOg-uTzJRr-506" vertex="1">
          <mxGeometry x="162.59249999999997" y="3.5" width="19.190000000000005" height="15.5" as="geometry" />
        </mxCell>
        <mxCell id="YVLUfFIhRKJOg-uTzJRr-510" value="" style="group" parent="1" vertex="1" connectable="0">
          <mxGeometry x="1425" y="1699.25" width="190" height="22.5" as="geometry" />
        </mxCell>
        <mxCell id="YVLUfFIhRKJOg-uTzJRr-511" value="&lt;font face=&quot;Comic Sans MS&quot;&gt;&lt;b&gt;Binary Search&lt;/b&gt;&lt;/font&gt;" style="rounded=0;whiteSpace=wrap;html=1;fillColor=#FFFF99;fontColor=#000000;strokeColor=#000000;" parent="YVLUfFIhRKJOg-uTzJRr-510" vertex="1">
          <mxGeometry width="154.375" height="22.5" as="geometry" />
        </mxCell>
        <mxCell id="YVLUfFIhRKJOg-uTzJRr-512" value="" style="rounded=0;whiteSpace=wrap;html=1;fillColor=#999900;fontColor=#000000;strokeColor=#000000;" parent="YVLUfFIhRKJOg-uTzJRr-510" vertex="1">
          <mxGeometry x="154.375" width="35.625" height="22.5" as="geometry" />
        </mxCell>
        <mxCell id="YVLUfFIhRKJOg-uTzJRr-513" value="" style="verticalLabelPosition=bottom;verticalAlign=top;html=1;shape=mxgraph.basic.tick;strokeColor=#000000;fillColor=#000000;" parent="YVLUfFIhRKJOg-uTzJRr-510" vertex="1">
          <mxGeometry x="162.59249999999997" y="3.5" width="19.190000000000005" height="15.5" as="geometry" />
        </mxCell>
        <mxCell id="YVLUfFIhRKJOg-uTzJRr-524" value="" style="group" parent="1" vertex="1" connectable="0">
          <mxGeometry x="1425" y="1744.25" width="190" height="22.5" as="geometry" />
        </mxCell>
        <mxCell id="YVLUfFIhRKJOg-uTzJRr-525" value="&lt;font face=&quot;Comic Sans MS&quot;&gt;&lt;b&gt;Buble Sort&lt;/b&gt;&lt;/font&gt;" style="rounded=0;whiteSpace=wrap;html=1;fillColor=#FFFF99;fontColor=#000000;strokeColor=#000000;" parent="YVLUfFIhRKJOg-uTzJRr-524" vertex="1">
          <mxGeometry width="154.375" height="22.5" as="geometry" />
        </mxCell>
        <mxCell id="YVLUfFIhRKJOg-uTzJRr-526" value="" style="rounded=0;whiteSpace=wrap;html=1;fillColor=#999900;fontColor=#000000;strokeColor=#000000;" parent="YVLUfFIhRKJOg-uTzJRr-524" vertex="1">
          <mxGeometry x="154.375" width="35.625" height="22.5" as="geometry" />
        </mxCell>
        <mxCell id="YVLUfFIhRKJOg-uTzJRr-527" value="" style="verticalLabelPosition=bottom;verticalAlign=top;html=1;shape=mxgraph.basic.tick;strokeColor=#000000;fillColor=#000000;" parent="YVLUfFIhRKJOg-uTzJRr-524" vertex="1">
          <mxGeometry x="162.59249999999997" y="3.5" width="19.190000000000005" height="15.5" as="geometry" />
        </mxCell>
        <mxCell id="YVLUfFIhRKJOg-uTzJRr-528" value="" style="group" parent="1" vertex="1" connectable="0">
          <mxGeometry x="1425" y="1773.25" width="190" height="22.5" as="geometry" />
        </mxCell>
        <mxCell id="YVLUfFIhRKJOg-uTzJRr-529" value="&lt;font face=&quot;Comic Sans MS&quot;&gt;&lt;b&gt;Selection Sort&lt;/b&gt;&lt;/font&gt;" style="rounded=0;whiteSpace=wrap;html=1;fillColor=#FFFF99;fontColor=#000000;strokeColor=#000000;" parent="YVLUfFIhRKJOg-uTzJRr-528" vertex="1">
          <mxGeometry width="154.375" height="22.5" as="geometry" />
        </mxCell>
        <mxCell id="YVLUfFIhRKJOg-uTzJRr-530" value="" style="rounded=0;whiteSpace=wrap;html=1;fillColor=#999900;fontColor=#000000;strokeColor=#000000;" parent="YVLUfFIhRKJOg-uTzJRr-528" vertex="1">
          <mxGeometry x="154.375" width="35.625" height="22.5" as="geometry" />
        </mxCell>
        <mxCell id="YVLUfFIhRKJOg-uTzJRr-531" value="" style="verticalLabelPosition=bottom;verticalAlign=top;html=1;shape=mxgraph.basic.tick;strokeColor=#000000;fillColor=#000000;" parent="YVLUfFIhRKJOg-uTzJRr-528" vertex="1">
          <mxGeometry x="162.59249999999997" y="3.5" width="19.190000000000005" height="15.5" as="geometry" />
        </mxCell>
        <mxCell id="YVLUfFIhRKJOg-uTzJRr-532" value="" style="group" parent="1" vertex="1" connectable="0">
          <mxGeometry x="1425" y="1802.25" width="190" height="22.5" as="geometry" />
        </mxCell>
        <mxCell id="YVLUfFIhRKJOg-uTzJRr-533" value="&lt;font face=&quot;Comic Sans MS&quot;&gt;&lt;b&gt;Insertion Sort&lt;/b&gt;&lt;/font&gt;" style="rounded=0;whiteSpace=wrap;html=1;fillColor=#FFFF99;fontColor=#000000;strokeColor=#000000;" parent="YVLUfFIhRKJOg-uTzJRr-532" vertex="1">
          <mxGeometry width="154.375" height="22.5" as="geometry" />
        </mxCell>
        <mxCell id="YVLUfFIhRKJOg-uTzJRr-534" value="" style="rounded=0;whiteSpace=wrap;html=1;fillColor=#999900;fontColor=#000000;strokeColor=#000000;" parent="YVLUfFIhRKJOg-uTzJRr-532" vertex="1">
          <mxGeometry x="154.375" width="35.625" height="22.5" as="geometry" />
        </mxCell>
        <mxCell id="YVLUfFIhRKJOg-uTzJRr-535" value="" style="verticalLabelPosition=bottom;verticalAlign=top;html=1;shape=mxgraph.basic.tick;strokeColor=#000000;fillColor=#000000;" parent="YVLUfFIhRKJOg-uTzJRr-532" vertex="1">
          <mxGeometry x="162.59249999999997" y="3.5" width="19.190000000000005" height="15.5" as="geometry" />
        </mxCell>
        <mxCell id="YVLUfFIhRKJOg-uTzJRr-536" value="" style="group" parent="1" vertex="1" connectable="0">
          <mxGeometry x="1425" y="1831.25" width="190" height="22.5" as="geometry" />
        </mxCell>
        <mxCell id="YVLUfFIhRKJOg-uTzJRr-537" value="&lt;font face=&quot;Comic Sans MS&quot;&gt;&lt;b&gt;Merge Sort&lt;/b&gt;&lt;/font&gt;" style="rounded=0;whiteSpace=wrap;html=1;fillColor=#FFFF99;fontColor=#000000;strokeColor=#000000;" parent="YVLUfFIhRKJOg-uTzJRr-536" vertex="1">
          <mxGeometry width="154.375" height="22.5" as="geometry" />
        </mxCell>
        <mxCell id="YVLUfFIhRKJOg-uTzJRr-538" value="" style="rounded=0;whiteSpace=wrap;html=1;fillColor=#999900;fontColor=#000000;strokeColor=#000000;" parent="YVLUfFIhRKJOg-uTzJRr-536" vertex="1">
          <mxGeometry x="154.375" width="35.625" height="22.5" as="geometry" />
        </mxCell>
        <mxCell id="YVLUfFIhRKJOg-uTzJRr-539" value="" style="verticalLabelPosition=bottom;verticalAlign=top;html=1;shape=mxgraph.basic.tick;strokeColor=#000000;fillColor=#000000;" parent="YVLUfFIhRKJOg-uTzJRr-536" vertex="1">
          <mxGeometry x="162.59249999999997" y="3.5" width="19.190000000000005" height="15.5" as="geometry" />
        </mxCell>
        <mxCell id="YVLUfFIhRKJOg-uTzJRr-540" value="" style="group" parent="1" vertex="1" connectable="0">
          <mxGeometry x="1425" y="1860.25" width="190" height="22.5" as="geometry" />
        </mxCell>
        <mxCell id="YVLUfFIhRKJOg-uTzJRr-541" value="&lt;font face=&quot;Comic Sans MS&quot;&gt;&lt;b&gt;Quick Sort&lt;/b&gt;&lt;/font&gt;" style="rounded=0;whiteSpace=wrap;html=1;fillColor=#FFFF99;fontColor=#000000;strokeColor=#000000;" parent="YVLUfFIhRKJOg-uTzJRr-540" vertex="1">
          <mxGeometry width="154.375" height="22.5" as="geometry" />
        </mxCell>
        <mxCell id="YVLUfFIhRKJOg-uTzJRr-542" value="" style="rounded=0;whiteSpace=wrap;html=1;fillColor=#999900;fontColor=#000000;strokeColor=#000000;" parent="YVLUfFIhRKJOg-uTzJRr-540" vertex="1">
          <mxGeometry x="154.375" width="35.625" height="22.5" as="geometry" />
        </mxCell>
        <mxCell id="YVLUfFIhRKJOg-uTzJRr-543" value="" style="verticalLabelPosition=bottom;verticalAlign=top;html=1;shape=mxgraph.basic.tick;strokeColor=#000000;fillColor=#000000;" parent="YVLUfFIhRKJOg-uTzJRr-540" vertex="1">
          <mxGeometry x="162.59249999999997" y="3.5" width="19.190000000000005" height="15.5" as="geometry" />
        </mxCell>
        <mxCell id="YVLUfFIhRKJOg-uTzJRr-544" value="" style="group" parent="1" vertex="1" connectable="0">
          <mxGeometry x="1425" y="1910.25" width="190" height="22.5" as="geometry" />
        </mxCell>
        <mxCell id="YVLUfFIhRKJOg-uTzJRr-545" value="&lt;font face=&quot;Comic Sans MS&quot;&gt;&lt;b&gt;Depth-First Search(DFS)&lt;/b&gt;&lt;/font&gt;" style="rounded=0;whiteSpace=wrap;html=1;fillColor=#FFFF99;fontColor=#000000;strokeColor=#000000;" parent="YVLUfFIhRKJOg-uTzJRr-544" vertex="1">
          <mxGeometry width="154.375" height="22.5" as="geometry" />
        </mxCell>
        <mxCell id="YVLUfFIhRKJOg-uTzJRr-546" value="" style="rounded=0;whiteSpace=wrap;html=1;fillColor=#999900;fontColor=#000000;strokeColor=#000000;" parent="YVLUfFIhRKJOg-uTzJRr-544" vertex="1">
          <mxGeometry x="154.375" width="35.625" height="22.5" as="geometry" />
        </mxCell>
        <mxCell id="YVLUfFIhRKJOg-uTzJRr-547" value="" style="verticalLabelPosition=bottom;verticalAlign=top;html=1;shape=mxgraph.basic.tick;strokeColor=#000000;fillColor=#000000;" parent="YVLUfFIhRKJOg-uTzJRr-544" vertex="1">
          <mxGeometry x="162.59249999999997" y="3.5" width="19.190000000000005" height="15.5" as="geometry" />
        </mxCell>
        <mxCell id="YVLUfFIhRKJOg-uTzJRr-548" value="" style="group" parent="1" vertex="1" connectable="0">
          <mxGeometry x="1425" y="1939.25" width="190" height="22.5" as="geometry" />
        </mxCell>
        <mxCell id="YVLUfFIhRKJOg-uTzJRr-549" value="&lt;font face=&quot;Comic Sans MS&quot;&gt;&lt;b&gt;Bread-First Search(BFS)&lt;/b&gt;&lt;/font&gt;" style="rounded=0;whiteSpace=wrap;html=1;fillColor=#FFFF99;fontColor=#000000;strokeColor=#000000;" parent="YVLUfFIhRKJOg-uTzJRr-548" vertex="1">
          <mxGeometry width="154.375" height="22.5" as="geometry" />
        </mxCell>
        <mxCell id="YVLUfFIhRKJOg-uTzJRr-550" value="" style="rounded=0;whiteSpace=wrap;html=1;fillColor=#999900;fontColor=#000000;strokeColor=#000000;" parent="YVLUfFIhRKJOg-uTzJRr-548" vertex="1">
          <mxGeometry x="154.375" width="35.625" height="22.5" as="geometry" />
        </mxCell>
        <mxCell id="YVLUfFIhRKJOg-uTzJRr-551" value="" style="verticalLabelPosition=bottom;verticalAlign=top;html=1;shape=mxgraph.basic.tick;strokeColor=#000000;fillColor=#000000;" parent="YVLUfFIhRKJOg-uTzJRr-548" vertex="1">
          <mxGeometry x="162.59249999999997" y="3.5" width="19.190000000000005" height="15.5" as="geometry" />
        </mxCell>
        <mxCell id="YVLUfFIhRKJOg-uTzJRr-552" value="" style="group" parent="1" vertex="1" connectable="0">
          <mxGeometry x="1425" y="1968.25" width="190" height="22.5" as="geometry" />
        </mxCell>
        <mxCell id="YVLUfFIhRKJOg-uTzJRr-553" value="&lt;font face=&quot;Comic Sans MS&quot;&gt;&lt;b&gt;Dijkstra&#39;s Algorithm&lt;/b&gt;&lt;/font&gt;" style="rounded=0;whiteSpace=wrap;html=1;fillColor=#FFFF99;fontColor=#000000;strokeColor=#000000;" parent="YVLUfFIhRKJOg-uTzJRr-552" vertex="1">
          <mxGeometry width="154.375" height="22.5" as="geometry" />
        </mxCell>
        <mxCell id="YVLUfFIhRKJOg-uTzJRr-554" value="" style="rounded=0;whiteSpace=wrap;html=1;fillColor=#999900;fontColor=#000000;strokeColor=#000000;" parent="YVLUfFIhRKJOg-uTzJRr-552" vertex="1">
          <mxGeometry x="154.375" width="35.625" height="22.5" as="geometry" />
        </mxCell>
        <mxCell id="YVLUfFIhRKJOg-uTzJRr-555" value="" style="verticalLabelPosition=bottom;verticalAlign=top;html=1;shape=mxgraph.basic.tick;strokeColor=#000000;fillColor=#000000;" parent="YVLUfFIhRKJOg-uTzJRr-552" vertex="1">
          <mxGeometry x="162.59249999999997" y="3.5" width="19.190000000000005" height="15.5" as="geometry" />
        </mxCell>
        <mxCell id="YVLUfFIhRKJOg-uTzJRr-556" value="" style="endArrow=none;dashed=1;html=1;dashPattern=1 3;strokeWidth=1.8;rounded=0;curved=1;fillColor=#6a00ff;strokeColor=#4C0099;exitX=1;exitY=0.5;exitDx=0;exitDy=0;entryX=0;entryY=0.5;entryDx=0;entryDy=0;" parent="1" source="YVLUfFIhRKJOg-uTzJRr-505" target="YVLUfFIhRKJOg-uTzJRr-494" edge="1">
          <mxGeometry width="50" height="50" relative="1" as="geometry">
            <mxPoint x="1110" y="1501.25" as="sourcePoint" />
            <mxPoint x="1192" y="1571.25" as="targetPoint" />
            <Array as="points" />
          </mxGeometry>
        </mxCell>
        <mxCell id="YVLUfFIhRKJOg-uTzJRr-557" value="" style="endArrow=none;dashed=1;html=1;dashPattern=1 3;strokeWidth=1.8;rounded=0;curved=1;fillColor=#6a00ff;strokeColor=#4C0099;exitX=1;exitY=0.5;exitDx=0;exitDy=0;entryX=0.005;entryY=0.622;entryDx=0;entryDy=0;entryPerimeter=0;" parent="1" source="YVLUfFIhRKJOg-uTzJRr-505" target="YVLUfFIhRKJOg-uTzJRr-502" edge="1">
          <mxGeometry width="50" height="50" relative="1" as="geometry">
            <mxPoint x="1165" y="1825.25" as="sourcePoint" />
            <mxPoint x="1252" y="1706.25" as="targetPoint" />
            <Array as="points">
              <mxPoint x="1075" y="1720.25" />
              <mxPoint x="1095" y="1954.25" />
            </Array>
          </mxGeometry>
        </mxCell>
        <mxCell id="YVLUfFIhRKJOg-uTzJRr-558" value="" style="endArrow=none;dashed=1;html=1;dashPattern=1 3;strokeWidth=1.8;rounded=0;curved=1;fillColor=#6a00ff;strokeColor=#4C0099;entryX=0;entryY=0.5;entryDx=0;entryDy=0;exitX=1;exitY=0.5;exitDx=0;exitDy=0;" parent="1" source="YVLUfFIhRKJOg-uTzJRr-505" target="YVLUfFIhRKJOg-uTzJRr-498" edge="1">
          <mxGeometry width="50" height="50" relative="1" as="geometry">
            <mxPoint x="1152" y="1820.25" as="sourcePoint" />
            <mxPoint x="1253" y="1964.25" as="targetPoint" />
            <Array as="points">
              <mxPoint x="1075" y="1690.25" />
              <mxPoint x="1105" y="1815.25" />
            </Array>
          </mxGeometry>
        </mxCell>
        <mxCell id="YVLUfFIhRKJOg-uTzJRr-560" value="" style="endArrow=none;dashed=1;html=1;dashPattern=1 3;strokeWidth=1.8;rounded=0;curved=1;fillColor=#6a00ff;strokeColor=#99004D;exitX=0;exitY=0.5;exitDx=0;exitDy=0;entryX=1;entryY=0.5;entryDx=0;entryDy=0;" parent="1" source="YVLUfFIhRKJOg-uTzJRr-507" target="YVLUfFIhRKJOg-uTzJRr-495" edge="1">
          <mxGeometry width="50" height="50" relative="1" as="geometry">
            <mxPoint x="1373.69" y="1707.75" as="sourcePoint" />
            <mxPoint x="1303.69" y="1647.75" as="targetPoint" />
            <Array as="points">
              <mxPoint x="1375" y="1680.25" />
            </Array>
          </mxGeometry>
        </mxCell>
        <mxCell id="YVLUfFIhRKJOg-uTzJRr-562" value="" style="endArrow=none;dashed=1;html=1;dashPattern=1 3;strokeWidth=1.8;rounded=0;curved=1;fillColor=#6a00ff;strokeColor=#99004D;exitX=0;exitY=0.5;exitDx=0;exitDy=0;entryX=1;entryY=0.5;entryDx=0;entryDy=0;" parent="1" source="YVLUfFIhRKJOg-uTzJRr-511" target="YVLUfFIhRKJOg-uTzJRr-495" edge="1">
          <mxGeometry width="50" height="50" relative="1" as="geometry">
            <mxPoint x="1435" y="1691.25" as="sourcePoint" />
            <mxPoint x="1345" y="1706.25" as="targetPoint" />
            <Array as="points">
              <mxPoint x="1375" y="1710.25" />
            </Array>
          </mxGeometry>
        </mxCell>
        <mxCell id="YVLUfFIhRKJOg-uTzJRr-563" value="" style="endArrow=none;dashed=1;html=1;dashPattern=1 3;strokeWidth=1.8;rounded=0;curved=1;fillColor=#6a00ff;strokeColor=#99004D;exitX=-0.015;exitY=0.541;exitDx=0;exitDy=0;entryX=1;entryY=0.5;entryDx=0;entryDy=0;exitPerimeter=0;" parent="1" source="YVLUfFIhRKJOg-uTzJRr-525" target="YVLUfFIhRKJOg-uTzJRr-499" edge="1">
          <mxGeometry width="50" height="50" relative="1" as="geometry">
            <mxPoint x="1435" y="1720.25" as="sourcePoint" />
            <mxPoint x="1345" y="1706.25" as="targetPoint" />
            <Array as="points">
              <mxPoint x="1365" y="1750.25" />
            </Array>
          </mxGeometry>
        </mxCell>
        <mxCell id="YVLUfFIhRKJOg-uTzJRr-564" value="" style="endArrow=none;dashed=1;html=1;dashPattern=1 3;strokeWidth=1.8;rounded=0;curved=1;fillColor=#6a00ff;strokeColor=#99004D;exitX=0;exitY=0.5;exitDx=0;exitDy=0;entryX=1;entryY=0.5;entryDx=0;entryDy=0;" parent="1" source="YVLUfFIhRKJOg-uTzJRr-529" target="YVLUfFIhRKJOg-uTzJRr-499" edge="1">
          <mxGeometry width="50" height="50" relative="1" as="geometry">
            <mxPoint x="1433" y="1768.25" as="sourcePoint" />
            <mxPoint x="1345" y="1825.25" as="targetPoint" />
            <Array as="points">
              <mxPoint x="1385" y="1780.25" />
            </Array>
          </mxGeometry>
        </mxCell>
        <mxCell id="YVLUfFIhRKJOg-uTzJRr-565" value="" style="endArrow=none;dashed=1;html=1;dashPattern=1 3;strokeWidth=1.8;rounded=0;curved=1;fillColor=#6a00ff;strokeColor=#99004D;exitX=-0.001;exitY=0.593;exitDx=0;exitDy=0;entryX=1;entryY=0.5;entryDx=0;entryDy=0;exitPerimeter=0;" parent="1" source="YVLUfFIhRKJOg-uTzJRr-533" target="YVLUfFIhRKJOg-uTzJRr-499" edge="1">
          <mxGeometry width="50" height="50" relative="1" as="geometry">
            <mxPoint x="1435" y="1796.25" as="sourcePoint" />
            <mxPoint x="1345" y="1825.25" as="targetPoint" />
            <Array as="points" />
          </mxGeometry>
        </mxCell>
        <mxCell id="YVLUfFIhRKJOg-uTzJRr-566" value="" style="endArrow=none;dashed=1;html=1;dashPattern=1 3;strokeWidth=1.8;rounded=0;curved=1;fillColor=#6a00ff;strokeColor=#99004D;exitX=0;exitY=0.5;exitDx=0;exitDy=0;entryX=1;entryY=0.5;entryDx=0;entryDy=0;" parent="1" source="YVLUfFIhRKJOg-uTzJRr-537" target="YVLUfFIhRKJOg-uTzJRr-499" edge="1">
          <mxGeometry width="50" height="50" relative="1" as="geometry">
            <mxPoint x="1435" y="1825.25" as="sourcePoint" />
            <mxPoint x="1345" y="1825.25" as="targetPoint" />
            <Array as="points">
              <mxPoint x="1375" y="1850.25" />
            </Array>
          </mxGeometry>
        </mxCell>
        <mxCell id="YVLUfFIhRKJOg-uTzJRr-568" value="" style="endArrow=none;dashed=1;html=1;dashPattern=1 3;strokeWidth=1.8;rounded=0;curved=1;fillColor=#6a00ff;strokeColor=#99004D;exitX=0;exitY=0.5;exitDx=0;exitDy=0;entryX=1;entryY=0.5;entryDx=0;entryDy=0;" parent="1" edge="1">
          <mxGeometry width="50" height="50" relative="1" as="geometry">
            <mxPoint x="1425" y="1871.25" as="sourcePoint" />
            <mxPoint x="1335" y="1815.25" as="targetPoint" />
            <Array as="points">
              <mxPoint x="1355" y="1870.25" />
            </Array>
          </mxGeometry>
        </mxCell>
        <mxCell id="YVLUfFIhRKJOg-uTzJRr-569" value="" style="endArrow=none;dashed=1;html=1;dashPattern=1 3;strokeWidth=1.8;rounded=0;curved=1;fillColor=#6a00ff;strokeColor=#99004D;exitX=0;exitY=0.5;exitDx=0;exitDy=0;entryX=0.95;entryY=0.541;entryDx=0;entryDy=0;entryPerimeter=0;" parent="1" source="YVLUfFIhRKJOg-uTzJRr-545" target="YVLUfFIhRKJOg-uTzJRr-503" edge="1">
          <mxGeometry width="50" height="50" relative="1" as="geometry">
            <mxPoint x="1435" y="1881.25" as="sourcePoint" />
            <mxPoint x="1345" y="1825.25" as="targetPoint" />
            <Array as="points">
              <mxPoint x="1375" y="1910.25" />
            </Array>
          </mxGeometry>
        </mxCell>
        <mxCell id="YVLUfFIhRKJOg-uTzJRr-570" value="" style="endArrow=none;dashed=1;html=1;dashPattern=1 3;strokeWidth=1.8;rounded=0;curved=1;fillColor=#6a00ff;strokeColor=#99004D;exitX=0;exitY=0.5;exitDx=0;exitDy=0;entryX=1;entryY=0.5;entryDx=0;entryDy=0;" parent="1" source="YVLUfFIhRKJOg-uTzJRr-549" target="YVLUfFIhRKJOg-uTzJRr-503" edge="1">
          <mxGeometry width="50" height="50" relative="1" as="geometry">
            <mxPoint x="1435" y="1931.25" as="sourcePoint" />
            <mxPoint x="1343" y="1962.25" as="targetPoint" />
            <Array as="points" />
          </mxGeometry>
        </mxCell>
        <mxCell id="YVLUfFIhRKJOg-uTzJRr-571" value="" style="endArrow=none;dashed=1;html=1;dashPattern=1 3;strokeWidth=1.8;rounded=0;curved=1;fillColor=#6a00ff;strokeColor=#99004D;exitX=0;exitY=0.5;exitDx=0;exitDy=0;entryX=0.957;entryY=0.51;entryDx=0;entryDy=0;entryPerimeter=0;" parent="1" source="YVLUfFIhRKJOg-uTzJRr-553" target="YVLUfFIhRKJOg-uTzJRr-503" edge="1">
          <mxGeometry width="50" height="50" relative="1" as="geometry">
            <mxPoint x="1435" y="1960.25" as="sourcePoint" />
            <mxPoint x="1345" y="1961.25" as="targetPoint" />
            <Array as="points">
              <mxPoint x="1375" y="1990.25" />
            </Array>
          </mxGeometry>
        </mxCell>
        <mxCell id="YVLUfFIhRKJOg-uTzJRr-575" value="" style="endArrow=none;html=1;rounded=0;exitX=0.468;exitY=0.059;exitDx=0;exitDy=0;exitPerimeter=0;entryX=0;entryY=0.5;entryDx=0;entryDy=0;curved=1;fillColor=#6a00ff;strokeColor=#3700CC;strokeWidth=2;" parent="1" source="YVLUfFIhRKJOg-uTzJRr-184" target="YVLUfFIhRKJOg-uTzJRr-505" edge="1">
          <mxGeometry width="50" height="50" relative="1" as="geometry">
            <mxPoint x="635" y="1690.25" as="sourcePoint" />
            <mxPoint x="685" y="1640.25" as="targetPoint" />
            <Array as="points">
              <mxPoint x="465" y="1690.25" />
            </Array>
          </mxGeometry>
        </mxCell>
        <mxCell id="YVLUfFIhRKJOg-uTzJRr-576" value="&lt;font face=&quot;Comic Sans MS&quot;&gt;Capstone: Project&lt;/font&gt;" style="rounded=0;whiteSpace=wrap;html=1;fillColor=#004C99;fontColor=#D5E8D4;strokeColor=#000000;fontStyle=1" parent="1" vertex="1">
          <mxGeometry x="396.12" y="2440.25" width="167" height="23.5" as="geometry" />
        </mxCell>
        <mxCell id="YVLUfFIhRKJOg-uTzJRr-578" value="" style="group" parent="1" vertex="1" connectable="0">
          <mxGeometry x="625" y="1990.25" width="190" height="22.5" as="geometry" />
        </mxCell>
        <mxCell id="YVLUfFIhRKJOg-uTzJRr-579" value="&lt;font face=&quot;Comic Sans MS&quot;&gt;&lt;b&gt;User Interface (JavaFX)&lt;/b&gt;&lt;/font&gt;" style="rounded=0;whiteSpace=wrap;html=1;fillColor=#FFFF99;fontColor=#000000;strokeColor=#000000;" parent="YVLUfFIhRKJOg-uTzJRr-578" vertex="1">
          <mxGeometry x="-60" width="214.38" height="22.5" as="geometry" />
        </mxCell>
        <mxCell id="YVLUfFIhRKJOg-uTzJRr-580" value="" style="rounded=0;whiteSpace=wrap;html=1;fillColor=#999900;fontColor=#000000;strokeColor=#000000;" parent="YVLUfFIhRKJOg-uTzJRr-578" vertex="1">
          <mxGeometry x="154.375" width="35.625" height="22.5" as="geometry" />
        </mxCell>
        <mxCell id="YVLUfFIhRKJOg-uTzJRr-581" value="" style="verticalLabelPosition=bottom;verticalAlign=top;html=1;shape=mxgraph.basic.tick;strokeColor=#000000;fillColor=#000000;" parent="YVLUfFIhRKJOg-uTzJRr-578" vertex="1">
          <mxGeometry x="162.59249999999997" y="3.5" width="19.190000000000005" height="15.5" as="geometry" />
        </mxCell>
        <mxCell id="YVLUfFIhRKJOg-uTzJRr-583" value="" style="endArrow=none;dashed=1;html=1;dashPattern=1 3;strokeWidth=1.8;rounded=0;curved=1;fillColor=#6a00ff;strokeColor=#3700CC;exitX=0;exitY=0.5;exitDx=0;exitDy=0;entryX=0.772;entryY=0.927;entryDx=0;entryDy=0;entryPerimeter=0;" parent="1" source="YVLUfFIhRKJOg-uTzJRr-586" target="YVLUfFIhRKJOg-uTzJRr-184" edge="1">
          <mxGeometry width="50" height="50" relative="1" as="geometry">
            <mxPoint x="254" y="1948.25" as="sourcePoint" />
            <mxPoint x="383" y="1844.25" as="targetPoint" />
            <Array as="points">
              <mxPoint x="505" y="2030.25" />
              <mxPoint x="455" y="1920.25" />
            </Array>
          </mxGeometry>
        </mxCell>
        <mxCell id="YVLUfFIhRKJOg-uTzJRr-585" value="" style="group" parent="1" vertex="1" connectable="0">
          <mxGeometry x="625" y="2040.25" width="190" height="22.5" as="geometry" />
        </mxCell>
        <mxCell id="YVLUfFIhRKJOg-uTzJRr-586" value="&lt;font face=&quot;Comic Sans MS&quot;&gt;&lt;b&gt;Java Databases Connectivity(JDBC)&lt;/b&gt;&lt;/font&gt;" style="rounded=0;whiteSpace=wrap;html=1;fillColor=#FFFF99;fontColor=#000000;strokeColor=#000000;" parent="YVLUfFIhRKJOg-uTzJRr-585" vertex="1">
          <mxGeometry x="-60" width="214.38" height="22.5" as="geometry" />
        </mxCell>
        <mxCell id="YVLUfFIhRKJOg-uTzJRr-587" value="" style="rounded=0;whiteSpace=wrap;html=1;fillColor=#999900;fontColor=#000000;strokeColor=#000000;" parent="YVLUfFIhRKJOg-uTzJRr-585" vertex="1">
          <mxGeometry x="154.375" width="35.625" height="22.5" as="geometry" />
        </mxCell>
        <mxCell id="YVLUfFIhRKJOg-uTzJRr-588" value="" style="verticalLabelPosition=bottom;verticalAlign=top;html=1;shape=mxgraph.basic.tick;strokeColor=#000000;fillColor=#000000;" parent="YVLUfFIhRKJOg-uTzJRr-585" vertex="1">
          <mxGeometry x="162.59249999999997" y="3.5" width="19.190000000000005" height="15.5" as="geometry" />
        </mxCell>
        <mxCell id="YVLUfFIhRKJOg-uTzJRr-589" value="" style="endArrow=none;dashed=1;html=1;dashPattern=1 3;strokeWidth=1.8;rounded=0;curved=1;fillColor=#6a00ff;strokeColor=#3700CC;exitX=0;exitY=0.5;exitDx=0;exitDy=0;entryX=0.772;entryY=0.99;entryDx=0;entryDy=0;entryPerimeter=0;" parent="1" source="YVLUfFIhRKJOg-uTzJRr-579" target="YVLUfFIhRKJOg-uTzJRr-184" edge="1">
          <mxGeometry width="50" height="50" relative="1" as="geometry">
            <mxPoint x="575" y="2011.25" as="sourcePoint" />
            <mxPoint x="472" y="1843.25" as="targetPoint" />
            <Array as="points">
              <mxPoint x="525" y="2000.25" />
              <mxPoint x="465" y="1930.25" />
            </Array>
          </mxGeometry>
        </mxCell>
        <mxCell id="YVLUfFIhRKJOg-uTzJRr-594" value="" style="group" parent="1" vertex="1" connectable="0">
          <mxGeometry x="925" y="2020.25" width="190" height="22.5" as="geometry" />
        </mxCell>
        <mxCell id="YVLUfFIhRKJOg-uTzJRr-595" value="&lt;font face=&quot;Comic Sans MS&quot;&gt;&lt;b&gt;Relational Databases (MySQL)&lt;/b&gt;&lt;/font&gt;" style="rounded=0;whiteSpace=wrap;html=1;fillColor=#FFFF99;fontColor=#000000;strokeColor=#000000;" parent="YVLUfFIhRKJOg-uTzJRr-594" vertex="1">
          <mxGeometry x="-40" width="194.38" height="22.5" as="geometry" />
        </mxCell>
        <mxCell id="YVLUfFIhRKJOg-uTzJRr-596" value="" style="rounded=0;whiteSpace=wrap;html=1;fillColor=#999900;fontColor=#000000;strokeColor=#000000;" parent="YVLUfFIhRKJOg-uTzJRr-594" vertex="1">
          <mxGeometry x="154.375" width="35.625" height="22.5" as="geometry" />
        </mxCell>
        <mxCell id="YVLUfFIhRKJOg-uTzJRr-597" value="" style="verticalLabelPosition=bottom;verticalAlign=top;html=1;shape=mxgraph.basic.tick;strokeColor=#000000;fillColor=#000000;" parent="YVLUfFIhRKJOg-uTzJRr-594" vertex="1">
          <mxGeometry x="162.59249999999997" y="3.5" width="19.190000000000005" height="15.5" as="geometry" />
        </mxCell>
        <mxCell id="YVLUfFIhRKJOg-uTzJRr-598" value="" style="group" parent="1" vertex="1" connectable="0">
          <mxGeometry x="925" y="2060.25" width="190" height="22.5" as="geometry" />
        </mxCell>
        <mxCell id="YVLUfFIhRKJOg-uTzJRr-599" value="&lt;font face=&quot;Comic Sans MS&quot;&gt;&lt;b&gt;NoSQL Databases (MongoDB)&lt;/b&gt;&lt;/font&gt;" style="rounded=0;whiteSpace=wrap;html=1;fillColor=#FFFF99;fontColor=#000000;strokeColor=#000000;" parent="YVLUfFIhRKJOg-uTzJRr-598" vertex="1">
          <mxGeometry x="-40" width="194.38" height="22.5" as="geometry" />
        </mxCell>
        <mxCell id="YVLUfFIhRKJOg-uTzJRr-600" value="" style="rounded=0;whiteSpace=wrap;html=1;fillColor=#999900;fontColor=#000000;strokeColor=#000000;" parent="YVLUfFIhRKJOg-uTzJRr-598" vertex="1">
          <mxGeometry x="154.375" width="35.625" height="22.5" as="geometry" />
        </mxCell>
        <mxCell id="YVLUfFIhRKJOg-uTzJRr-601" value="" style="verticalLabelPosition=bottom;verticalAlign=top;html=1;shape=mxgraph.basic.tick;strokeColor=#000000;fillColor=#000000;" parent="YVLUfFIhRKJOg-uTzJRr-598" vertex="1">
          <mxGeometry x="162.59249999999997" y="3.5" width="19.190000000000005" height="15.5" as="geometry" />
        </mxCell>
        <mxCell id="YVLUfFIhRKJOg-uTzJRr-602" value="" style="endArrow=none;dashed=1;html=1;dashPattern=1 3;strokeWidth=1.8;rounded=0;curved=1;fillColor=#6a00ff;strokeColor=#99004D;exitX=0;exitY=0.5;exitDx=0;exitDy=0;entryX=1;entryY=0.5;entryDx=0;entryDy=0;" parent="1" source="YVLUfFIhRKJOg-uTzJRr-595" target="YVLUfFIhRKJOg-uTzJRr-587" edge="1">
          <mxGeometry width="50" height="50" relative="1" as="geometry">
            <mxPoint x="845" y="1961.25" as="sourcePoint" />
            <mxPoint x="775" y="1901.25" as="targetPoint" />
            <Array as="points">
              <mxPoint x="845" y="2030.25" />
            </Array>
          </mxGeometry>
        </mxCell>
        <mxCell id="YVLUfFIhRKJOg-uTzJRr-603" value="" style="endArrow=none;dashed=1;html=1;dashPattern=1 3;strokeWidth=1.8;rounded=0;curved=1;fillColor=#6a00ff;strokeColor=#99004D;exitX=0;exitY=0.5;exitDx=0;exitDy=0;entryX=1;entryY=0.5;entryDx=0;entryDy=0;" parent="1" source="YVLUfFIhRKJOg-uTzJRr-599" target="YVLUfFIhRKJOg-uTzJRr-587" edge="1">
          <mxGeometry width="50" height="50" relative="1" as="geometry">
            <mxPoint x="895" y="2041.25" as="sourcePoint" />
            <mxPoint x="825" y="2061.25" as="targetPoint" />
            <Array as="points">
              <mxPoint x="845" y="2070.25" />
            </Array>
          </mxGeometry>
        </mxCell>
        <mxCell id="YVLUfFIhRKJOg-uTzJRr-604" value="" style="group" parent="1" vertex="1" connectable="0">
          <mxGeometry x="636.12" y="2440.25" width="220" height="22.5" as="geometry" />
        </mxCell>
        <mxCell id="YVLUfFIhRKJOg-uTzJRr-605" value="&lt;font face=&quot;Comic Sans MS&quot;&gt;Point-Of-Sales (POS) System&lt;/font&gt;" style="rounded=0;whiteSpace=wrap;html=1;fillColor=#FFFF99;fontColor=#000000;strokeColor=#000000;fontStyle=1" parent="YVLUfFIhRKJOg-uTzJRr-604" vertex="1">
          <mxGeometry width="220" height="22.5" as="geometry" />
        </mxCell>
        <mxCell id="YVLUfFIhRKJOg-uTzJRr-608" value="" style="endArrow=classic;html=1;rounded=0;strokeWidth=2;entryX=0;entryY=0.5;entryDx=0;entryDy=0;exitX=1;exitY=0.5;exitDx=0;exitDy=0;" parent="1" source="YVLUfFIhRKJOg-uTzJRr-576" target="YVLUfFIhRKJOg-uTzJRr-605" edge="1">
          <mxGeometry width="50" height="50" relative="1" as="geometry">
            <mxPoint x="561.12" y="2450.25" as="sourcePoint" />
            <mxPoint x="621.12" y="2450.25" as="targetPoint" />
          </mxGeometry>
        </mxCell>
        <mxCell id="YVLUfFIhRKJOg-uTzJRr-606" value="" style="rounded=0;whiteSpace=wrap;html=1;fillColor=#999900;fontColor=#000000;strokeColor=#000000;" parent="1" vertex="1">
          <mxGeometry x="851.125" y="2440.25" width="31.875" height="22.5" as="geometry" />
        </mxCell>
        <mxCell id="YVLUfFIhRKJOg-uTzJRr-607" value="" style="verticalLabelPosition=bottom;verticalAlign=top;html=1;shape=mxgraph.basic.tick;strokeColor=#000000;fillColor=#000000;" parent="1" vertex="1">
          <mxGeometry x="858.4775" y="2443.75" width="17.17" height="15.5" as="geometry" />
        </mxCell>
        <mxCell id="YVLUfFIhRKJOg-uTzJRr-610" value="&lt;b&gt;&lt;font face=&quot;Comic Sans MS&quot;&gt;&amp;nbsp;&lt;u&gt;&lt;font style=&quot;font-size: 13px;&quot;&gt;Java Learning Roadmap:&lt;/font&gt;&lt;/u&gt;&lt;/font&gt;&lt;/b&gt;&lt;div&gt;&lt;font face=&quot;Comic Sans MS&quot;&gt;&lt;b&gt;&amp;nbsp;Author: Tristan Sim&lt;/b&gt;&lt;/font&gt;&lt;/div&gt;&lt;div&gt;&lt;font face=&quot;Comic Sans MS&quot;&gt;&lt;b&gt;&amp;nbsp;Sources: 1) Monash ITO 4131 (Java Programming)&amp;nbsp;&lt;/b&gt;&lt;/font&gt;&lt;/div&gt;&lt;div&gt;&lt;font face=&quot;Comic Sans MS&quot;&gt;&lt;b&gt;&amp;nbsp; &amp;nbsp; &amp;nbsp; &amp;nbsp; &amp;nbsp; &amp;nbsp;2) https://roadmap.sh/java&lt;/b&gt;&lt;/font&gt;&lt;/div&gt;" style="rounded=0;whiteSpace=wrap;html=1;fillColor=#E6E6E6;fontColor=#000000;strokeColor=#000000;align=left;" parent="1" vertex="1">
          <mxGeometry x="55" y="1150.25" width="380" height="80" as="geometry" />
        </mxCell>
        <mxCell id="YVLUfFIhRKJOg-uTzJRr-615" value="" style="dashed=0;outlineConnect=0;html=1;align=center;labelPosition=center;verticalLabelPosition=bottom;verticalAlign=top;shape=mxgraph.weblogos.java" parent="1" vertex="1">
          <mxGeometry x="386.29" y="1158.75" width="34.4" height="62.5" as="geometry" />
        </mxCell>
        <mxCell id="YVLUfFIhRKJOg-uTzJRr-620" value="" style="group" parent="1" vertex="1" connectable="0">
          <mxGeometry x="55" y="1870.25" width="190" height="22.5" as="geometry" />
        </mxCell>
        <mxCell id="YVLUfFIhRKJOg-uTzJRr-621" value="&lt;font face=&quot;Comic Sans MS&quot;&gt;&lt;b&gt;Lambda Expressions&lt;/b&gt;&lt;/font&gt;" style="rounded=0;whiteSpace=wrap;html=1;fillColor=#FFFF99;fontColor=#000000;strokeColor=#000000;" parent="YVLUfFIhRKJOg-uTzJRr-620" vertex="1">
          <mxGeometry width="154.375" height="22.5" as="geometry" />
        </mxCell>
        <mxCell id="YVLUfFIhRKJOg-uTzJRr-622" value="" style="rounded=0;whiteSpace=wrap;html=1;fillColor=#999900;fontColor=#000000;strokeColor=#000000;" parent="YVLUfFIhRKJOg-uTzJRr-620" vertex="1">
          <mxGeometry x="154.375" width="35.625" height="22.5" as="geometry" />
        </mxCell>
        <mxCell id="YVLUfFIhRKJOg-uTzJRr-623" value="" style="verticalLabelPosition=bottom;verticalAlign=top;html=1;shape=mxgraph.basic.tick;strokeColor=#000000;fillColor=#000000;" parent="YVLUfFIhRKJOg-uTzJRr-620" vertex="1">
          <mxGeometry x="162.59249999999997" y="3.5" width="19.190000000000005" height="15.5" as="geometry" />
        </mxCell>
        <mxCell id="YVLUfFIhRKJOg-uTzJRr-624" value="" style="endArrow=none;dashed=1;html=1;dashPattern=1 3;strokeWidth=1.8;rounded=0;curved=1;fillColor=#6a00ff;strokeColor=#4C0099;entryX=1;entryY=0.5;entryDx=0;entryDy=0;exitX=0;exitY=0.5;exitDx=0;exitDy=0;" parent="1" source="YVLUfFIhRKJOg-uTzJRr-184" target="YVLUfFIhRKJOg-uTzJRr-622" edge="1">
          <mxGeometry width="50" height="50" relative="1" as="geometry">
            <mxPoint x="343" y="1831.25" as="sourcePoint" />
            <mxPoint x="277" y="1861.25" as="targetPoint" />
            <Array as="points">
              <mxPoint x="325" y="1890.25" />
            </Array>
          </mxGeometry>
        </mxCell>
        <mxCell id="YVLUfFIhRKJOg-uTzJRr-625" value="&lt;font face=&quot;Comic Sans MS&quot;&gt;&lt;b&gt;Software Design&lt;/b&gt;&lt;/font&gt;" style="rounded=0;whiteSpace=wrap;html=1;fillColor=#FFFF33;fontColor=#000000;strokeColor=#000000;" parent="1" vertex="1">
          <mxGeometry x="448" y="2270.25" width="160" height="22.5" as="geometry" />
        </mxCell>
        <mxCell id="YVLUfFIhRKJOg-uTzJRr-628" value="" style="group" parent="1" vertex="1" connectable="0">
          <mxGeometry x="175" y="2270.25" width="190" height="22.5" as="geometry" />
        </mxCell>
        <mxCell id="YVLUfFIhRKJOg-uTzJRr-629" value="&lt;font face=&quot;Comic Sans MS&quot;&gt;&lt;b&gt;Unified Modelling Language (UML)&lt;/b&gt;&lt;/font&gt;" style="rounded=0;whiteSpace=wrap;html=1;fillColor=#FFFF99;fontColor=#000000;strokeColor=#000000;" parent="YVLUfFIhRKJOg-uTzJRr-628" vertex="1">
          <mxGeometry x="-60" width="214.38" height="22.5" as="geometry" />
        </mxCell>
        <mxCell id="YVLUfFIhRKJOg-uTzJRr-630" value="" style="rounded=0;whiteSpace=wrap;html=1;fillColor=#999900;fontColor=#000000;strokeColor=#000000;" parent="YVLUfFIhRKJOg-uTzJRr-628" vertex="1">
          <mxGeometry x="154.375" width="35.625" height="22.5" as="geometry" />
        </mxCell>
        <mxCell id="YVLUfFIhRKJOg-uTzJRr-631" value="" style="verticalLabelPosition=bottom;verticalAlign=top;html=1;shape=mxgraph.basic.tick;strokeColor=#000000;fillColor=#000000;" parent="YVLUfFIhRKJOg-uTzJRr-628" vertex="1">
          <mxGeometry x="162.59249999999997" y="3.5" width="19.190000000000005" height="15.5" as="geometry" />
        </mxCell>
        <mxCell id="YVLUfFIhRKJOg-uTzJRr-632" value="" style="group" parent="1" vertex="1" connectable="0">
          <mxGeometry x="85" y="2310.25" width="170" height="22.5" as="geometry" />
        </mxCell>
        <mxCell id="YVLUfFIhRKJOg-uTzJRr-633" value="&lt;font face=&quot;Comic Sans MS&quot;&gt;&lt;b&gt;Class Diagram&lt;/b&gt;&lt;/font&gt;" style="rounded=0;whiteSpace=wrap;html=1;fillColor=#CCFF99;fontColor=#000000;strokeColor=#000000;" parent="YVLUfFIhRKJOg-uTzJRr-632" vertex="1">
          <mxGeometry width="138.125" height="22.5" as="geometry" />
        </mxCell>
        <mxCell id="YVLUfFIhRKJOg-uTzJRr-634" value="" style="rounded=0;whiteSpace=wrap;html=1;fillColor=#80FF00;fontColor=#000000;strokeColor=#000000;" parent="YVLUfFIhRKJOg-uTzJRr-632" vertex="1">
          <mxGeometry x="138.125" width="31.875" height="22.5" as="geometry" />
        </mxCell>
        <mxCell id="YVLUfFIhRKJOg-uTzJRr-635" value="" style="verticalLabelPosition=bottom;verticalAlign=top;html=1;shape=mxgraph.basic.tick;strokeColor=#000000;fillColor=#000000;" parent="YVLUfFIhRKJOg-uTzJRr-632" vertex="1">
          <mxGeometry x="145.47749999999996" y="3.5" width="17.17" height="15.5" as="geometry" />
        </mxCell>
        <mxCell id="YVLUfFIhRKJOg-uTzJRr-636" value="" style="group" parent="1" vertex="1" connectable="0">
          <mxGeometry x="85" y="2340.25" width="170" height="22.5" as="geometry" />
        </mxCell>
        <mxCell id="YVLUfFIhRKJOg-uTzJRr-637" value="&lt;font face=&quot;Comic Sans MS&quot;&gt;&lt;b&gt;Sequence Diagram&lt;/b&gt;&lt;/font&gt;" style="rounded=0;whiteSpace=wrap;html=1;fillColor=#CCFF99;fontColor=#000000;strokeColor=#000000;" parent="YVLUfFIhRKJOg-uTzJRr-636" vertex="1">
          <mxGeometry width="138.125" height="22.5" as="geometry" />
        </mxCell>
        <mxCell id="YVLUfFIhRKJOg-uTzJRr-638" value="" style="rounded=0;whiteSpace=wrap;html=1;fillColor=#80FF00;fontColor=#000000;strokeColor=#000000;" parent="YVLUfFIhRKJOg-uTzJRr-636" vertex="1">
          <mxGeometry x="138.125" width="31.875" height="22.5" as="geometry" />
        </mxCell>
        <mxCell id="YVLUfFIhRKJOg-uTzJRr-639" value="" style="verticalLabelPosition=bottom;verticalAlign=top;html=1;shape=mxgraph.basic.tick;strokeColor=#000000;fillColor=#000000;" parent="YVLUfFIhRKJOg-uTzJRr-636" vertex="1">
          <mxGeometry x="145.47749999999996" y="3.5" width="17.17" height="15.5" as="geometry" />
        </mxCell>
        <mxCell id="YVLUfFIhRKJOg-uTzJRr-640" value="" style="group" parent="1" vertex="1" connectable="0">
          <mxGeometry x="85" y="2370.25" width="170" height="22.5" as="geometry" />
        </mxCell>
        <mxCell id="YVLUfFIhRKJOg-uTzJRr-641" value="&lt;font face=&quot;Comic Sans MS&quot;&gt;&lt;b&gt;Activity Diagram&lt;/b&gt;&lt;/font&gt;" style="rounded=0;whiteSpace=wrap;html=1;fillColor=#CCFF99;fontColor=#000000;strokeColor=#000000;" parent="YVLUfFIhRKJOg-uTzJRr-640" vertex="1">
          <mxGeometry width="138.125" height="22.5" as="geometry" />
        </mxCell>
        <mxCell id="YVLUfFIhRKJOg-uTzJRr-642" value="" style="rounded=0;whiteSpace=wrap;html=1;fillColor=#80FF00;fontColor=#000000;strokeColor=#000000;" parent="YVLUfFIhRKJOg-uTzJRr-640" vertex="1">
          <mxGeometry x="138.125" width="31.875" height="22.5" as="geometry" />
        </mxCell>
        <mxCell id="YVLUfFIhRKJOg-uTzJRr-643" value="" style="verticalLabelPosition=bottom;verticalAlign=top;html=1;shape=mxgraph.basic.tick;strokeColor=#000000;fillColor=#000000;" parent="YVLUfFIhRKJOg-uTzJRr-640" vertex="1">
          <mxGeometry x="145.47749999999996" y="3.5" width="17.17" height="15.5" as="geometry" />
        </mxCell>
        <mxCell id="YVLUfFIhRKJOg-uTzJRr-644" value="" style="group" parent="1" vertex="1" connectable="0">
          <mxGeometry x="85" y="2400.25" width="170" height="22.5" as="geometry" />
        </mxCell>
        <mxCell id="YVLUfFIhRKJOg-uTzJRr-645" value="&lt;font face=&quot;Comic Sans MS&quot;&gt;&lt;b&gt;Component Diagram&lt;/b&gt;&lt;/font&gt;" style="rounded=0;whiteSpace=wrap;html=1;fillColor=#CCFF99;fontColor=#000000;strokeColor=#000000;" parent="YVLUfFIhRKJOg-uTzJRr-644" vertex="1">
          <mxGeometry width="138.125" height="22.5" as="geometry" />
        </mxCell>
        <mxCell id="YVLUfFIhRKJOg-uTzJRr-646" value="" style="rounded=0;whiteSpace=wrap;html=1;fillColor=#80FF00;fontColor=#000000;strokeColor=#000000;" parent="YVLUfFIhRKJOg-uTzJRr-644" vertex="1">
          <mxGeometry x="138.125" width="31.875" height="22.5" as="geometry" />
        </mxCell>
        <mxCell id="YVLUfFIhRKJOg-uTzJRr-647" value="" style="verticalLabelPosition=bottom;verticalAlign=top;html=1;shape=mxgraph.basic.tick;strokeColor=#000000;fillColor=#000000;" parent="YVLUfFIhRKJOg-uTzJRr-644" vertex="1">
          <mxGeometry x="145.47749999999996" y="3.5" width="17.17" height="15.5" as="geometry" />
        </mxCell>
        <mxCell id="YVLUfFIhRKJOg-uTzJRr-648" value="" style="group" parent="1" vertex="1" connectable="0">
          <mxGeometry x="655" y="2270.25" width="170" height="22.5" as="geometry" />
        </mxCell>
        <mxCell id="YVLUfFIhRKJOg-uTzJRr-649" value="&lt;font face=&quot;Comic Sans MS&quot;&gt;&lt;b&gt;Design Patterns&lt;/b&gt;&lt;/font&gt;" style="rounded=0;whiteSpace=wrap;html=1;fillColor=#FFFF99;fontColor=#000000;strokeColor=#000000;" parent="YVLUfFIhRKJOg-uTzJRr-648" vertex="1">
          <mxGeometry width="138.12947368421052" height="22.5" as="geometry" />
        </mxCell>
        <mxCell id="YVLUfFIhRKJOg-uTzJRr-650" value="" style="rounded=0;whiteSpace=wrap;html=1;fillColor=#999900;fontColor=#000000;strokeColor=#000000;" parent="YVLUfFIhRKJOg-uTzJRr-648" vertex="1">
          <mxGeometry x="138.125" width="31.875" height="22.5" as="geometry" />
        </mxCell>
        <mxCell id="YVLUfFIhRKJOg-uTzJRr-651" value="" style="verticalLabelPosition=bottom;verticalAlign=top;html=1;shape=mxgraph.basic.tick;strokeColor=#000000;fillColor=#000000;" parent="YVLUfFIhRKJOg-uTzJRr-648" vertex="1">
          <mxGeometry x="145.47749999999996" y="3.5" width="17.170000000000005" height="15.5" as="geometry" />
        </mxCell>
        <mxCell id="YVLUfFIhRKJOg-uTzJRr-680" value="" style="group" parent="1" vertex="1" connectable="0">
          <mxGeometry x="897" y="2240.25" width="190" height="22.5" as="geometry" />
        </mxCell>
        <mxCell id="YVLUfFIhRKJOg-uTzJRr-681" value="&lt;font face=&quot;Comic Sans MS&quot;&gt;&lt;b&gt;Factory&lt;/b&gt;&lt;/font&gt;" style="rounded=0;whiteSpace=wrap;html=1;fillColor=#FFFF99;fontColor=#000000;strokeColor=#000000;" parent="YVLUfFIhRKJOg-uTzJRr-680" vertex="1">
          <mxGeometry width="154.375" height="22.5" as="geometry" />
        </mxCell>
        <mxCell id="YVLUfFIhRKJOg-uTzJRr-682" value="" style="rounded=0;whiteSpace=wrap;html=1;fillColor=#999900;fontColor=#000000;strokeColor=#000000;" parent="YVLUfFIhRKJOg-uTzJRr-680" vertex="1">
          <mxGeometry x="154.375" width="35.625" height="22.5" as="geometry" />
        </mxCell>
        <mxCell id="YVLUfFIhRKJOg-uTzJRr-683" value="" style="verticalLabelPosition=bottom;verticalAlign=top;html=1;shape=mxgraph.basic.tick;strokeColor=#000000;fillColor=#000000;" parent="YVLUfFIhRKJOg-uTzJRr-680" vertex="1">
          <mxGeometry x="162.59249999999997" y="3.5" width="19.190000000000005" height="15.5" as="geometry" />
        </mxCell>
        <mxCell id="YVLUfFIhRKJOg-uTzJRr-684" value="" style="group" parent="1" vertex="1" connectable="0">
          <mxGeometry x="897" y="2210.25" width="190" height="22.5" as="geometry" />
        </mxCell>
        <mxCell id="YVLUfFIhRKJOg-uTzJRr-685" value="&lt;font face=&quot;Comic Sans MS&quot;&gt;&lt;b&gt;Singleton&lt;/b&gt;&lt;/font&gt;" style="rounded=0;whiteSpace=wrap;html=1;fillColor=#FFFF99;fontColor=#000000;strokeColor=#000000;" parent="YVLUfFIhRKJOg-uTzJRr-684" vertex="1">
          <mxGeometry width="154.375" height="22.5" as="geometry" />
        </mxCell>
        <mxCell id="YVLUfFIhRKJOg-uTzJRr-686" value="" style="rounded=0;whiteSpace=wrap;html=1;fillColor=#999900;fontColor=#000000;strokeColor=#000000;" parent="YVLUfFIhRKJOg-uTzJRr-684" vertex="1">
          <mxGeometry x="154.375" width="35.625" height="22.5" as="geometry" />
        </mxCell>
        <mxCell id="YVLUfFIhRKJOg-uTzJRr-687" value="" style="verticalLabelPosition=bottom;verticalAlign=top;html=1;shape=mxgraph.basic.tick;strokeColor=#000000;fillColor=#000000;" parent="YVLUfFIhRKJOg-uTzJRr-684" vertex="1">
          <mxGeometry x="162.59249999999997" y="3.5" width="19.190000000000005" height="15.5" as="geometry" />
        </mxCell>
        <mxCell id="YVLUfFIhRKJOg-uTzJRr-688" value="" style="group" parent="1" vertex="1" connectable="0">
          <mxGeometry x="897" y="2300.25" width="190" height="22.5" as="geometry" />
        </mxCell>
        <mxCell id="YVLUfFIhRKJOg-uTzJRr-689" value="&lt;font face=&quot;Comic Sans MS&quot;&gt;&lt;b&gt;Decorator&lt;/b&gt;&lt;/font&gt;" style="rounded=0;whiteSpace=wrap;html=1;fillColor=#FFFF99;fontColor=#000000;strokeColor=#000000;" parent="YVLUfFIhRKJOg-uTzJRr-688" vertex="1">
          <mxGeometry width="154.375" height="22.5" as="geometry" />
        </mxCell>
        <mxCell id="YVLUfFIhRKJOg-uTzJRr-690" value="" style="rounded=0;whiteSpace=wrap;html=1;fillColor=#999900;fontColor=#000000;strokeColor=#000000;" parent="YVLUfFIhRKJOg-uTzJRr-688" vertex="1">
          <mxGeometry x="154.375" width="35.625" height="22.5" as="geometry" />
        </mxCell>
        <mxCell id="YVLUfFIhRKJOg-uTzJRr-691" value="" style="verticalLabelPosition=bottom;verticalAlign=top;html=1;shape=mxgraph.basic.tick;strokeColor=#000000;fillColor=#000000;" parent="YVLUfFIhRKJOg-uTzJRr-688" vertex="1">
          <mxGeometry x="162.59249999999997" y="3.5" width="19.190000000000005" height="15.5" as="geometry" />
        </mxCell>
        <mxCell id="YVLUfFIhRKJOg-uTzJRr-692" value="" style="group" parent="1" vertex="1" connectable="0">
          <mxGeometry x="897" y="2270.25" width="190" height="22.5" as="geometry" />
        </mxCell>
        <mxCell id="YVLUfFIhRKJOg-uTzJRr-693" value="&lt;b style=&quot;font-family: &amp;quot;Comic Sans MS&amp;quot;;&quot;&gt;Observer&lt;/b&gt;" style="rounded=0;whiteSpace=wrap;html=1;fillColor=#FFFF99;fontColor=#000000;strokeColor=#000000;" parent="YVLUfFIhRKJOg-uTzJRr-692" vertex="1">
          <mxGeometry width="154.375" height="22.5" as="geometry" />
        </mxCell>
        <mxCell id="YVLUfFIhRKJOg-uTzJRr-694" value="" style="rounded=0;whiteSpace=wrap;html=1;fillColor=#999900;fontColor=#000000;strokeColor=#000000;" parent="YVLUfFIhRKJOg-uTzJRr-692" vertex="1">
          <mxGeometry x="154.375" width="35.625" height="22.5" as="geometry" />
        </mxCell>
        <mxCell id="YVLUfFIhRKJOg-uTzJRr-695" value="" style="verticalLabelPosition=bottom;verticalAlign=top;html=1;shape=mxgraph.basic.tick;strokeColor=#000000;fillColor=#000000;" parent="YVLUfFIhRKJOg-uTzJRr-692" vertex="1">
          <mxGeometry x="162.59249999999997" y="3.5" width="19.190000000000005" height="15.5" as="geometry" />
        </mxCell>
        <mxCell id="YVLUfFIhRKJOg-uTzJRr-696" value="" style="group" parent="1" vertex="1" connectable="0">
          <mxGeometry x="897" y="2330.25" width="190.01" height="22.5" as="geometry" />
        </mxCell>
        <mxCell id="YVLUfFIhRKJOg-uTzJRr-697" value="&lt;font face=&quot;Comic Sans MS&quot;&gt;&lt;b&gt;Strategy&lt;/b&gt;&lt;/font&gt;" style="rounded=0;whiteSpace=wrap;html=1;fillColor=#FFFF99;fontColor=#000000;strokeColor=#000000;" parent="YVLUfFIhRKJOg-uTzJRr-696" vertex="1">
          <mxGeometry width="154.375" height="22.5" as="geometry" />
        </mxCell>
        <mxCell id="YVLUfFIhRKJOg-uTzJRr-698" value="" style="rounded=0;whiteSpace=wrap;html=1;fillColor=#999900;fontColor=#000000;strokeColor=#000000;" parent="YVLUfFIhRKJOg-uTzJRr-696" vertex="1">
          <mxGeometry x="154.38" width="35.63" height="22.5" as="geometry" />
        </mxCell>
        <mxCell id="YVLUfFIhRKJOg-uTzJRr-699" value="" style="verticalLabelPosition=bottom;verticalAlign=top;html=1;shape=mxgraph.basic.tick;strokeColor=#000000;fillColor=#000000;" parent="YVLUfFIhRKJOg-uTzJRr-696" vertex="1">
          <mxGeometry x="162.59249999999997" y="3.5" width="19.190000000000005" height="15.5" as="geometry" />
        </mxCell>
        <mxCell id="YVLUfFIhRKJOg-uTzJRr-700" value="" style="endArrow=none;dashed=1;html=1;dashPattern=1 3;strokeWidth=1.8;rounded=0;curved=1;fillColor=#6a00ff;strokeColor=#99004D;exitX=0;exitY=0.5;exitDx=0;exitDy=0;entryX=1;entryY=0.5;entryDx=0;entryDy=0;" parent="1" source="YVLUfFIhRKJOg-uTzJRr-685" edge="1">
          <mxGeometry width="50" height="50" relative="1" as="geometry">
            <mxPoint x="1357" y="2077.25" as="sourcePoint" />
            <mxPoint x="827" y="2281.25" as="targetPoint" />
            <Array as="points">
              <mxPoint x="847" y="2230.25" />
            </Array>
          </mxGeometry>
        </mxCell>
        <mxCell id="YVLUfFIhRKJOg-uTzJRr-701" value="" style="endArrow=none;dashed=1;html=1;dashPattern=1 3;strokeWidth=1.8;rounded=0;curved=1;fillColor=#6a00ff;strokeColor=#99004D;exitX=0;exitY=0.5;exitDx=0;exitDy=0;entryX=0.956;entryY=0.568;entryDx=0;entryDy=0;entryPerimeter=0;" parent="1" source="YVLUfFIhRKJOg-uTzJRr-681" edge="1">
          <mxGeometry width="50" height="50" relative="1" as="geometry">
            <mxPoint x="937" y="2247.25" as="sourcePoint" />
            <mxPoint x="825" y="2283.25" as="targetPoint" />
            <Array as="points">
              <mxPoint x="867" y="2250.25" />
            </Array>
          </mxGeometry>
        </mxCell>
        <mxCell id="YVLUfFIhRKJOg-uTzJRr-702" value="" style="endArrow=none;dashed=1;html=1;dashPattern=1 3;strokeWidth=1.8;rounded=0;curved=1;fillColor=#6a00ff;strokeColor=#99004D;exitX=0;exitY=0.5;exitDx=0;exitDy=0;entryX=1;entryY=0.5;entryDx=0;entryDy=0;" parent="1" source="YVLUfFIhRKJOg-uTzJRr-693" edge="1">
          <mxGeometry width="50" height="50" relative="1" as="geometry">
            <mxPoint x="937" y="2277.25" as="sourcePoint" />
            <mxPoint x="827" y="2281.25" as="targetPoint" />
            <Array as="points" />
          </mxGeometry>
        </mxCell>
        <mxCell id="YVLUfFIhRKJOg-uTzJRr-703" value="" style="endArrow=none;dashed=1;html=1;dashPattern=1 3;strokeWidth=1.8;rounded=0;curved=1;fillColor=#6a00ff;strokeColor=#99004D;exitX=0;exitY=0.5;exitDx=0;exitDy=0;entryX=1.019;entryY=0.642;entryDx=0;entryDy=0;entryPerimeter=0;" parent="1" source="YVLUfFIhRKJOg-uTzJRr-689" edge="1">
          <mxGeometry width="50" height="50" relative="1" as="geometry">
            <mxPoint x="937" y="2307.25" as="sourcePoint" />
            <mxPoint x="828" y="2284.25" as="targetPoint" />
            <Array as="points">
              <mxPoint x="867" y="2310.25" />
            </Array>
          </mxGeometry>
        </mxCell>
        <mxCell id="YVLUfFIhRKJOg-uTzJRr-704" value="" style="endArrow=none;dashed=1;html=1;dashPattern=1 3;strokeWidth=1.8;rounded=0;curved=1;fillColor=#6a00ff;strokeColor=#99004D;exitX=0;exitY=0.5;exitDx=0;exitDy=0;entryX=1;entryY=0.5;entryDx=0;entryDy=0;" parent="1" source="YVLUfFIhRKJOg-uTzJRr-697" edge="1">
          <mxGeometry width="50" height="50" relative="1" as="geometry">
            <mxPoint x="957" y="2321.25" as="sourcePoint" />
            <mxPoint x="827" y="2281.25" as="targetPoint" />
            <Array as="points">
              <mxPoint x="847" y="2330.25" />
            </Array>
          </mxGeometry>
        </mxCell>
        <mxCell id="YVLUfFIhRKJOg-uTzJRr-705" value="" style="endArrow=none;dashed=1;html=1;dashPattern=1 3;strokeWidth=1.8;rounded=0;curved=1;fillColor=#6a00ff;strokeColor=#3700CC;exitX=1;exitY=0.5;exitDx=0;exitDy=0;entryX=0;entryY=0.5;entryDx=0;entryDy=0;" parent="1" source="YVLUfFIhRKJOg-uTzJRr-630" target="YVLUfFIhRKJOg-uTzJRr-625" edge="1">
          <mxGeometry width="50" height="50" relative="1" as="geometry">
            <mxPoint x="254" y="2048.25" as="sourcePoint" />
            <mxPoint x="383" y="1944.25" as="targetPoint" />
            <Array as="points">
              <mxPoint x="385" y="2280.25" />
            </Array>
          </mxGeometry>
        </mxCell>
        <mxCell id="YVLUfFIhRKJOg-uTzJRr-706" value="" style="endArrow=none;dashed=1;html=1;dashPattern=1 3;strokeWidth=1.8;rounded=0;curved=1;fillColor=#6a00ff;strokeColor=#3700CC;exitX=1;exitY=0.5;exitDx=0;exitDy=0;entryX=0;entryY=0.5;entryDx=0;entryDy=0;" parent="1" source="YVLUfFIhRKJOg-uTzJRr-625" target="YVLUfFIhRKJOg-uTzJRr-649" edge="1">
          <mxGeometry width="50" height="50" relative="1" as="geometry">
            <mxPoint x="345" y="2281.25" as="sourcePoint" />
            <mxPoint x="595" y="2340.25" as="targetPoint" />
            <Array as="points">
              <mxPoint x="645" y="2280.25" />
            </Array>
          </mxGeometry>
        </mxCell>
        <mxCell id="YVLUfFIhRKJOg-uTzJRr-709" value="" style="group" parent="1" vertex="1" connectable="0">
          <mxGeometry x="655" y="2340.25" width="170" height="22.5" as="geometry" />
        </mxCell>
        <mxCell id="YVLUfFIhRKJOg-uTzJRr-710" value="&lt;font face=&quot;Comic Sans MS&quot;&gt;&lt;b&gt;JavaDoc&lt;/b&gt;&lt;/font&gt;" style="rounded=0;whiteSpace=wrap;html=1;fillColor=#CCFF99;fontColor=#000000;strokeColor=#000000;" parent="YVLUfFIhRKJOg-uTzJRr-709" vertex="1">
          <mxGeometry width="138.125" height="22.5" as="geometry" />
        </mxCell>
        <mxCell id="YVLUfFIhRKJOg-uTzJRr-711" value="" style="rounded=0;whiteSpace=wrap;html=1;fillColor=#80FF00;fontColor=#000000;strokeColor=#000000;" parent="YVLUfFIhRKJOg-uTzJRr-709" vertex="1">
          <mxGeometry x="138.125" width="31.875" height="22.5" as="geometry" />
        </mxCell>
        <mxCell id="YVLUfFIhRKJOg-uTzJRr-712" value="" style="verticalLabelPosition=bottom;verticalAlign=top;html=1;shape=mxgraph.basic.tick;strokeColor=#000000;fillColor=#000000;" parent="YVLUfFIhRKJOg-uTzJRr-709" vertex="1">
          <mxGeometry x="145.47749999999996" y="3.5" width="17.17" height="15.5" as="geometry" />
        </mxCell>
        <mxCell id="YVLUfFIhRKJOg-uTzJRr-713" value="" style="endArrow=none;dashed=1;html=1;dashPattern=1 3;strokeWidth=1.8;rounded=0;curved=1;fillColor=#6a00ff;strokeColor=#3700CC;exitX=0.75;exitY=1;exitDx=0;exitDy=0;entryX=0;entryY=0.5;entryDx=0;entryDy=0;" parent="1" source="YVLUfFIhRKJOg-uTzJRr-625" target="YVLUfFIhRKJOg-uTzJRr-710" edge="1">
          <mxGeometry width="50" height="50" relative="1" as="geometry">
            <mxPoint x="618" y="2291.25" as="sourcePoint" />
            <mxPoint x="665" y="2291.25" as="targetPoint" />
            <Array as="points">
              <mxPoint x="575" y="2350.25" />
            </Array>
          </mxGeometry>
        </mxCell>
        <mxCell id="YVLUfFIhRKJOg-uTzJRr-715" value="&lt;font face=&quot;Comic Sans MS&quot;&gt;&lt;b&gt;Build Tools&lt;/b&gt;&lt;/font&gt;" style="rounded=0;whiteSpace=wrap;html=1;fillColor=#FFFF33;fontColor=#000000;strokeColor=#000000;" parent="1" vertex="1">
          <mxGeometry x="437" y="2174.25" width="160" height="22.5" as="geometry" />
        </mxCell>
        <mxCell id="ZoMBdDXKxFkz2Pn1ggFO-17" value="" style="group" parent="1" vertex="1" connectable="0">
          <mxGeometry x="175" y="2188.25" width="190" height="22.5" as="geometry" />
        </mxCell>
        <mxCell id="ZoMBdDXKxFkz2Pn1ggFO-18" value="&lt;font face=&quot;Comic Sans MS&quot;&gt;&lt;b&gt;Gradle&lt;/b&gt;&lt;/font&gt;" style="rounded=0;whiteSpace=wrap;html=1;fillColor=#FFFF99;fontColor=#000000;strokeColor=#000000;" parent="ZoMBdDXKxFkz2Pn1ggFO-17" vertex="1">
          <mxGeometry width="154.375" height="22.5" as="geometry" />
        </mxCell>
        <mxCell id="ZoMBdDXKxFkz2Pn1ggFO-19" value="" style="rounded=0;whiteSpace=wrap;html=1;fillColor=#999900;fontColor=#000000;strokeColor=#000000;" parent="ZoMBdDXKxFkz2Pn1ggFO-17" vertex="1">
          <mxGeometry x="154.375" width="35.625" height="22.5" as="geometry" />
        </mxCell>
        <mxCell id="ZoMBdDXKxFkz2Pn1ggFO-20" value="" style="verticalLabelPosition=bottom;verticalAlign=top;html=1;shape=mxgraph.basic.tick;strokeColor=#000000;fillColor=#000000;" parent="ZoMBdDXKxFkz2Pn1ggFO-17" vertex="1">
          <mxGeometry x="162.59249999999997" y="3.5" width="19.190000000000005" height="15.5" as="geometry" />
        </mxCell>
        <mxCell id="ZoMBdDXKxFkz2Pn1ggFO-21" value="" style="group" parent="1" vertex="1" connectable="0">
          <mxGeometry x="175" y="2158.25" width="190" height="22.5" as="geometry" />
        </mxCell>
        <mxCell id="ZoMBdDXKxFkz2Pn1ggFO-22" value="&lt;font face=&quot;Comic Sans MS&quot;&gt;&lt;b&gt;Mavern&lt;/b&gt;&lt;/font&gt;" style="rounded=0;whiteSpace=wrap;html=1;fillColor=#FFFF99;fontColor=#000000;strokeColor=#000000;" parent="ZoMBdDXKxFkz2Pn1ggFO-21" vertex="1">
          <mxGeometry width="154.375" height="22.5" as="geometry" />
        </mxCell>
        <mxCell id="ZoMBdDXKxFkz2Pn1ggFO-23" value="" style="rounded=0;whiteSpace=wrap;html=1;fillColor=#999900;fontColor=#000000;strokeColor=#000000;" parent="ZoMBdDXKxFkz2Pn1ggFO-21" vertex="1">
          <mxGeometry x="154.375" width="35.625" height="22.5" as="geometry" />
        </mxCell>
        <mxCell id="ZoMBdDXKxFkz2Pn1ggFO-24" value="" style="verticalLabelPosition=bottom;verticalAlign=top;html=1;shape=mxgraph.basic.tick;strokeColor=#000000;fillColor=#000000;" parent="ZoMBdDXKxFkz2Pn1ggFO-21" vertex="1">
          <mxGeometry x="162.59249999999997" y="3.5" width="19.190000000000005" height="15.5" as="geometry" />
        </mxCell>
        <mxCell id="ZoMBdDXKxFkz2Pn1ggFO-29" value="&lt;font face=&quot;Comic Sans MS&quot;&gt;&lt;b&gt;Web Frameworks&lt;/b&gt;&lt;/font&gt;" style="rounded=0;whiteSpace=wrap;html=1;fillColor=#FFFF33;fontColor=#000000;strokeColor=#000000;" parent="1" vertex="1">
          <mxGeometry x="897" y="2127.75" width="160" height="22.5" as="geometry" />
        </mxCell>
        <mxCell id="ZoMBdDXKxFkz2Pn1ggFO-30" value="" style="endArrow=none;html=1;rounded=0;exitX=0.5;exitY=0;exitDx=0;exitDy=0;entryX=0;entryY=0.5;entryDx=0;entryDy=0;curved=1;fillColor=#6a00ff;strokeColor=#3700CC;strokeWidth=2;" parent="1" source="YVLUfFIhRKJOg-uTzJRr-715" target="ZoMBdDXKxFkz2Pn1ggFO-29" edge="1">
          <mxGeometry width="50" height="50" relative="1" as="geometry">
            <mxPoint x="418" y="1821.25" as="sourcePoint" />
            <mxPoint x="860" y="1706.25" as="targetPoint" />
            <Array as="points">
              <mxPoint x="565" y="2120.25" />
              <mxPoint x="785" y="2120.25" />
            </Array>
          </mxGeometry>
        </mxCell>
        <mxCell id="ZoMBdDXKxFkz2Pn1ggFO-31" value="" style="endArrow=none;dashed=1;html=1;dashPattern=1 3;strokeWidth=1.8;rounded=0;curved=1;fillColor=#6a00ff;strokeColor=#3700CC;exitX=1;exitY=0.5;exitDx=0;exitDy=0;entryX=0;entryY=0.5;entryDx=0;entryDy=0;" parent="1" source="ZoMBdDXKxFkz2Pn1ggFO-23" target="YVLUfFIhRKJOg-uTzJRr-715" edge="1">
          <mxGeometry width="50" height="50" relative="1" as="geometry">
            <mxPoint x="375" y="2291.25" as="sourcePoint" />
            <mxPoint x="458" y="2291.25" as="targetPoint" />
            <Array as="points">
              <mxPoint x="405" y="2170.25" />
            </Array>
          </mxGeometry>
        </mxCell>
        <mxCell id="ZoMBdDXKxFkz2Pn1ggFO-32" value="" style="endArrow=none;dashed=1;html=1;dashPattern=1 3;strokeWidth=1.8;rounded=0;curved=1;fillColor=#6a00ff;strokeColor=#3700CC;exitX=1;exitY=0.5;exitDx=0;exitDy=0;entryX=0;entryY=0.5;entryDx=0;entryDy=0;" parent="1" source="ZoMBdDXKxFkz2Pn1ggFO-19" target="YVLUfFIhRKJOg-uTzJRr-715" edge="1">
          <mxGeometry width="50" height="50" relative="1" as="geometry">
            <mxPoint x="375" y="2179.25" as="sourcePoint" />
            <mxPoint x="435" y="2190.25" as="targetPoint" />
            <Array as="points">
              <mxPoint x="415" y="2200.25" />
            </Array>
          </mxGeometry>
        </mxCell>
        <mxCell id="ZoMBdDXKxFkz2Pn1ggFO-33" value="" style="group" parent="1" vertex="1" connectable="0">
          <mxGeometry x="1125" y="2140.25" width="190" height="22.5" as="geometry" />
        </mxCell>
        <mxCell id="ZoMBdDXKxFkz2Pn1ggFO-34" value="&lt;font face=&quot;Comic Sans MS&quot;&gt;&lt;b&gt;SrpingBoot&lt;/b&gt;&lt;/font&gt;" style="rounded=0;whiteSpace=wrap;html=1;fillColor=#FFFF99;fontColor=#000000;strokeColor=#000000;" parent="ZoMBdDXKxFkz2Pn1ggFO-33" vertex="1">
          <mxGeometry width="154.375" height="22.5" as="geometry" />
        </mxCell>
        <mxCell id="ZoMBdDXKxFkz2Pn1ggFO-35" value="" style="rounded=0;whiteSpace=wrap;html=1;fillColor=#999900;fontColor=#000000;strokeColor=#000000;" parent="ZoMBdDXKxFkz2Pn1ggFO-33" vertex="1">
          <mxGeometry x="154.375" width="35.625" height="22.5" as="geometry" />
        </mxCell>
        <mxCell id="ZoMBdDXKxFkz2Pn1ggFO-36" value="" style="verticalLabelPosition=bottom;verticalAlign=top;html=1;shape=mxgraph.basic.tick;strokeColor=#000000;fillColor=#000000;" parent="ZoMBdDXKxFkz2Pn1ggFO-33" vertex="1">
          <mxGeometry x="162.59249999999997" y="3.5" width="19.190000000000005" height="15.5" as="geometry" />
        </mxCell>
        <mxCell id="ZoMBdDXKxFkz2Pn1ggFO-37" value="" style="group" parent="1" vertex="1" connectable="0">
          <mxGeometry x="1125" y="2110.25" width="190" height="22.5" as="geometry" />
        </mxCell>
        <mxCell id="ZoMBdDXKxFkz2Pn1ggFO-38" value="&lt;font face=&quot;Comic Sans MS&quot;&gt;&lt;b&gt;Spring&lt;/b&gt;&lt;/font&gt;" style="rounded=0;whiteSpace=wrap;html=1;fillColor=#FFFF99;fontColor=#000000;strokeColor=#000000;" parent="ZoMBdDXKxFkz2Pn1ggFO-37" vertex="1">
          <mxGeometry width="154.375" height="22.5" as="geometry" />
        </mxCell>
        <mxCell id="ZoMBdDXKxFkz2Pn1ggFO-39" value="" style="rounded=0;whiteSpace=wrap;html=1;fillColor=#999900;fontColor=#000000;strokeColor=#000000;" parent="ZoMBdDXKxFkz2Pn1ggFO-37" vertex="1">
          <mxGeometry x="154.375" width="35.625" height="22.5" as="geometry" />
        </mxCell>
        <mxCell id="ZoMBdDXKxFkz2Pn1ggFO-40" value="" style="verticalLabelPosition=bottom;verticalAlign=top;html=1;shape=mxgraph.basic.tick;strokeColor=#000000;fillColor=#000000;" parent="ZoMBdDXKxFkz2Pn1ggFO-37" vertex="1">
          <mxGeometry x="162.59249999999997" y="3.5" width="19.190000000000005" height="15.5" as="geometry" />
        </mxCell>
        <mxCell id="ZoMBdDXKxFkz2Pn1ggFO-41" value="" style="endArrow=none;dashed=1;html=1;dashPattern=1 3;strokeWidth=1.8;rounded=0;curved=1;fillColor=#6a00ff;strokeColor=#3700CC;exitX=1;exitY=0.5;exitDx=0;exitDy=0;entryX=-0.018;entryY=0.423;entryDx=0;entryDy=0;entryPerimeter=0;" parent="1" source="ZoMBdDXKxFkz2Pn1ggFO-29" target="ZoMBdDXKxFkz2Pn1ggFO-38" edge="1">
          <mxGeometry width="50" height="50" relative="1" as="geometry">
            <mxPoint x="375" y="2179.25" as="sourcePoint" />
            <mxPoint x="447" y="2195.25" as="targetPoint" />
            <Array as="points">
              <mxPoint x="1085" y="2110.25" />
            </Array>
          </mxGeometry>
        </mxCell>
        <mxCell id="ZoMBdDXKxFkz2Pn1ggFO-42" value="" style="endArrow=none;dashed=1;html=1;dashPattern=1 3;strokeWidth=1.8;rounded=0;curved=1;fillColor=#6a00ff;strokeColor=#3700CC;exitX=1;exitY=0.5;exitDx=0;exitDy=0;entryX=0;entryY=0.5;entryDx=0;entryDy=0;" parent="1" source="ZoMBdDXKxFkz2Pn1ggFO-29" target="ZoMBdDXKxFkz2Pn1ggFO-34" edge="1">
          <mxGeometry width="50" height="50" relative="1" as="geometry">
            <mxPoint x="1067" y="2149.25" as="sourcePoint" />
            <mxPoint x="1132" y="2130.25" as="targetPoint" />
            <Array as="points">
              <mxPoint x="1085" y="2160.25" />
            </Array>
          </mxGeometry>
        </mxCell>
        <mxCell id="ZoMBdDXKxFkz2Pn1ggFO-44" value="" style="endArrow=none;dashed=1;html=1;dashPattern=1 3;strokeWidth=1.8;rounded=0;curved=1;fillColor=#6a00ff;strokeColor=#99004D;exitX=0.9;exitY=1.019;exitDx=0;exitDy=0;entryX=1;entryY=0.5;entryDx=0;entryDy=0;exitPerimeter=0;" parent="1" source="YVLUfFIhRKJOg-uTzJRr-629" target="YVLUfFIhRKJOg-uTzJRr-634" edge="1">
          <mxGeometry width="50" height="50" relative="1" as="geometry">
            <mxPoint x="368" y="2370.25" as="sourcePoint" />
            <mxPoint x="298" y="2310.25" as="targetPoint" />
            <Array as="points">
              <mxPoint x="305" y="2320.25" />
            </Array>
          </mxGeometry>
        </mxCell>
        <mxCell id="ZoMBdDXKxFkz2Pn1ggFO-45" value="" style="endArrow=none;dashed=1;html=1;dashPattern=1 3;strokeWidth=1.8;rounded=0;curved=1;fillColor=#6a00ff;strokeColor=#99004D;exitX=0.914;exitY=1.029;exitDx=0;exitDy=0;entryX=1;entryY=0.5;entryDx=0;entryDy=0;exitPerimeter=0;" parent="1" source="YVLUfFIhRKJOg-uTzJRr-629" target="YVLUfFIhRKJOg-uTzJRr-638" edge="1">
          <mxGeometry width="50" height="50" relative="1" as="geometry">
            <mxPoint x="318" y="2303.25" as="sourcePoint" />
            <mxPoint x="265" y="2331.25" as="targetPoint" />
            <Array as="points">
              <mxPoint x="305" y="2351.25" />
            </Array>
          </mxGeometry>
        </mxCell>
        <mxCell id="ZoMBdDXKxFkz2Pn1ggFO-46" value="" style="endArrow=none;dashed=1;html=1;dashPattern=1 3;strokeWidth=1.8;rounded=0;curved=1;fillColor=#6a00ff;strokeColor=#99004D;exitX=0.928;exitY=1.029;exitDx=0;exitDy=0;entryX=1;entryY=0.5;entryDx=0;entryDy=0;exitPerimeter=0;" parent="1" source="YVLUfFIhRKJOg-uTzJRr-629" target="YVLUfFIhRKJOg-uTzJRr-642" edge="1">
          <mxGeometry width="50" height="50" relative="1" as="geometry">
            <mxPoint x="321" y="2303.25" as="sourcePoint" />
            <mxPoint x="265" y="2361.25" as="targetPoint" />
            <Array as="points">
              <mxPoint x="315" y="2370.25" />
            </Array>
          </mxGeometry>
        </mxCell>
        <mxCell id="ZoMBdDXKxFkz2Pn1ggFO-47" value="" style="endArrow=none;dashed=1;html=1;dashPattern=1 3;strokeWidth=1.8;rounded=0;curved=1;fillColor=#6a00ff;strokeColor=#99004D;exitX=0.941;exitY=1.007;exitDx=0;exitDy=0;entryX=1;entryY=0.5;entryDx=0;entryDy=0;exitPerimeter=0;" parent="1" source="YVLUfFIhRKJOg-uTzJRr-629" target="YVLUfFIhRKJOg-uTzJRr-646" edge="1">
          <mxGeometry width="50" height="50" relative="1" as="geometry">
            <mxPoint x="324" y="2303.25" as="sourcePoint" />
            <mxPoint x="265" y="2391.25" as="targetPoint" />
            <Array as="points">
              <mxPoint x="325" y="2380.25" />
            </Array>
          </mxGeometry>
        </mxCell>
        <mxCell id="ZoMBdDXKxFkz2Pn1ggFO-48" value="&lt;font face=&quot;Comic Sans MS&quot;&gt;&lt;b&gt;REST APIs&lt;/b&gt;&lt;/font&gt;" style="rounded=0;whiteSpace=wrap;html=1;fillColor=#FFFF33;fontColor=#000000;strokeColor=#000000;" parent="1" vertex="1">
          <mxGeometry x="1315" y="2188.25" width="127" height="22.5" as="geometry" />
        </mxCell>
        <mxCell id="ZoMBdDXKxFkz2Pn1ggFO-50" value="" style="endArrow=none;html=1;rounded=0;exitX=0.5;exitY=1;exitDx=0;exitDy=0;entryX=0;entryY=0.5;entryDx=0;entryDy=0;curved=1;fillColor=#6a00ff;strokeColor=#3700CC;strokeWidth=2;" parent="1" source="ZoMBdDXKxFkz2Pn1ggFO-29" target="ZoMBdDXKxFkz2Pn1ggFO-48" edge="1">
          <mxGeometry width="50" height="50" relative="1" as="geometry">
            <mxPoint x="725" y="2267.75" as="sourcePoint" />
            <mxPoint x="1105" y="2232.75" as="targetPoint" />
            <Array as="points">
              <mxPoint x="965" y="2170.25" />
              <mxPoint x="1125" y="2200.25" />
            </Array>
          </mxGeometry>
        </mxCell>
      </root>
    </mxGraphModel>
  </diagram>
</mxfile>
